Mitr-300.ufo
<glyph name="exclam" format="1">
  <advance width="204"/>
  <unicode hex="0021"/>
  <note>
	exclam
  </note>
  <outline>
    <contour>
      <point x="124" y="195"/>
      <point x="142" y="204"/>
      <point x="142" y="224" type="curve" smooth="yes"/>
      <point x="148" y="650" type="line" smooth="yes"/>
      <point x="148" y="670"/>
      <point x="141" y="680"/>
      <point x="119" y="680" type="curve" smooth="yes"/>
      <point x="86" y="680" type="line" smooth="yes"/>
      <point x="64" y="680"/>
      <point x="57" y="670"/>
      <point x="57" y="650" type="curve" smooth="yes"/>
      <point x="62" y="224" type="line" smooth="yes"/>
      <point x="62" y="204"/>
      <point x="80" y="195"/>
      <point x="102" y="195" type="curve" smooth="yes"/>
    </contour>
    <contour>
      <point x="112" y="0" type="line" smooth="yes"/>
      <point x="141" y="0"/>
      <point x="157" y="14"/>
      <point x="157" y="37" type="curve" smooth="yes"/>
      <point x="157" y="57" type="line" smooth="yes"/>
      <point x="157" y="80"/>
      <point x="141" y="94"/>
      <point x="112" y="94" type="curve" smooth="yes"/>
      <point x="92" y="94" type="line" smooth="yes"/>
      <point x="64" y="94"/>
      <point x="47" y="81"/>
      <point x="47" y="57" type="curve" smooth="yes"/>
      <point x="47" y="37" type="line" smooth="yes"/>
      <point x="47" y="14"/>
      <point x="64" y="0"/>
      <point x="92" y="0" type="curve" smooth="yes"/>
    </contour>
  </outline>
</glyph>
<glyph name="numbersign" format="1">
  <advance width="785"/>
  <unicode hex="0023"/>
  <note>
	numbersign
  </note>
  <outline>
    <contour>
      <point x="145" y="0" type="line" smooth="yes"/>
      <point x="159" y="0"/>
      <point x="162" y="4"/>
      <point x="166" y="13" type="curve" smooth="yes"/>
      <point x="233" y="178" type="line"/>
      <point x="430" y="178" type="line"/>
      <point x="365" y="17" type="line" smooth="yes"/>
      <point x="361" y="7"/>
      <point x="364" y="0"/>
      <point x="374" y="0" type="curve" smooth="yes"/>
      <point x="432" y="0" type="line" smooth="yes"/>
      <point x="446" y="0"/>
      <point x="449" y="4"/>
      <point x="453" y="13" type="curve" smooth="yes"/>
      <point x="521" y="178" type="line"/>
      <point x="671" y="178" type="line" smooth="yes"/>
      <point x="694" y="178"/>
      <point x="699" y="184"/>
      <point x="699" y="205" type="curve" smooth="yes"/>
      <point x="699" y="221" type="line" smooth="yes"/>
      <point x="699" y="245"/>
      <point x="694" y="250"/>
      <point x="671" y="250" type="curve" smooth="yes"/>
      <point x="549" y="250" type="line"/>
      <point x="617" y="419" type="line"/>
      <point x="711" y="419" type="line" smooth="yes"/>
      <point x="733" y="419"/>
      <point x="738" y="425"/>
      <point x="738" y="446" type="curve" smooth="yes"/>
      <point x="738" y="462" type="line" smooth="yes"/>
      <point x="738" y="486"/>
      <point x="733" y="491"/>
      <point x="710" y="491" type="curve" smooth="yes"/>
      <point x="646" y="491" type="line"/>
      <point x="715" y="663" type="line" smooth="yes"/>
      <point x="719" y="673"/>
      <point x="716" y="680"/>
      <point x="706" y="680" type="curve" smooth="yes"/>
      <point x="648" y="680" type="line" smooth="yes"/>
      <point x="634" y="680"/>
      <point x="631" y="676"/>
      <point x="627" y="667" type="curve" smooth="yes"/>
      <point x="556" y="491" type="line"/>
      <point x="358" y="491" type="line"/>
      <point x="428" y="663" type="line" smooth="yes"/>
      <point x="432" y="673"/>
      <point x="429" y="680"/>
      <point x="419" y="680" type="curve" smooth="yes"/>
      <point x="361" y="680" type="line" smooth="yes"/>
      <point x="347" y="680"/>
      <point x="344" y="676"/>
      <point x="340" y="667" type="curve" smooth="yes"/>
      <point x="268" y="491" type="line"/>
      <point x="121" y="491" type="line" smooth="yes"/>
      <point x="98" y="491"/>
      <point x="93" y="486"/>
      <point x="93" y="462" type="curve" smooth="yes"/>
      <point x="93" y="446" type="line" smooth="yes"/>
      <point x="93" y="425"/>
      <point x="98" y="419"/>
      <point x="121" y="419" type="curve" smooth="yes"/>
      <point x="240" y="419" type="line"/>
      <point x="170" y="250" type="line"/>
      <point x="75" y="250" type="line" smooth="yes"/>
      <point x="52" y="250"/>
      <point x="47" y="245"/>
      <point x="47" y="221" type="curve" smooth="yes"/>
      <point x="47" y="205" type="line" smooth="yes"/>
      <point x="47" y="184"/>
      <point x="52" y="178"/>
      <point x="75" y="178" type="curve" smooth="yes"/>
      <point x="142" y="178" type="line"/>
      <point x="78" y="17" type="line" smooth="yes"/>
      <point x="74" y="7"/>
      <point x="77" y="0"/>
      <point x="87" y="0" type="curve" smooth="yes"/>
    </contour>
    <contour>
      <point x="330" y="419" type="line"/>
      <point x="527" y="419" type="line"/>
      <point x="458" y="250" type="line"/>
      <point x="261" y="250" type="line"/>
    </contour>
  </outline>
</glyph>
<glyph name="dollar" format="1">
  <advance width="581"/>
  <unicode hex="0024"/>
  <note>
	dollar
  </note>
  <outline>
    <contour>
      <point x="314" y="-93" type="line" smooth="yes"/>
      <point x="336" y="-93"/>
      <point x="345" y="-83"/>
      <point x="345" y="-63" type="curve" smooth="yes"/>
      <point x="345" y="-12" type="line"/>
      <point x="470" y="2"/>
      <point x="534" y="66"/>
      <point x="534" y="165" type="curve" smooth="yes"/>
      <point x="534" y="288"/>
      <point x="458" y="324"/>
      <point x="336" y="369" type="curve" smooth="yes"/>
      <point x="220" y="410"/>
      <point x="157" y="426"/>
      <point x="157" y="511" type="curve" smooth="yes"/>
      <point x="157" y="595"/>
      <point x="210" y="625"/>
      <point x="302" y="625" type="curve" smooth="yes"/>
      <point x="382" y="625"/>
      <point x="433" y="610"/>
      <point x="472" y="584" type="curve" smooth="yes"/>
      <point x="482" y="577"/>
      <point x="485" y="578"/>
      <point x="491" y="587" type="curve"/>
      <point x="513" y="623" type="line" smooth="yes"/>
      <point x="519" y="633"/>
      <point x="516" y="638"/>
      <point x="506" y="645" type="curve" smooth="yes"/>
      <point x="468" y="670"/>
      <point x="418" y="687"/>
      <point x="345" y="693" type="curve"/>
      <point x="345" y="745" type="line" smooth="yes"/>
      <point x="345" y="765"/>
      <point x="336" y="775"/>
      <point x="314" y="775" type="curve" smooth="yes"/>
      <point x="288" y="775" type="line" smooth="yes"/>
      <point x="266" y="775"/>
      <point x="258" y="765"/>
      <point x="258" y="745" type="curve" smooth="yes"/>
      <point x="258" y="691" type="line"/>
      <point x="146" y="683"/>
      <point x="68" y="625"/>
      <point x="68" y="512" type="curve" smooth="yes"/>
      <point x="68" y="388"/>
      <point x="172" y="345"/>
      <point x="272" y="311" type="curve" smooth="yes"/>
      <point x="388" y="273"/>
      <point x="444" y="251"/>
      <point x="444" y="168" type="curve" smooth="yes"/>
      <point x="444" y="86"/>
      <point x="403" y="55"/>
      <point x="289" y="55" type="curve" smooth="yes"/>
      <point x="219" y="55"/>
      <point x="148" y="72"/>
      <point x="94" y="102" type="curve" smooth="yes"/>
      <point x="84" y="108"/>
      <point x="80" y="108"/>
      <point x="75" y="99" type="curve"/>
      <point x="51" y="60" type="line" smooth="yes"/>
      <point x="45" y="50"/>
      <point x="47" y="45"/>
      <point x="58" y="38" type="curve" smooth="yes"/>
      <point x="105" y="6"/>
      <point x="193" y="-9"/>
      <point x="258" y="-13" type="curve"/>
      <point x="258" y="-63" type="line" smooth="yes"/>
      <point x="258" y="-83"/>
      <point x="266" y="-93"/>
      <point x="288" y="-93" type="curve" smooth="yes"/>
    </contour>
  </outline>
</glyph>
<glyph name="percent" format="1">
  <advance width="743"/>
  <unicode hex="0025"/>
  <note>
	percent
  </note>
  <outline>
    <contour>
      <point x="176" y="0" type="line" smooth="yes"/>
      <point x="187" y="0"/>
      <point x="189" y="4"/>
      <point x="195" y="12" type="curve"/>
      <point x="640" y="661" type="line" smooth="yes"/>
      <point x="646" y="670"/>
      <point x="644" y="680"/>
      <point x="631" y="680" type="curve" smooth="yes"/>
      <point x="567" y="680" type="line" smooth="yes"/>
      <point x="556" y="680"/>
      <point x="551" y="675"/>
      <point x="546" y="667" type="curve"/>
      <point x="102" y="19" type="line" smooth="yes"/>
      <point x="96" y="10"/>
      <point x="98" y="0"/>
      <point x="111" y="0" type="curve" smooth="yes"/>
    </contour>
    <contour>
      <point x="630" y="-15"/>
      <point x="696" y="46"/>
      <point x="696" y="132" type="curve" smooth="yes"/>
      <point x="696" y="219"/>
      <point x="630" y="279"/>
      <point x="549" y="279" type="curve" smooth="yes"/>
      <point x="468" y="279"/>
      <point x="402" y="219"/>
      <point x="402" y="132" type="curve" smooth="yes"/>
      <point x="402" y="46"/>
      <point x="468" y="-15"/>
      <point x="549" y="-15" type="curve" smooth="yes"/>
    </contour>
    <contour>
      <point x="501" y="46"/>
      <point x="463" y="81"/>
      <point x="463" y="132" type="curve" smooth="yes"/>
      <point x="463" y="183"/>
      <point x="501" y="218"/>
      <point x="549" y="218" type="curve" smooth="yes"/>
      <point x="597" y="218"/>
      <point x="635" y="183"/>
      <point x="635" y="132" type="curve" smooth="yes"/>
      <point x="635" y="81"/>
      <point x="597" y="46"/>
      <point x="549" y="46" type="curve" smooth="yes"/>
    </contour>
    <contour>
      <point x="275" y="401"/>
      <point x="341" y="461"/>
      <point x="341" y="548" type="curve" smooth="yes"/>
      <point x="341" y="634"/>
      <point x="275" y="695"/>
      <point x="194" y="695" type="curve" smooth="yes"/>
      <point x="113" y="695"/>
      <point x="47" y="634"/>
      <point x="47" y="548" type="curve" smooth="yes"/>
      <point x="47" y="461"/>
      <point x="113" y="401"/>
      <point x="194" y="401" type="curve" smooth="yes"/>
    </contour>
    <contour>
      <point x="146" y="462"/>
      <point x="108" y="497"/>
      <point x="108" y="548" type="curve" smooth="yes"/>
      <point x="108" y="599"/>
      <point x="146" y="634"/>
      <point x="194" y="634" type="curve" smooth="yes"/>
      <point x="242" y="634"/>
      <point x="280" y="599"/>
      <point x="280" y="548" type="curve" smooth="yes"/>
      <point x="280" y="497"/>
      <point x="242" y="462"/>
      <point x="194" y="462" type="curve" smooth="yes"/>
    </contour>
  </outline>
</glyph>
<glyph name="parenleft" format="1">
  <advance width="342"/>
  <unicode hex="0028"/>
  <note>
	parenleft
  </note>
  <outline>
    <contour>
      <point x="293" y="-139"/>
      <point x="313" y="-133"/>
      <point x="313" y="-104" type="curve" smooth="yes"/>
      <point x="313" y="-77"/>
      <point x="306" y="-71"/>
      <point x="287" y="-58" type="curve" smooth="yes"/>
      <point x="185" y="9"/>
      <point x="136" y="152"/>
      <point x="136" y="316" type="curve" smooth="yes"/>
      <point x="136" y="480"/>
      <point x="185" y="623"/>
      <point x="287" y="690" type="curve" smooth="yes"/>
      <point x="306" y="703"/>
      <point x="313" y="709"/>
      <point x="313" y="736" type="curve" smooth="yes"/>
      <point x="313" y="765"/>
      <point x="293" y="771"/>
      <point x="262" y="758" type="curve" smooth="yes"/>
      <point x="126" y="696"/>
      <point x="47" y="518"/>
      <point x="47" y="316" type="curve" smooth="yes"/>
      <point x="47" y="114"/>
      <point x="126" y="-64"/>
      <point x="262" y="-126" type="curve" smooth="yes"/>
    </contour>
  </outline>
</glyph>
<glyph name="asterisk" format="1">
  <advance width="419"/>
  <unicode hex="002A"/>
  <note>
	asterisk
  </note>
  <outline>
    <contour>
      <point x="343" y="420" type="line" smooth="yes"/>
      <point x="350" y="426"/>
      <point x="350" y="434"/>
      <point x="343" y="441" type="curve"/>
      <point x="261" y="529" type="line"/>
      <point x="362" y="573" type="line" smooth="yes"/>
      <point x="371" y="577"/>
      <point x="374" y="583"/>
      <point x="370" y="591" type="curve"/>
      <point x="352" y="623" type="line"/>
      <point x="348" y="631"/>
      <point x="344" y="632"/>
      <point x="335" y="628" type="curve" smooth="yes"/>
      <point x="245" y="588" type="line"/>
      <point x="245" y="684" type="line" smooth="yes"/>
      <point x="245" y="699"/>
      <point x="241" y="706"/>
      <point x="225" y="706" type="curve" smooth="yes"/>
      <point x="194" y="706" type="line" smooth="yes"/>
      <point x="178" y="706"/>
      <point x="173" y="699"/>
      <point x="173" y="684" type="curve" smooth="yes"/>
      <point x="173" y="589" type="line"/>
      <point x="82" y="630" type="line" smooth="yes"/>
      <point x="75" y="633"/>
      <point x="72" y="633"/>
      <point x="67" y="624" type="curve" smooth="yes"/>
      <point x="49" y="592" type="line"/>
      <point x="45" y="584"/>
      <point x="47" y="578"/>
      <point x="56" y="574" type="curve" smooth="yes"/>
      <point x="157" y="530" type="line"/>
      <point x="75" y="442" type="line"/>
      <point x="68" y="435"/>
      <point x="68" y="428"/>
      <point x="76" y="421" type="curve" smooth="yes"/>
      <point x="103" y="397" type="line" smooth="yes"/>
      <point x="110" y="391"/>
      <point x="116" y="391"/>
      <point x="122" y="398" type="curve"/>
      <point x="209" y="492" type="line"/>
      <point x="293" y="400" type="line" smooth="yes"/>
      <point x="301" y="391"/>
      <point x="308" y="390"/>
      <point x="315" y="396" type="curve" smooth="yes"/>
    </contour>
  </outline>
</glyph>
<glyph name="comma" format="1">
  <advance width="236"/>
  <unicode hex="002C"/>
  <note>
	comma
  </note>
  <outline>
    <contour>
      <point x="89" y="-119" type="line" smooth="yes"/>
      <point x="103" y="-119"/>
      <point x="110" y="-115"/>
      <point x="114" y="-105" type="curve" smooth="yes"/>
      <point x="186" y="64" type="line" smooth="yes"/>
      <point x="193" y="81"/>
      <point x="189" y="89"/>
      <point x="171" y="89" type="curve" smooth="yes"/>
      <point x="133" y="89" type="line" smooth="yes"/>
      <point x="115" y="89"/>
      <point x="109" y="85"/>
      <point x="104" y="69" type="curve" smooth="yes"/>
      <point x="49" y="-99" type="line" smooth="yes"/>
      <point x="45" y="-111"/>
      <point x="47" y="-119"/>
      <point x="61" y="-119" type="curve" smooth="yes"/>
    </contour>
  </outline>
</glyph>
<glyph name="hyphen" format="1">
  <advance width="473"/>
  <unicode hex="002D"/>
  <note>
	hyphen
  </note>
  <outline>
    <contour>
      <point x="405" y="260" type="line" smooth="yes"/>
      <point x="419" y="260"/>
      <point x="426" y="267"/>
      <point x="426" y="281" type="curve" smooth="yes"/>
      <point x="426" y="312" type="line" smooth="yes"/>
      <point x="426" y="326"/>
      <point x="419" y="333"/>
      <point x="405" y="333" type="curve" smooth="yes"/>
      <point x="68" y="333" type="line" smooth="yes"/>
      <point x="54" y="333"/>
      <point x="47" y="326"/>
      <point x="47" y="312" type="curve" smooth="yes"/>
      <point x="47" y="281" type="line" smooth="yes"/>
      <point x="47" y="267"/>
      <point x="54" y="260"/>
      <point x="68" y="260" type="curve" smooth="yes"/>
    </contour>
  </outline>
</glyph>
<glyph name="period" format="1">
  <advance width="184"/>
  <unicode hex="002E"/>
  <note>
	period
  </note>
  <outline>
    <contour>
      <point x="100" y="0" type="line" smooth="yes"/>
      <point x="122" y="0"/>
      <point x="137" y="18"/>
      <point x="137" y="39" type="curve" smooth="yes"/>
      <point x="137" y="54" type="line" smooth="yes"/>
      <point x="137" y="76"/>
      <point x="121" y="93"/>
      <point x="100" y="93" type="curve" smooth="yes"/>
      <point x="84" y="93" type="line" smooth="yes"/>
      <point x="62" y="93"/>
      <point x="47" y="76"/>
      <point x="47" y="54" type="curve" smooth="yes"/>
      <point x="47" y="39" type="line" smooth="yes"/>
      <point x="47" y="18"/>
      <point x="62" y="0"/>
      <point x="84" y="0" type="curve" smooth="yes"/>
    </contour>
  </outline>
</glyph>
<glyph name="one" format="1">
  <advance width="459"/>
  <unicode hex="0031"/>
  <note>
	one
  </note>
  <outline>
    <contour>
      <point x="402" y="0" type="line" smooth="yes"/>
      <point x="423" y="0"/>
      <point x="432" y="6"/>
      <point x="432" y="26" type="curve" smooth="yes"/>
      <point x="432" y="45" type="line" smooth="yes"/>
      <point x="432" y="66"/>
      <point x="423" y="73"/>
      <point x="402" y="73" type="curve" smooth="yes"/>
      <point x="292" y="73" type="line"/>
      <point x="292" y="650" type="line" smooth="yes"/>
      <point x="292" y="670"/>
      <point x="283" y="680"/>
      <point x="262" y="680" type="curve" smooth="yes"/>
      <point x="242" y="680" type="line" smooth="yes"/>
      <point x="230" y="680"/>
      <point x="223" y="678"/>
      <point x="216" y="673" type="curve"/>
      <point x="60" y="579" type="line" smooth="yes"/>
      <point x="48" y="572"/>
      <point x="44" y="562"/>
      <point x="52" y="549" type="curve" smooth="yes"/>
      <point x="70" y="521" type="line" smooth="yes"/>
      <point x="78" y="508"/>
      <point x="88" y="509"/>
      <point x="100" y="516" type="curve" smooth="yes"/>
      <point x="201" y="577" type="line"/>
      <point x="201" y="73" type="line"/>
      <point x="91" y="73" type="line" smooth="yes"/>
      <point x="70" y="73"/>
      <point x="61" y="66"/>
      <point x="61" y="45" type="curve" smooth="yes"/>
      <point x="61" y="26" type="line" smooth="yes"/>
      <point x="61" y="6"/>
      <point x="70" y="0"/>
      <point x="91" y="0" type="curve" smooth="yes"/>
    </contour>
  </outline>
</glyph>
<glyph name="two" format="1">
  <advance width="574"/>
  <unicode hex="0032"/>
  <note>
	two
  </note>
  <outline>
    <contour>
      <point x="491" y="0" type="line" smooth="yes"/>
      <point x="512" y="0"/>
      <point x="520" y="7"/>
      <point x="520" y="27" type="curve" smooth="yes"/>
      <point x="520" y="44" type="line" smooth="yes"/>
      <point x="520" y="65"/>
      <point x="512" y="73"/>
      <point x="491" y="73" type="curve" smooth="yes"/>
      <point x="140" y="73" type="line"/>
      <point x="140" y="142"/>
      <point x="208" y="208"/>
      <point x="321" y="266" type="curve" smooth="yes"/>
      <point x="449" y="331"/>
      <point x="526" y="393"/>
      <point x="526" y="505" type="curve" smooth="yes"/>
      <point x="526" y="629"/>
      <point x="424" y="695"/>
      <point x="287" y="695" type="curve" smooth="yes"/>
      <point x="196" y="695"/>
      <point x="116" y="675"/>
      <point x="73" y="645" type="curve"/>
      <point x="64" y="638"/>
      <point x="62" y="633"/>
      <point x="68" y="623" type="curve" smooth="yes"/>
      <point x="89" y="586" type="line" smooth="yes"/>
      <point x="95" y="576"/>
      <point x="99" y="576"/>
      <point x="109" y="582" type="curve" smooth="yes"/>
      <point x="146" y="605"/>
      <point x="208" y="625"/>
      <point x="279" y="625" type="curve" smooth="yes"/>
      <point x="373" y="625"/>
      <point x="436" y="587"/>
      <point x="436" y="505" type="curve" smooth="yes"/>
      <point x="436" y="416"/>
      <point x="386" y="380"/>
      <point x="252" y="309" type="curve" smooth="yes"/>
      <point x="117" y="238"/>
      <point x="48" y="145"/>
      <point x="48" y="61" type="curve" smooth="yes"/>
      <point x="48" y="29" type="line" smooth="yes"/>
      <point x="48" y="10"/>
      <point x="57" y="0"/>
      <point x="76" y="0" type="curve" smooth="yes"/>
    </contour>
  </outline>
</glyph>
<glyph name="four" format="1">
  <advance width="621"/>
  <unicode hex="0034"/>
  <note>
	four
  </note>
  <outline>
    <contour>
      <point x="453" y="0" type="line" smooth="yes"/>
      <point x="475" y="0"/>
      <point x="483" y="9"/>
      <point x="483" y="29" type="curve" smooth="yes"/>
      <point x="483" y="154" type="line"/>
      <point x="564" y="154" type="line" smooth="yes"/>
      <point x="585" y="154"/>
      <point x="594" y="161"/>
      <point x="594" y="181" type="curve" smooth="yes"/>
      <point x="594" y="198" type="line" smooth="yes"/>
      <point x="594" y="219"/>
      <point x="585" y="227"/>
      <point x="564" y="227" type="curve" smooth="yes"/>
      <point x="483" y="227" type="line"/>
      <point x="483" y="650" type="line" smooth="yes"/>
      <point x="483" y="670"/>
      <point x="475" y="680"/>
      <point x="453" y="680" type="curve" smooth="yes"/>
      <point x="426" y="680" type="line" smooth="yes"/>
      <point x="411" y="680"/>
      <point x="405" y="675"/>
      <point x="397" y="666" type="curve"/>
      <point x="39" y="231" type="line" smooth="yes"/>
      <point x="30" y="220"/>
      <point x="27" y="213"/>
      <point x="27" y="199" type="curve" smooth="yes"/>
      <point x="27" y="175" type="line" smooth="yes"/>
      <point x="27" y="161"/>
      <point x="35" y="154"/>
      <point x="50" y="154" type="curve" smooth="yes"/>
      <point x="392" y="154" type="line"/>
      <point x="392" y="29" type="line" smooth="yes"/>
      <point x="392" y="9"/>
      <point x="401" y="0"/>
      <point x="422" y="0" type="curve" smooth="yes"/>
    </contour>
    <contour>
      <point x="403" y="562" type="line"/>
      <point x="403" y="227" type="line"/>
      <point x="128" y="227" type="line"/>
    </contour>
  </outline>
</glyph>
<glyph name="seven" format="1">
  <advance width="590"/>
  <unicode hex="0037"/>
  <note>
	seven
  </note>
  <outline>
    <contour>
      <point x="201" y="0" type="line" smooth="yes"/>
      <point x="213" y="0"/>
      <point x="218" y="2"/>
      <point x="222" y="10" type="curve" smooth="yes"/>
      <point x="516" y="569" type="line" smooth="yes"/>
      <point x="531" y="597"/>
      <point x="553" y="632"/>
      <point x="553" y="652" type="curve" smooth="yes"/>
      <point x="553" y="672"/>
      <point x="544" y="680"/>
      <point x="521" y="680" type="curve" smooth="yes"/>
      <point x="63" y="680" type="line" smooth="yes"/>
      <point x="43" y="680"/>
      <point x="37" y="675"/>
      <point x="37" y="655" type="curve" smooth="yes"/>
      <point x="37" y="634" type="line" smooth="yes"/>
      <point x="37" y="613"/>
      <point x="43" y="607"/>
      <point x="63" y="607" type="curve" smooth="yes"/>
      <point x="438" y="607" type="line"/>
      <point x="127" y="19" type="line" smooth="yes"/>
      <point x="122" y="10"/>
      <point x="122" y="0"/>
      <point x="135" y="0" type="curve" smooth="yes"/>
    </contour>
  </outline>
</glyph>
<glyph name="eight" format="1">
  <advance width="634"/>
  <unicode hex="0038"/>
  <note>
	eight
  </note>
  <outline>
    <contour>
      <point x="485" y="-15"/>
      <point x="587" y="58"/>
      <point x="587" y="185" type="curve" smooth="yes"/>
      <point x="587" y="268"/>
      <point x="539" y="331"/>
      <point x="463" y="354" type="curve"/>
      <point x="531" y="382"/>
      <point x="567" y="432"/>
      <point x="567" y="502" type="curve" smooth="yes"/>
      <point x="567" y="625"/>
      <point x="479" y="695"/>
      <point x="317" y="695" type="curve" smooth="yes"/>
      <point x="155" y="695"/>
      <point x="67" y="625"/>
      <point x="67" y="502" type="curve" smooth="yes"/>
      <point x="67" y="432"/>
      <point x="103" y="382"/>
      <point x="171" y="354" type="curve"/>
      <point x="95" y="331"/>
      <point x="47" y="268"/>
      <point x="47" y="185" type="curve" smooth="yes"/>
      <point x="47" y="58"/>
      <point x="149" y="-15"/>
      <point x="317" y="-15" type="curve" smooth="yes"/>
    </contour>
    <contour>
      <point x="196" y="55"/>
      <point x="136" y="98"/>
      <point x="136" y="185" type="curve" smooth="yes"/>
      <point x="136" y="272"/>
      <point x="195" y="318"/>
      <point x="317" y="318" type="curve" smooth="yes"/>
      <point x="439" y="318"/>
      <point x="498" y="272"/>
      <point x="498" y="185" type="curve" smooth="yes"/>
      <point x="498" y="98"/>
      <point x="438" y="55"/>
      <point x="317" y="55" type="curve" smooth="yes"/>
    </contour>
    <contour>
      <point x="217" y="388"/>
      <point x="157" y="417"/>
      <point x="157" y="502" type="curve" smooth="yes"/>
      <point x="157" y="591"/>
      <point x="211" y="625"/>
      <point x="317" y="625" type="curve" smooth="yes"/>
      <point x="423" y="625"/>
      <point x="477" y="591"/>
      <point x="477" y="502" type="curve" smooth="yes"/>
      <point x="477" y="417"/>
      <point x="417" y="388"/>
      <point x="317" y="388" type="curve" smooth="yes"/>
    </contour>
  </outline>
</glyph>
<glyph name="nine" format="1">
  <advance width="633"/>
  <unicode hex="0039"/>
  <note>
	nine
  </note>
  <outline>
    <contour>
      <point x="446" y="-15"/>
      <point x="586" y="73"/>
      <point x="586" y="387" type="curve" smooth="yes"/>
      <point x="586" y="605"/>
      <point x="476" y="695"/>
      <point x="323" y="695" type="curve" smooth="yes"/>
      <point x="151" y="695"/>
      <point x="47" y="611"/>
      <point x="47" y="433" type="curve" smooth="yes"/>
      <point x="47" y="293"/>
      <point x="148" y="203"/>
      <point x="301" y="203" type="curve" smooth="yes"/>
      <point x="388" y="203"/>
      <point x="452" y="229"/>
      <point x="499" y="281" type="curve"/>
      <point x="486" y="133"/>
      <point x="418" y="55"/>
      <point x="293" y="55" type="curve" smooth="yes"/>
      <point x="234" y="55"/>
      <point x="186" y="68"/>
      <point x="144" y="94" type="curve" smooth="yes"/>
      <point x="134" y="100"/>
      <point x="130" y="100"/>
      <point x="125" y="91" type="curve" smooth="yes"/>
      <point x="104" y="55" type="line" smooth="yes"/>
      <point x="98" y="45"/>
      <point x="99" y="39"/>
      <point x="108" y="33" type="curve" smooth="yes"/>
      <point x="149" y="5"/>
      <point x="216" y="-15"/>
      <point x="296" y="-15" type="curve" smooth="yes"/>
    </contour>
    <contour>
      <point x="203" y="269"/>
      <point x="136" y="323"/>
      <point x="136" y="434" type="curve" smooth="yes"/>
      <point x="136" y="569"/>
      <point x="203" y="625"/>
      <point x="323" y="625" type="curve" smooth="yes"/>
      <point x="427" y="625"/>
      <point x="494" y="562"/>
      <point x="494" y="429" type="curve" smooth="yes"/>
      <point x="494" y="321"/>
      <point x="400" y="269"/>
      <point x="320" y="269" type="curve" smooth="yes"/>
    </contour>
  </outline>
</glyph>
<glyph name="colon" format="1">
  <advance width="192"/>
  <unicode hex="003A"/>
  <note>
	colon
  </note>
  <outline>
    <contour>
      <point x="105" y="389" type="line" smooth="yes"/>
      <point x="128" y="389"/>
      <point x="145" y="408"/>
      <point x="145" y="431" type="curve" smooth="yes"/>
      <point x="145" y="451" type="line" smooth="yes"/>
      <point x="145" y="474"/>
      <point x="129" y="493"/>
      <point x="105" y="493" type="curve" smooth="yes"/>
      <point x="87" y="493" type="line" smooth="yes"/>
      <point x="63" y="493"/>
      <point x="47" y="474"/>
      <point x="47" y="451" type="curve" smooth="yes"/>
      <point x="47" y="431" type="line" smooth="yes"/>
      <point x="47" y="408"/>
      <point x="63" y="389"/>
      <point x="87" y="389" type="curve" smooth="yes"/>
    </contour>
    <contour>
      <point x="105" y="0" type="line" smooth="yes"/>
      <point x="128" y="0"/>
      <point x="145" y="19"/>
      <point x="145" y="42" type="curve" smooth="yes"/>
      <point x="145" y="62" type="line" smooth="yes"/>
      <point x="145" y="86"/>
      <point x="129" y="104"/>
      <point x="105" y="104" type="curve" smooth="yes"/>
      <point x="87" y="104" type="line" smooth="yes"/>
      <point x="63" y="104"/>
      <point x="47" y="86"/>
      <point x="47" y="62" type="curve" smooth="yes"/>
      <point x="47" y="42" type="line" smooth="yes"/>
      <point x="47" y="19"/>
      <point x="63" y="0"/>
      <point x="87" y="0" type="curve" smooth="yes"/>
    </contour>
  </outline>
</glyph>
<glyph name="semicolon" format="1">
  <advance width="240"/>
  <unicode hex="003B"/>
  <note>
	semicolon
  </note>
  <outline>
    <contour>
      <point x="89" y="-119" type="line" smooth="yes"/>
      <point x="103" y="-119"/>
      <point x="110" y="-115"/>
      <point x="114" y="-105" type="curve" smooth="yes"/>
      <point x="186" y="64" type="line" smooth="yes"/>
      <point x="193" y="81"/>
      <point x="189" y="89"/>
      <point x="171" y="89" type="curve" smooth="yes"/>
      <point x="133" y="89" type="line" smooth="yes"/>
      <point x="115" y="89"/>
      <point x="109" y="85"/>
      <point x="104" y="69" type="curve" smooth="yes"/>
      <point x="49" y="-99" type="line" smooth="yes"/>
      <point x="45" y="-111"/>
      <point x="47" y="-119"/>
      <point x="61" y="-119" type="curve" smooth="yes"/>
    </contour>
    <contour>
      <point x="153" y="389" type="line" smooth="yes"/>
      <point x="176" y="389"/>
      <point x="193" y="408"/>
      <point x="193" y="431" type="curve" smooth="yes"/>
      <point x="193" y="451" type="line" smooth="yes"/>
      <point x="193" y="474"/>
      <point x="177" y="493"/>
      <point x="153" y="493" type="curve" smooth="yes"/>
      <point x="135" y="493" type="line" smooth="yes"/>
      <point x="111" y="493"/>
      <point x="95" y="474"/>
      <point x="95" y="451" type="curve" smooth="yes"/>
      <point x="95" y="431" type="line" smooth="yes"/>
      <point x="95" y="408"/>
      <point x="111" y="389"/>
      <point x="135" y="389" type="curve" smooth="yes"/>
    </contour>
  </outline>
</glyph>
<glyph name="equal" format="1">
  <advance width="460"/>
  <unicode hex="003D"/>
  <note>
	equal
  </note>
  <outline>
    <contour>
      <point x="383" y="338" type="line" smooth="yes"/>
      <point x="404" y="338"/>
      <point x="413" y="345"/>
      <point x="413" y="365" type="curve" smooth="yes"/>
      <point x="413" y="381" type="line" smooth="yes"/>
      <point x="413" y="401"/>
      <point x="404" y="410"/>
      <point x="383" y="410" type="curve" smooth="yes"/>
      <point x="76" y="410" type="line" smooth="yes"/>
      <point x="55" y="410"/>
      <point x="47" y="401"/>
      <point x="47" y="381" type="curve" smooth="yes"/>
      <point x="47" y="365" type="line" smooth="yes"/>
      <point x="47" y="345"/>
      <point x="55" y="338"/>
      <point x="76" y="338" type="curve" smooth="yes"/>
    </contour>
    <contour>
      <point x="383" y="173" type="line" smooth="yes"/>
      <point x="404" y="173"/>
      <point x="413" y="180"/>
      <point x="413" y="200" type="curve" smooth="yes"/>
      <point x="413" y="216" type="line" smooth="yes"/>
      <point x="413" y="236"/>
      <point x="404" y="245"/>
      <point x="383" y="245" type="curve" smooth="yes"/>
      <point x="76" y="245" type="line" smooth="yes"/>
      <point x="55" y="245"/>
      <point x="47" y="236"/>
      <point x="47" y="216" type="curve" smooth="yes"/>
      <point x="47" y="200" type="line" smooth="yes"/>
      <point x="47" y="180"/>
      <point x="55" y="173"/>
      <point x="76" y="173" type="curve" smooth="yes"/>
    </contour>
  </outline>
</glyph>
<glyph name="question" format="1">
  <advance width="542"/>
  <unicode hex="003F"/>
  <note>
	question
  </note>
  <outline>
    <contour>
      <point x="241" y="147" type="line" smooth="yes"/>
      <point x="263" y="147"/>
      <point x="271" y="157"/>
      <point x="271" y="176" type="curve" smooth="yes"/>
      <point x="271" y="193" type="line" smooth="yes"/>
      <point x="271" y="265"/>
      <point x="291" y="294"/>
      <point x="371" y="337" type="curve" smooth="yes"/>
      <point x="456" y="383"/>
      <point x="495" y="427"/>
      <point x="495" y="512" type="curve" smooth="yes"/>
      <point x="495" y="629"/>
      <point x="401" y="695"/>
      <point x="268" y="695" type="curve" smooth="yes"/>
      <point x="177" y="695"/>
      <point x="101" y="674"/>
      <point x="56" y="643" type="curve"/>
      <point x="47" y="636"/>
      <point x="45" y="631"/>
      <point x="51" y="621" type="curve" smooth="yes"/>
      <point x="73" y="584" type="line" smooth="yes"/>
      <point x="78" y="575"/>
      <point x="82" y="574"/>
      <point x="92" y="581" type="curve"/>
      <point x="129" y="604"/>
      <point x="180" y="625"/>
      <point x="261" y="625" type="curve" smooth="yes"/>
      <point x="348" y="625"/>
      <point x="405" y="586"/>
      <point x="405" y="512" type="curve" smooth="yes"/>
      <point x="405" y="451"/>
      <point x="385" y="430"/>
      <point x="297" y="383" type="curve" smooth="yes"/>
      <point x="217" y="339"/>
      <point x="180" y="286"/>
      <point x="180" y="196" type="curve" smooth="yes"/>
      <point x="180" y="176" type="line" smooth="yes"/>
      <point x="180" y="157"/>
      <point x="189" y="147"/>
      <point x="210" y="147" type="curve" smooth="yes"/>
    </contour>
    <contour>
      <point x="240" y="0" type="line" smooth="yes"/>
      <point x="265" y="0"/>
      <point x="281" y="16"/>
      <point x="281" y="37" type="curve" smooth="yes"/>
      <point x="281" y="55" type="line" smooth="yes"/>
      <point x="281" y="77"/>
      <point x="266" y="93"/>
      <point x="240" y="93" type="curve" smooth="yes"/>
      <point x="211" y="93" type="line" smooth="yes"/>
      <point x="186" y="93"/>
      <point x="170" y="77"/>
      <point x="170" y="55" type="curve" smooth="yes"/>
      <point x="170" y="37" type="line" smooth="yes"/>
      <point x="170" y="16"/>
      <point x="186" y="0"/>
      <point x="211" y="0" type="curve" smooth="yes"/>
    </contour>
  </outline>
</glyph>
<glyph name="at" format="1">
  <advance width="923"/>
  <unicode hex="0040"/>
  <note>
	at
  </note>
  <outline>
    <contour>
      <point x="530" y="-89"/>
      <point x="606" y="-71"/>
      <point x="654" y="-38" type="curve"/>
      <point x="662" y="-33"/>
      <point x="663" y="-29"/>
      <point x="659" y="-22" type="curve"/>
      <point x="640" y="19" type="line"/>
      <point x="636" y="26"/>
      <point x="633" y="27"/>
      <point x="626" y="22" type="curve" smooth="yes"/>
      <point x="588" y="-6"/>
      <point x="520" y="-23"/>
      <point x="453" y="-23" type="curve" smooth="yes"/>
      <point x="271" y="-23"/>
      <point x="124" y="82"/>
      <point x="124" y="301" type="curve" smooth="yes"/>
      <point x="124" y="547"/>
      <point x="271" y="649"/>
      <point x="483" y="649" type="curve" smooth="yes"/>
      <point x="681" y="649"/>
      <point x="799" y="543"/>
      <point x="799" y="350" type="curve" smooth="yes"/>
      <point x="799" y="235"/>
      <point x="763" y="167"/>
      <point x="701" y="167" type="curve" smooth="yes"/>
      <point x="665" y="167"/>
      <point x="651" y="187"/>
      <point x="651" y="230" type="curve" smooth="yes"/>
      <point x="651" y="480" type="line"/>
      <point x="613" y="511"/>
      <point x="547" y="535"/>
      <point x="480" y="535" type="curve" smooth="yes"/>
      <point x="327" y="535"/>
      <point x="235" y="443"/>
      <point x="235" y="296" type="curve" smooth="yes"/>
      <point x="235" y="173"/>
      <point x="314" y="106"/>
      <point x="428" y="106" type="curve" smooth="yes"/>
      <point x="501" y="106"/>
      <point x="561" y="132"/>
      <point x="599" y="182" type="curve"/>
      <point x="611" y="136"/>
      <point x="644" y="105"/>
      <point x="699" y="105" type="curve" smooth="yes"/>
      <point x="803" y="105"/>
      <point x="876" y="191"/>
      <point x="876" y="349" type="curve" smooth="yes"/>
      <point x="876" y="573"/>
      <point x="742" y="714"/>
      <point x="484" y="714" type="curve" smooth="yes"/>
      <point x="219" y="714"/>
      <point x="47" y="580"/>
      <point x="47" y="301" type="curve" smooth="yes"/>
      <point x="47" y="54"/>
      <point x="215" y="-89"/>
      <point x="454" y="-89" type="curve" smooth="yes"/>
    </contour>
    <contour>
      <point x="351" y="173"/>
      <point x="310" y="214"/>
      <point x="310" y="301" type="curve" smooth="yes"/>
      <point x="310" y="405"/>
      <point x="374" y="465"/>
      <point x="476" y="465" type="curve" smooth="yes"/>
      <point x="517" y="465"/>
      <point x="553" y="455"/>
      <point x="577" y="442" type="curve"/>
      <point x="577" y="282" type="line" smooth="yes"/>
      <point x="577" y="213"/>
      <point x="509" y="173"/>
      <point x="444" y="173" type="curve" smooth="yes"/>
    </contour>
  </outline>
</glyph>
<glyph name="K" format="1">
  <advance width="622"/>
  <unicode hex="004B"/>
  <note>
	K
  </note>
  <outline>
    <contour>
      <point x="569" y="0" type="line" smooth="yes"/>
      <point x="581" y="0"/>
      <point x="583" y="14"/>
      <point x="575" y="23" type="curve" smooth="yes"/>
      <point x="288" y="341" type="line"/>
      <point x="570" y="657" type="line" smooth="yes"/>
      <point x="578" y="666"/>
      <point x="576" y="680"/>
      <point x="564" y="680" type="curve" smooth="yes"/>
      <point x="502" y="680" type="line" smooth="yes"/>
      <point x="485" y="680"/>
      <point x="482" y="679"/>
      <point x="474" y="670" type="curve" smooth="yes"/>
      <point x="217" y="381" type="line" smooth="yes"/>
      <point x="206" y="369"/>
      <point x="200" y="360"/>
      <point x="200" y="341" type="curve" smooth="yes"/>
      <point x="200" y="322"/>
      <point x="207" y="313"/>
      <point x="217" y="301" type="curve"/>
      <point x="479" y="10" type="line" smooth="yes"/>
      <point x="486" y="2"/>
      <point x="491" y="0"/>
      <point x="503" y="0" type="curve" smooth="yes"/>
    </contour>
    <contour>
      <point x="128" y="0" type="line" smooth="yes"/>
      <point x="150" y="0"/>
      <point x="158" y="10"/>
      <point x="158" y="30" type="curve" smooth="yes"/>
      <point x="158" y="650" type="line" smooth="yes"/>
      <point x="158" y="670"/>
      <point x="150" y="680"/>
      <point x="128" y="680" type="curve" smooth="yes"/>
      <point x="97" y="680" type="line" smooth="yes"/>
      <point x="76" y="680"/>
      <point x="67" y="670"/>
      <point x="67" y="650" type="curve" smooth="yes"/>
      <point x="67" y="30" type="line" smooth="yes"/>
      <point x="67" y="10"/>
      <point x="76" y="0"/>
      <point x="97" y="0" type="curve" smooth="yes"/>
    </contour>
  </outline>
</glyph>
<glyph name="O" format="1">
  <advance width="765"/>
  <unicode hex="004F"/>
  <note>
	O
  </note>
  <outline>
    <contour>
      <point x="596" y="-15"/>
      <point x="718" y="116"/>
      <point x="718" y="340" type="curve" smooth="yes"/>
      <point x="718" y="564"/>
      <point x="596" y="695"/>
      <point x="383" y="695" type="curve" smooth="yes"/>
      <point x="169" y="695"/>
      <point x="47" y="564"/>
      <point x="47" y="340" type="curve" smooth="yes"/>
      <point x="47" y="116"/>
      <point x="169" y="-15"/>
      <point x="383" y="-15" type="curve" smooth="yes"/>
    </contour>
    <contour>
      <point x="227" y="55"/>
      <point x="136" y="153"/>
      <point x="136" y="340" type="curve" smooth="yes"/>
      <point x="136" y="527"/>
      <point x="227" y="625"/>
      <point x="383" y="625" type="curve" smooth="yes"/>
      <point x="538" y="625"/>
      <point x="629" y="527"/>
      <point x="629" y="340" type="curve" smooth="yes"/>
      <point x="629" y="153"/>
      <point x="538" y="55"/>
      <point x="383" y="55" type="curve" smooth="yes"/>
    </contour>
  </outline>
</glyph>
<glyph name="P" format="1">
  <advance width="613"/>
  <unicode hex="0050"/>
  <note>
	P
  </note>
  <outline>
    <contour>
      <point x="128" y="0" type="line" smooth="yes"/>
      <point x="150" y="0"/>
      <point x="158" y="10"/>
      <point x="158" y="30" type="curve" smooth="yes"/>
      <point x="158" y="239" type="line"/>
      <point x="358" y="239" type="line" smooth="yes"/>
      <point x="513" y="239"/>
      <point x="586" y="323"/>
      <point x="586" y="459" type="curve" smooth="yes"/>
      <point x="586" y="596"/>
      <point x="513" y="680"/>
      <point x="359" y="680" type="curve" smooth="yes"/>
      <point x="97" y="680" type="line" smooth="yes"/>
      <point x="76" y="680"/>
      <point x="67" y="670"/>
      <point x="67" y="650" type="curve" smooth="yes"/>
      <point x="67" y="30" type="line" smooth="yes"/>
      <point x="67" y="10"/>
      <point x="76" y="0"/>
      <point x="97" y="0" type="curve" smooth="yes"/>
    </contour>
    <contour>
      <point x="158" y="607" type="line"/>
      <point x="358" y="607" type="line" smooth="yes"/>
      <point x="452" y="607"/>
      <point x="496" y="559"/>
      <point x="496" y="459" type="curve" smooth="yes"/>
      <point x="496" y="360"/>
      <point x="452" y="312"/>
      <point x="358" y="312" type="curve" smooth="yes"/>
      <point x="158" y="312" type="line"/>
    </contour>
  </outline>
</glyph>
<glyph name="R" format="1">
  <advance width="633"/>
  <unicode hex="0052"/>
  <note>
	R
  </note>
  <outline>
    <contour>
      <point x="128" y="0" type="line" smooth="yes"/>
      <point x="150" y="0"/>
      <point x="158" y="10"/>
      <point x="158" y="30" type="curve" smooth="yes"/>
      <point x="158" y="272" type="line"/>
      <point x="361" y="272" type="line"/>
      <point x="472" y="18" type="line" smooth="yes"/>
      <point x="478" y="3"/>
      <point x="483" y="0"/>
      <point x="498" y="0" type="curve" smooth="yes"/>
      <point x="551" y="0" type="line" smooth="yes"/>
      <point x="565" y="0"/>
      <point x="569" y="9"/>
      <point x="564" y="21" type="curve" smooth="yes"/>
      <point x="447" y="283" type="line"/>
      <point x="536" y="314"/>
      <point x="586" y="382"/>
      <point x="586" y="475" type="curve" smooth="yes"/>
      <point x="586" y="613"/>
      <point x="501" y="680"/>
      <point x="365" y="680" type="curve" smooth="yes"/>
      <point x="97" y="680" type="line" smooth="yes"/>
      <point x="76" y="680"/>
      <point x="67" y="670"/>
      <point x="67" y="650" type="curve" smooth="yes"/>
      <point x="67" y="30" type="line" smooth="yes"/>
      <point x="67" y="10"/>
      <point x="76" y="0"/>
      <point x="97" y="0" type="curve" smooth="yes"/>
    </contour>
    <contour>
      <point x="158" y="607" type="line"/>
      <point x="358" y="607" type="line" smooth="yes"/>
      <point x="452" y="607"/>
      <point x="496" y="567"/>
      <point x="496" y="475" type="curve" smooth="yes"/>
      <point x="496" y="380"/>
      <point x="446" y="344"/>
      <point x="338" y="344" type="curve" smooth="yes"/>
      <point x="158" y="344" type="line"/>
    </contour>
  </outline>
</glyph>
<glyph name="V" format="1">
  <advance width="722"/>
  <unicode hex="0056"/>
  <note>
	V
  </note>
  <outline>
    <contour>
      <point x="379" y="0" type="line" smooth="yes"/>
      <point x="395" y="0"/>
      <point x="399" y="5"/>
      <point x="406" y="21" type="curve" smooth="yes"/>
      <point x="673" y="657" type="line" smooth="yes"/>
      <point x="678" y="670"/>
      <point x="673" y="680"/>
      <point x="660" y="680" type="curve" smooth="yes"/>
      <point x="607" y="680" type="line" smooth="yes"/>
      <point x="590" y="680"/>
      <point x="584" y="673"/>
      <point x="579" y="661" type="curve" smooth="yes"/>
      <point x="361" y="130" type="line"/>
      <point x="143" y="661" type="line" smooth="yes"/>
      <point x="138" y="673"/>
      <point x="133" y="680"/>
      <point x="115" y="680" type="curve" smooth="yes"/>
      <point x="63" y="680" type="line" smooth="yes"/>
      <point x="50" y="680"/>
      <point x="45" y="670"/>
      <point x="50" y="657" type="curve" smooth="yes"/>
      <point x="317" y="21" type="line" smooth="yes"/>
      <point x="324" y="5"/>
      <point x="328" y="0"/>
      <point x="343" y="0" type="curve" smooth="yes"/>
    </contour>
  </outline>
</glyph>
<glyph name="W" format="1">
  <advance width="884"/>
  <unicode hex="0057"/>
  <note>
	W
  </note>
  <outline>
    <contour>
      <point x="273" y="0" type="line" smooth="yes"/>
      <point x="288" y="0"/>
      <point x="295" y="5"/>
      <point x="300" y="21" type="curve" smooth="yes"/>
      <point x="442" y="490" type="line"/>
      <point x="584" y="21" type="line" smooth="yes"/>
      <point x="589" y="5"/>
      <point x="595" y="0"/>
      <point x="611" y="0" type="curve" smooth="yes"/>
      <point x="647" y="0" type="line" smooth="yes"/>
      <point x="662" y="0"/>
      <point x="669" y="5"/>
      <point x="673" y="21" type="curve" smooth="yes"/>
      <point x="835" y="659" type="line" smooth="yes"/>
      <point x="838" y="672"/>
      <point x="834" y="680"/>
      <point x="820" y="680" type="curve" smooth="yes"/>
      <point x="768" y="680" type="line" smooth="yes"/>
      <point x="750" y="680"/>
      <point x="745" y="674"/>
      <point x="742" y="661" type="curve" smooth="yes"/>
      <point x="623" y="154" type="line"/>
      <point x="482" y="611" type="line" smooth="yes"/>
      <point x="478" y="624"/>
      <point x="473" y="628"/>
      <point x="459" y="628" type="curve" smooth="yes"/>
      <point x="424" y="628" type="line" smooth="yes"/>
      <point x="410" y="628"/>
      <point x="405" y="624"/>
      <point x="401" y="611" type="curve" smooth="yes"/>
      <point x="261" y="154" type="line"/>
      <point x="141" y="661" type="line" smooth="yes"/>
      <point x="138" y="674"/>
      <point x="134" y="680"/>
      <point x="116" y="680" type="curve" smooth="yes"/>
      <point x="64" y="680" type="line" smooth="yes"/>
      <point x="50" y="680"/>
      <point x="46" y="672"/>
      <point x="49" y="659" type="curve" smooth="yes"/>
      <point x="210" y="21" type="line" smooth="yes"/>
      <point x="214" y="5"/>
      <point x="221" y="0"/>
      <point x="237" y="0" type="curve" smooth="yes"/>
    </contour>
  </outline>
</glyph>
<glyph name="Y" format="1">
  <advance width="694"/>
  <unicode hex="0059"/>
  <note>
	Y
  </note>
  <outline>
    <contour>
      <point x="362" y="0" type="line" smooth="yes"/>
      <point x="384" y="0"/>
      <point x="393" y="10"/>
      <point x="393" y="30" type="curve" smooth="yes"/>
      <point x="393" y="225" type="line"/>
      <point x="644" y="657" type="line" smooth="yes"/>
      <point x="651" y="669"/>
      <point x="647" y="680"/>
      <point x="631" y="680" type="curve" smooth="yes"/>
      <point x="578" y="680" type="line" smooth="yes"/>
      <point x="561" y="680"/>
      <point x="559" y="677"/>
      <point x="554" y="668" type="curve" smooth="yes"/>
      <point x="347" y="310" type="line"/>
      <point x="140" y="668" type="line" smooth="yes"/>
      <point x="135" y="677"/>
      <point x="133" y="680"/>
      <point x="116" y="680" type="curve" smooth="yes"/>
      <point x="63" y="680" type="line" smooth="yes"/>
      <point x="47" y="680"/>
      <point x="43" y="669"/>
      <point x="50" y="657" type="curve" smooth="yes"/>
      <point x="301" y="226" type="line"/>
      <point x="301" y="30" type="line" smooth="yes"/>
      <point x="301" y="10"/>
      <point x="310" y="0"/>
      <point x="332" y="0" type="curve" smooth="yes"/>
    </contour>
  </outline>
</glyph>
<glyph name="bracketleft" format="1">
  <advance width="285"/>
  <unicode hex="005B"/>
  <note>
	bracketleft
  </note>
  <outline>
    <contour>
      <point x="219" y="-70" type="line" smooth="yes"/>
      <point x="240" y="-70"/>
      <point x="248" y="-63"/>
      <point x="248" y="-43" type="curve" smooth="yes"/>
      <point x="248" y="-26" type="line" smooth="yes"/>
      <point x="248" y="-5"/>
      <point x="240" y="3"/>
      <point x="219" y="3" type="curve" smooth="yes"/>
      <point x="138" y="3" type="line"/>
      <point x="138" y="677" type="line"/>
      <point x="219" y="677" type="line" smooth="yes"/>
      <point x="240" y="677"/>
      <point x="248" y="685"/>
      <point x="248" y="706" type="curve" smooth="yes"/>
      <point x="248" y="723" type="line" smooth="yes"/>
      <point x="248" y="743"/>
      <point x="240" y="750"/>
      <point x="219" y="750" type="curve" smooth="yes"/>
      <point x="75" y="750" type="line" smooth="yes"/>
      <point x="56" y="750"/>
      <point x="47" y="740"/>
      <point x="47" y="720" type="curve" smooth="yes"/>
      <point x="47" y="-40" type="line" smooth="yes"/>
      <point x="47" y="-60"/>
      <point x="56" y="-70"/>
      <point x="75" y="-70" type="curve" smooth="yes"/>
    </contour>
  </outline>
</glyph>
<glyph name="backslash" format="1">
  <advance width="463"/>
  <unicode hex="005C"/>
  <note>
	backslash
  </note>
  <outline>
    <contour>
      <point x="405" y="0" type="line" smooth="yes"/>
      <point x="417" y="0"/>
      <point x="418" y="8"/>
      <point x="414" y="19" type="curve"/>
      <point x="142" y="682" type="line" smooth="yes"/>
      <point x="138" y="691"/>
      <point x="135" y="695"/>
      <point x="122" y="695" type="curve" smooth="yes"/>
      <point x="59" y="695" type="line" smooth="yes"/>
      <point x="48" y="695"/>
      <point x="45" y="688"/>
      <point x="50" y="676" type="curve" smooth="yes"/>
      <point x="322" y="13" type="line" smooth="yes"/>
      <point x="326" y="4"/>
      <point x="330" y="0"/>
      <point x="341" y="0" type="curve" smooth="yes"/>
    </contour>
  </outline>
</glyph>
<glyph name="asciicircum" format="1">
  <advance width="602"/>
  <unicode hex="005E"/>
  <note>
	asciicircum
  </note>
  <outline>
    <contour>
      <point x="112" y="339" type="line" smooth="yes"/>
      <point x="128" y="339"/>
      <point x="132" y="341"/>
      <point x="139" y="353" type="curve" smooth="yes"/>
      <point x="301" y="626" type="line"/>
      <point x="463" y="353" type="line" smooth="yes"/>
      <point x="470" y="341"/>
      <point x="474" y="339"/>
      <point x="490" y="339" type="curve" smooth="yes"/>
      <point x="541" y="339" type="line" smooth="yes"/>
      <point x="554" y="339"/>
      <point x="559" y="350"/>
      <point x="551" y="362" type="curve"/>
      <point x="345" y="696" type="line" smooth="yes"/>
      <point x="336" y="711"/>
      <point x="331" y="719"/>
      <point x="313" y="719" type="curve" smooth="yes"/>
      <point x="289" y="719" type="line" smooth="yes"/>
      <point x="271" y="719"/>
      <point x="266" y="711"/>
      <point x="257" y="696" type="curve" smooth="yes"/>
      <point x="51" y="362" type="line"/>
      <point x="43" y="350"/>
      <point x="48" y="339"/>
      <point x="61" y="339" type="curve" smooth="yes"/>
    </contour>
  </outline>
</glyph>
<glyph name="b" format="1">
  <advance width="615"/>
  <unicode hex="0062"/>
  <note>
	b
  </note>
  <outline>
    <contour>
      <point x="479" y="-15"/>
      <point x="568" y="89"/>
      <point x="568" y="260" type="curve" smooth="yes"/>
      <point x="568" y="409"/>
      <point x="483" y="495"/>
      <point x="337" y="495" type="curve" smooth="yes"/>
      <point x="264" y="495"/>
      <point x="199" y="477"/>
      <point x="157" y="439" type="curve"/>
      <point x="157" y="650" type="line" smooth="yes"/>
      <point x="157" y="670"/>
      <point x="149" y="680"/>
      <point x="127" y="680" type="curve" smooth="yes"/>
      <point x="97" y="680" type="line" smooth="yes"/>
      <point x="76" y="680"/>
      <point x="67" y="670"/>
      <point x="67" y="650" type="curve" smooth="yes"/>
      <point x="67" y="48" type="line"/>
      <point x="113" y="13"/>
      <point x="202" y="-15"/>
      <point x="291" y="-15" type="curve" smooth="yes"/>
    </contour>
    <contour>
      <point x="238" y="54"/>
      <point x="185" y="67"/>
      <point x="157" y="85" type="curve"/>
      <point x="157" y="310" type="line" smooth="yes"/>
      <point x="157" y="392"/>
      <point x="242" y="426"/>
      <point x="312" y="426" type="curve" smooth="yes"/>
      <point x="433" y="426"/>
      <point x="478" y="370"/>
      <point x="478" y="255" type="curve" smooth="yes"/>
      <point x="478" y="121"/>
      <point x="418" y="54"/>
      <point x="288" y="54" type="curve" smooth="yes"/>
    </contour>
  </outline>
</glyph>
<glyph name="f" format="1">
  <advance width="421"/>
  <unicode hex="0066"/>
  <note>
	f
  </note>
  <outline>
    <contour>
      <point x="170" y="0" type="line" smooth="yes"/>
      <point x="192" y="0"/>
      <point x="200" y="10"/>
      <point x="200" y="30" type="curve" smooth="yes"/>
      <point x="200" y="409" type="line"/>
      <point x="343" y="409" type="line" smooth="yes"/>
      <point x="364" y="409"/>
      <point x="372" y="417"/>
      <point x="372" y="438" type="curve" smooth="yes"/>
      <point x="372" y="453" type="line" smooth="yes"/>
      <point x="372" y="473"/>
      <point x="364" y="480"/>
      <point x="343" y="480" type="curve" smooth="yes"/>
      <point x="200" y="480" type="line"/>
      <point x="200" y="528" type="line" smooth="yes"/>
      <point x="200" y="593"/>
      <point x="222" y="628"/>
      <point x="288" y="628" type="curve" smooth="yes"/>
      <point x="324" y="628"/>
      <point x="346" y="618"/>
      <point x="373" y="602" type="curve" smooth="yes"/>
      <point x="382" y="597"/>
      <point x="386" y="598"/>
      <point x="391" y="606" type="curve" smooth="yes"/>
      <point x="410" y="638" type="line" smooth="yes"/>
      <point x="416" y="648"/>
      <point x="412" y="653"/>
      <point x="405" y="659" type="curve"/>
      <point x="371" y="685"/>
      <point x="325" y="695"/>
      <point x="274" y="695" type="curve" smooth="yes"/>
      <point x="160" y="695"/>
      <point x="109" y="628"/>
      <point x="109" y="528" type="curve" smooth="yes"/>
      <point x="109" y="480" type="line"/>
      <point x="56" y="480" type="line" smooth="yes"/>
      <point x="35" y="480"/>
      <point x="27" y="473"/>
      <point x="27" y="453" type="curve" smooth="yes"/>
      <point x="27" y="438" type="line" smooth="yes"/>
      <point x="27" y="417"/>
      <point x="35" y="409"/>
      <point x="56" y="409" type="curve" smooth="yes"/>
      <point x="109" y="409" type="line"/>
      <point x="109" y="30" type="line" smooth="yes"/>
      <point x="109" y="10"/>
      <point x="118" y="0"/>
      <point x="139" y="0" type="curve" smooth="yes"/>
    </contour>
  </outline>
</glyph>
<glyph name="g" format="1">
  <advance width="615"/>
  <unicode hex="0067"/>
  <note>
	g
  </note>
  <outline>
    <contour>
      <point x="478" y="-170"/>
      <point x="548" y="-77"/>
      <point x="548" y="78" type="curve" smooth="yes"/>
      <point x="548" y="438" type="line"/>
      <point x="502" y="469"/>
      <point x="416" y="495"/>
      <point x="332" y="495" type="curve" smooth="yes"/>
      <point x="149" y="495"/>
      <point x="47" y="397"/>
      <point x="47" y="228" type="curve" smooth="yes"/>
      <point x="47" y="78"/>
      <point x="138" y="-7"/>
      <point x="281" y="-7" type="curve" smooth="yes"/>
      <point x="366" y="-7"/>
      <point x="415" y="15"/>
      <point x="458" y="66" type="curve"/>
      <point x="458" y="-58"/>
      <point x="412" y="-102"/>
      <point x="312" y="-102" type="curve" smooth="yes"/>
      <point x="254" y="-102"/>
      <point x="195" y="-89"/>
      <point x="159" y="-70" type="curve"/>
      <point x="149" y="-64"/>
      <point x="146" y="-66"/>
      <point x="141" y="-75" type="curve" smooth="yes"/>
      <point x="119" y="-112" type="line" smooth="yes"/>
      <point x="114" y="-120"/>
      <point x="119" y="-127"/>
      <point x="130" y="-134" type="curve" smooth="yes"/>
      <point x="166" y="-156"/>
      <point x="242" y="-170"/>
      <point x="319" y="-170" type="curve" smooth="yes"/>
    </contour>
    <contour>
      <point x="192" y="64"/>
      <point x="136" y="120"/>
      <point x="136" y="235" type="curve" smooth="yes"/>
      <point x="136" y="366"/>
      <point x="209" y="426"/>
      <point x="329" y="426" type="curve" smooth="yes"/>
      <point x="380" y="426"/>
      <point x="429" y="416"/>
      <point x="458" y="402" type="curve"/>
      <point x="458" y="195" type="line" smooth="yes"/>
      <point x="458" y="112"/>
      <point x="390" y="64"/>
      <point x="305" y="64" type="curve" smooth="yes"/>
    </contour>
  </outline>
</glyph>
<glyph name="t" format="1">
  <advance width="445"/>
  <unicode hex="0074"/>
  <note>
	t
  </note>
  <outline>
    <contour>
      <point x="328" y="-15"/>
      <point x="373" y="-3"/>
      <point x="409" y="22" type="curve"/>
      <point x="417" y="27"/>
      <point x="420" y="34"/>
      <point x="414" y="44" type="curve" smooth="yes"/>
      <point x="393" y="78" type="line" smooth="yes"/>
      <point x="388" y="86"/>
      <point x="384" y="88"/>
      <point x="375" y="82" type="curve" smooth="yes"/>
      <point x="349" y="65"/>
      <point x="327" y="55"/>
      <point x="291" y="55" type="curve" smooth="yes"/>
      <point x="230" y="55"/>
      <point x="209" y="85"/>
      <point x="209" y="155" type="curve" smooth="yes"/>
      <point x="209" y="409" type="line"/>
      <point x="346" y="409" type="line" smooth="yes"/>
      <point x="367" y="409"/>
      <point x="372" y="413"/>
      <point x="372" y="433" type="curve" smooth="yes"/>
      <point x="372" y="454" type="line" smooth="yes"/>
      <point x="372" y="474"/>
      <point x="367" y="480"/>
      <point x="346" y="480" type="curve" smooth="yes"/>
      <point x="209" y="480" type="line"/>
      <point x="209" y="614" type="line" smooth="yes"/>
      <point x="209" y="631"/>
      <point x="203" y="640"/>
      <point x="185" y="640" type="curve" smooth="yes"/>
      <point x="165" y="640" type="line" smooth="yes"/>
      <point x="153" y="640"/>
      <point x="149" y="637"/>
      <point x="143" y="626" type="curve"/>
      <point x="130" y="600"/>
      <point x="118" y="578"/>
      <point x="118" y="550" type="curve" smooth="yes"/>
      <point x="118" y="480" type="line"/>
      <point x="53" y="480" type="line" smooth="yes"/>
      <point x="32" y="480"/>
      <point x="27" y="474"/>
      <point x="27" y="454" type="curve" smooth="yes"/>
      <point x="27" y="433" type="line" smooth="yes"/>
      <point x="27" y="413"/>
      <point x="32" y="409"/>
      <point x="53" y="409" type="curve" smooth="yes"/>
      <point x="118" y="409" type="line"/>
      <point x="118" y="152" type="line" smooth="yes"/>
      <point x="118" y="52"/>
      <point x="165" y="-15"/>
      <point x="276" y="-15" type="curve" smooth="yes"/>
    </contour>
  </outline>
</glyph>
<glyph name="v" format="1">
  <advance width="599"/>
  <unicode hex="0076"/>
  <note>
	v
  </note>
  <outline>
    <contour>
      <point x="315" y="0" type="line" smooth="yes"/>
      <point x="331" y="0"/>
      <point x="337" y="6"/>
      <point x="344" y="21" type="curve" smooth="yes"/>
      <point x="549" y="457" type="line" smooth="yes"/>
      <point x="555" y="469"/>
      <point x="549" y="480"/>
      <point x="536" y="480" type="curve" smooth="yes"/>
      <point x="485" y="480" type="line" smooth="yes"/>
      <point x="468" y="480"/>
      <point x="462" y="473"/>
      <point x="457" y="461" type="curve" smooth="yes"/>
      <point x="299" y="108" type="line"/>
      <point x="141" y="461" type="line" smooth="yes"/>
      <point x="136" y="473"/>
      <point x="131" y="480"/>
      <point x="114" y="480" type="curve" smooth="yes"/>
      <point x="63" y="480" type="line" smooth="yes"/>
      <point x="50" y="480"/>
      <point x="44" y="469"/>
      <point x="50" y="457" type="curve" smooth="yes"/>
      <point x="255" y="21" type="line" smooth="yes"/>
      <point x="262" y="6"/>
      <point x="268" y="0"/>
      <point x="284" y="0" type="curve" smooth="yes"/>
    </contour>
  </outline>
</glyph>
<glyph name="x" format="1">
  <advance width="590"/>
  <unicode hex="0078"/>
  <note>
	x
  </note>
  <outline>
    <contour>
      <point x="123" y="0" type="line" smooth="yes"/>
      <point x="135" y="0"/>
      <point x="137" y="2"/>
      <point x="144" y="10" type="curve" smooth="yes"/>
      <point x="294" y="184" type="line"/>
      <point x="446" y="10" type="line" smooth="yes"/>
      <point x="453" y="2"/>
      <point x="455" y="0"/>
      <point x="467" y="0" type="curve" smooth="yes"/>
      <point x="529" y="0" type="line" smooth="yes"/>
      <point x="542" y="0"/>
      <point x="547" y="12"/>
      <point x="538" y="23" type="curve" smooth="yes"/>
      <point x="346" y="245" type="line"/>
      <point x="529" y="457" type="line" smooth="yes"/>
      <point x="538" y="467"/>
      <point x="536" y="480"/>
      <point x="522" y="480" type="curve" smooth="yes"/>
      <point x="460" y="480" type="line" smooth="yes"/>
      <point x="446" y="480"/>
      <point x="443" y="477"/>
      <point x="437" y="470" type="curve" smooth="yes"/>
      <point x="294" y="306" type="line"/>
      <point x="153" y="470" type="line" smooth="yes"/>
      <point x="147" y="477"/>
      <point x="144" y="480"/>
      <point x="130" y="480" type="curve" smooth="yes"/>
      <point x="68" y="480" type="line" smooth="yes"/>
      <point x="54" y="480"/>
      <point x="52" y="467"/>
      <point x="61" y="457" type="curve" smooth="yes"/>
      <point x="243" y="245" type="line"/>
      <point x="52" y="23" type="line" smooth="yes"/>
      <point x="43" y="12"/>
      <point x="48" y="0"/>
      <point x="61" y="0" type="curve" smooth="yes"/>
    </contour>
  </outline>
</glyph>
<glyph name="bar" format="1">
  <advance width="185"/>
  <unicode hex="007C"/>
  <note>
	bar
  </note>
  <outline>
    <contour>
      <point x="108" y="-90" type="line" smooth="yes"/>
      <point x="130" y="-90"/>
      <point x="138" y="-80"/>
      <point x="138" y="-60" type="curve" smooth="yes"/>
      <point x="138" y="740" type="line" smooth="yes"/>
      <point x="138" y="760"/>
      <point x="130" y="770"/>
      <point x="108" y="770" type="curve" smooth="yes"/>
      <point x="77" y="770" type="line" smooth="yes"/>
      <point x="56" y="770"/>
      <point x="47" y="760"/>
      <point x="47" y="740" type="curve" smooth="yes"/>
      <point x="47" y="-60" type="line" smooth="yes"/>
      <point x="47" y="-80"/>
      <point x="56" y="-90"/>
      <point x="77" y="-90" type="curve" smooth="yes"/>
    </contour>
  </outline>
</glyph>
<glyph name="exclamdown" format="1">
  <advance width="204"/>
  <unicode hex="00A1"/>
  <note>
	exclamdown
  </note>
  <outline>
    <contour>
      <point x="119" y="-31" type="line" smooth="yes"/>
      <point x="141" y="-31"/>
      <point x="148" y="-21"/>
      <point x="148" y="-1" type="curve"/>
      <point x="142" y="425" type="line"/>
      <point x="142" y="445"/>
      <point x="124" y="454"/>
      <point x="102" y="454" type="curve" smooth="yes"/>
      <point x="80" y="454"/>
      <point x="62" y="445"/>
      <point x="62" y="425" type="curve" smooth="yes"/>
      <point x="57" y="-1" type="line" smooth="yes"/>
      <point x="57" y="-21"/>
      <point x="64" y="-31"/>
      <point x="86" y="-31" type="curve" smooth="yes"/>
    </contour>
    <contour>
      <point x="112" y="555" type="line" smooth="yes"/>
      <point x="141" y="555"/>
      <point x="157" y="569"/>
      <point x="157" y="592" type="curve" smooth="yes"/>
      <point x="157" y="612" type="line" smooth="yes"/>
      <point x="157" y="635"/>
      <point x="141" y="649"/>
      <point x="112" y="649" type="curve" smooth="yes"/>
      <point x="92" y="649" type="line" smooth="yes"/>
      <point x="64" y="649"/>
      <point x="47" y="635"/>
      <point x="47" y="612" type="curve" smooth="yes"/>
      <point x="47" y="592" type="line" smooth="yes"/>
      <point x="47" y="568"/>
      <point x="64" y="555"/>
      <point x="92" y="555" type="curve" smooth="yes"/>
    </contour>
  </outline>
</glyph>
<glyph name="cent" format="1">
  <advance width="567"/>
  <unicode hex="00A2"/>
  <note>
	cent
  </note>
  <outline>
    <contour>
      <point x="336" y="-103" type="line" smooth="yes"/>
      <point x="358" y="-103"/>
      <point x="366" y="-93"/>
      <point x="366" y="-73" type="curve" smooth="yes"/>
      <point x="366" y="-12" type="line"/>
      <point x="423" y="-7"/>
      <point x="471" y="8"/>
      <point x="511" y="35" type="curve" smooth="yes"/>
      <point x="521" y="42"/>
      <point x="522" y="47"/>
      <point x="516" y="56" type="curve"/>
      <point x="495" y="91" type="line" smooth="yes"/>
      <point x="489" y="101"/>
      <point x="486" y="102"/>
      <point x="476" y="95" type="curve" smooth="yes"/>
      <point x="440" y="70"/>
      <point x="394" y="54"/>
      <point x="331" y="54" type="curve" smooth="yes"/>
      <point x="210" y="54"/>
      <point x="136" y="112"/>
      <point x="136" y="238" type="curve" smooth="yes"/>
      <point x="136" y="354"/>
      <point x="208" y="427"/>
      <point x="322" y="427" type="curve" smooth="yes"/>
      <point x="391" y="427"/>
      <point x="432" y="410"/>
      <point x="469" y="386" type="curve"/>
      <point x="479" y="380"/>
      <point x="482" y="380"/>
      <point x="488" y="390" type="curve" smooth="yes"/>
      <point x="508" y="424" type="line" smooth="yes"/>
      <point x="514" y="434"/>
      <point x="513" y="439"/>
      <point x="504" y="446" type="curve"/>
      <point x="465" y="474"/>
      <point x="421" y="487"/>
      <point x="366" y="492" type="curve"/>
      <point x="366" y="553" type="line" smooth="yes"/>
      <point x="366" y="573"/>
      <point x="358" y="583"/>
      <point x="336" y="583" type="curve" smooth="yes"/>
      <point x="310" y="583" type="line" smooth="yes"/>
      <point x="288" y="583"/>
      <point x="279" y="573"/>
      <point x="279" y="553" type="curve" smooth="yes"/>
      <point x="279" y="492" type="line"/>
      <point x="138" y="480"/>
      <point x="47" y="379"/>
      <point x="47" y="238" type="curve" smooth="yes"/>
      <point x="47" y="87"/>
      <point x="134" y="1"/>
      <point x="279" y="-11" type="curve"/>
      <point x="279" y="-73" type="line" smooth="yes"/>
      <point x="279" y="-93"/>
      <point x="288" y="-103"/>
      <point x="310" y="-103" type="curve" smooth="yes"/>
    </contour>
  </outline>
</glyph>
<glyph name="currency" format="1">
  <advance width="530"/>
  <unicode hex="00A4"/>
  <note>
	currency
  </note>
  <outline>
    <contour>
      <point x="90" y="88"/>
      <point x="101" y="89"/>
      <point x="113" y="100" type="curve" smooth="yes"/>
      <point x="158" y="143" type="line"/>
      <point x="188" y="121"/>
      <point x="225" y="109"/>
      <point x="266" y="109" type="curve" smooth="yes"/>
      <point x="305" y="109"/>
      <point x="342" y="120"/>
      <point x="373" y="142" type="curve"/>
      <point x="416" y="100" type="line" smooth="yes"/>
      <point x="428" y="88"/>
      <point x="440" y="88"/>
      <point x="453" y="100" type="curve" smooth="yes"/>
      <point x="474" y="120" type="line" smooth="yes"/>
      <point x="487" y="133"/>
      <point x="484" y="142"/>
      <point x="472" y="154" type="curve" smooth="yes"/>
      <point x="432" y="194" type="line"/>
      <point x="455" y="225"/>
      <point x="469" y="264"/>
      <point x="469" y="306" type="curve" smooth="yes"/>
      <point x="469" y="347"/>
      <point x="456" y="386"/>
      <point x="432" y="417" type="curve"/>
      <point x="472" y="457" type="line" smooth="yes"/>
      <point x="484" y="469"/>
      <point x="487" y="478"/>
      <point x="474" y="491" type="curve" smooth="yes"/>
      <point x="453" y="511" type="line" smooth="yes"/>
      <point x="440" y="523"/>
      <point x="428" y="523"/>
      <point x="416" y="511" type="curve" smooth="yes"/>
      <point x="373" y="469" type="line"/>
      <point x="343" y="490"/>
      <point x="305" y="503"/>
      <point x="266" y="503" type="curve" smooth="yes"/>
      <point x="225" y="503"/>
      <point x="188" y="490"/>
      <point x="158" y="469" type="curve"/>
      <point x="113" y="511" type="line" smooth="yes"/>
      <point x="101" y="523"/>
      <point x="90" y="524"/>
      <point x="77" y="512" type="curve" smooth="yes"/>
      <point x="55" y="491" type="line" smooth="yes"/>
      <point x="43" y="479"/>
      <point x="45" y="468"/>
      <point x="57" y="457" type="curve" smooth="yes"/>
      <point x="98" y="417" type="line"/>
      <point x="76" y="385"/>
      <point x="62" y="347"/>
      <point x="62" y="306" type="curve" smooth="yes"/>
      <point x="62" y="265"/>
      <point x="76" y="226"/>
      <point x="98" y="195" type="curve"/>
      <point x="57" y="154" type="line" smooth="yes"/>
      <point x="45" y="142"/>
      <point x="42" y="132"/>
      <point x="55" y="120" type="curve" smooth="yes"/>
      <point x="77" y="100" type="line" smooth="yes"/>
    </contour>
    <contour>
      <point x="196" y="179"/>
      <point x="139" y="236"/>
      <point x="139" y="306" type="curve" smooth="yes"/>
      <point x="139" y="376"/>
      <point x="196" y="432"/>
      <point x="266" y="432" type="curve" smooth="yes"/>
      <point x="335" y="432"/>
      <point x="392" y="376"/>
      <point x="392" y="306" type="curve" smooth="yes"/>
      <point x="392" y="236"/>
      <point x="335" y="179"/>
      <point x="266" y="179" type="curve" smooth="yes"/>
    </contour>
  </outline>
</glyph>
<glyph name="brokenbar" format="1">
  <advance width="185"/>
  <unicode hex="00A6"/>
  <note>
	brokenbar
  </note>
  <outline>
    <contour>
      <point x="108" y="350" type="line" smooth="yes"/>
      <point x="130" y="350"/>
      <point x="138" y="360"/>
      <point x="138" y="380" type="curve" smooth="yes"/>
      <point x="138" y="700" type="line" smooth="yes"/>
      <point x="138" y="720"/>
      <point x="130" y="730"/>
      <point x="108" y="730" type="curve" smooth="yes"/>
      <point x="77" y="730" type="line" smooth="yes"/>
      <point x="56" y="730"/>
      <point x="47" y="720"/>
      <point x="47" y="700" type="curve" smooth="yes"/>
      <point x="47" y="380" type="line" smooth="yes"/>
      <point x="47" y="360"/>
      <point x="56" y="350"/>
      <point x="77" y="350" type="curve" smooth="yes"/>
    </contour>
    <contour>
      <point x="108" y="-219" type="line" smooth="yes"/>
      <point x="130" y="-219"/>
      <point x="138" y="-209"/>
      <point x="138" y="-189" type="curve" smooth="yes"/>
      <point x="138" y="131" type="line" smooth="yes"/>
      <point x="138" y="151"/>
      <point x="130" y="161"/>
      <point x="108" y="161" type="curve" smooth="yes"/>
      <point x="77" y="161" type="line" smooth="yes"/>
      <point x="56" y="161"/>
      <point x="47" y="151"/>
      <point x="47" y="131" type="curve" smooth="yes"/>
      <point x="47" y="-189" type="line" smooth="yes"/>
      <point x="47" y="-209"/>
      <point x="56" y="-219"/>
      <point x="77" y="-219" type="curve" smooth="yes"/>
    </contour>
  </outline>
</glyph>
<glyph name="guillemetleft" format="1">
  <advance width="623"/>
  <unicode hex="00AB"/>
  <note>
	guillemotleft
  </note>
  <outline>
    <contour>
      <point x="567" y="66" type="line"/>
      <point x="579" y="77"/>
      <point x="579" y="86"/>
      <point x="566" y="99" type="curve" smooth="yes"/>
      <point x="396" y="277" type="line"/>
      <point x="566" y="455" type="line" smooth="yes"/>
      <point x="579" y="468"/>
      <point x="579" y="476"/>
      <point x="567" y="488" type="curve" smooth="yes"/>
      <point x="541" y="514" type="line" smooth="yes"/>
      <point x="529" y="526"/>
      <point x="519" y="524"/>
      <point x="506" y="510" type="curve" smooth="yes"/>
      <point x="320" y="313" type="line" smooth="yes"/>
      <point x="309" y="301"/>
      <point x="301" y="294"/>
      <point x="301" y="283" type="curve" smooth="yes"/>
      <point x="301" y="271" type="line" smooth="yes"/>
      <point x="301" y="260"/>
      <point x="308" y="254"/>
      <point x="320" y="241" type="curve" smooth="yes"/>
      <point x="506" y="44" type="line" smooth="yes"/>
      <point x="519" y="30"/>
      <point x="529" y="29"/>
      <point x="541" y="40" type="curve"/>
    </contour>
    <contour>
      <point x="313" y="66" type="line"/>
      <point x="325" y="77"/>
      <point x="325" y="86"/>
      <point x="312" y="99" type="curve" smooth="yes"/>
      <point x="142" y="277" type="line"/>
      <point x="312" y="455" type="line" smooth="yes"/>
      <point x="325" y="468"/>
      <point x="325" y="477"/>
      <point x="313" y="488" type="curve"/>
      <point x="287" y="514" type="line" smooth="yes"/>
      <point x="275" y="526"/>
      <point x="265" y="524"/>
      <point x="252" y="510" type="curve" smooth="yes"/>
      <point x="66" y="313" type="line" smooth="yes"/>
      <point x="55" y="301"/>
      <point x="47" y="294"/>
      <point x="47" y="283" type="curve" smooth="yes"/>
      <point x="47" y="271" type="line" smooth="yes"/>
      <point x="47" y="260"/>
      <point x="54" y="254"/>
      <point x="66" y="241" type="curve" smooth="yes"/>
      <point x="252" y="44" type="line" smooth="yes"/>
      <point x="265" y="30"/>
      <point x="275" y="29"/>
      <point x="287" y="40" type="curve"/>
    </contour>
  </outline>
</glyph>
<glyph name="macron" format="1">
  <advance width="429"/>
  <unicode hex="00AF"/>
  <note>
	macron
  </note>
  <outline>
    <contour>
      <point x="352" y="601" type="line" smooth="yes"/>
      <point x="373" y="601"/>
      <point x="382" y="608"/>
      <point x="382" y="629" type="curve" smooth="yes"/>
      <point x="382" y="645" type="line" smooth="yes"/>
      <point x="382" y="666"/>
      <point x="373" y="674"/>
      <point x="352" y="674" type="curve" smooth="yes"/>
      <point x="76" y="674" type="line" smooth="yes"/>
      <point x="55" y="674"/>
      <point x="47" y="666"/>
      <point x="47" y="645" type="curve" smooth="yes"/>
      <point x="47" y="629" type="line" smooth="yes"/>
      <point x="47" y="608"/>
      <point x="55" y="601"/>
      <point x="76" y="601" type="curve" smooth="yes"/>
    </contour>
  </outline>
</glyph>
<glyph name="degree" format="1">
  <advance width="332"/>
  <unicode hex="00B0"/>
  <note>
	degree
  </note>
  <outline>
    <contour>
      <point x="238" y="468"/>
      <point x="285" y="509"/>
      <point x="285" y="586" type="curve" smooth="yes"/>
      <point x="285" y="663"/>
      <point x="238" y="704"/>
      <point x="166" y="704" type="curve" smooth="yes"/>
      <point x="95" y="704"/>
      <point x="47" y="663"/>
      <point x="47" y="586" type="curve" smooth="yes"/>
      <point x="47" y="509"/>
      <point x="95" y="468"/>
      <point x="166" y="468" type="curve" smooth="yes"/>
    </contour>
    <contour>
      <point x="129" y="520"/>
      <point x="102" y="542"/>
      <point x="102" y="586" type="curve" smooth="yes"/>
      <point x="102" y="630"/>
      <point x="129" y="652"/>
      <point x="166" y="652" type="curve" smooth="yes"/>
      <point x="204" y="652"/>
      <point x="230" y="630"/>
      <point x="230" y="586" type="curve" smooth="yes"/>
      <point x="230" y="542"/>
      <point x="204" y="520"/>
      <point x="166" y="520" type="curve" smooth="yes"/>
    </contour>
  </outline>
</glyph>
<glyph name="plusminus" format="1">
  <advance width="457"/>
  <unicode hex="00B1"/>
  <note>
	plusminus
  </note>
  <outline>
    <contour>
      <point x="247" y="183" type="line" smooth="yes"/>
      <point x="261" y="183"/>
      <point x="268" y="190"/>
      <point x="268" y="204" type="curve" smooth="yes"/>
      <point x="268" y="310" type="line"/>
      <point x="397" y="310" type="line" smooth="yes"/>
      <point x="411" y="310"/>
      <point x="418" y="317"/>
      <point x="418" y="331" type="curve" smooth="yes"/>
      <point x="418" y="362" type="line" smooth="yes"/>
      <point x="418" y="376"/>
      <point x="411" y="383"/>
      <point x="397" y="383" type="curve" smooth="yes"/>
      <point x="268" y="383" type="line"/>
      <point x="268" y="490" type="line" smooth="yes"/>
      <point x="268" y="504"/>
      <point x="261" y="511"/>
      <point x="247" y="511" type="curve" smooth="yes"/>
      <point x="209" y="511" type="line" smooth="yes"/>
      <point x="195" y="511"/>
      <point x="188" y="504"/>
      <point x="188" y="490" type="curve" smooth="yes"/>
      <point x="188" y="383" type="line"/>
      <point x="60" y="383" type="line" smooth="yes"/>
      <point x="46" y="383"/>
      <point x="39" y="376"/>
      <point x="39" y="362" type="curve" smooth="yes"/>
      <point x="39" y="331" type="line" smooth="yes"/>
      <point x="39" y="317"/>
      <point x="46" y="310"/>
      <point x="60" y="310" type="curve" smooth="yes"/>
      <point x="188" y="310" type="line"/>
      <point x="188" y="204" type="line" smooth="yes"/>
      <point x="188" y="190"/>
      <point x="195" y="183"/>
      <point x="209" y="183" type="curve" smooth="yes"/>
    </contour>
    <contour>
      <point x="397" y="0" type="line" smooth="yes"/>
      <point x="411" y="0"/>
      <point x="418" y="7"/>
      <point x="418" y="21" type="curve" smooth="yes"/>
      <point x="418" y="52" type="line" smooth="yes"/>
      <point x="418" y="66"/>
      <point x="411" y="73"/>
      <point x="397" y="73" type="curve" smooth="yes"/>
      <point x="60" y="73" type="line" smooth="yes"/>
      <point x="46" y="73"/>
      <point x="39" y="66"/>
      <point x="39" y="52" type="curve" smooth="yes"/>
      <point x="39" y="21" type="line" smooth="yes"/>
      <point x="39" y="7"/>
      <point x="46" y="0"/>
      <point x="60" y="0" type="curve" smooth="yes"/>
    </contour>
  </outline>
</glyph>
<glyph name="acute" format="1">
  <advance width="245"/>
  <unicode hex="00B4"/>
  <note>
	acute
  </note>
  <outline>
    <contour>
      <point x="97" y="569" type="line" smooth="yes"/>
      <point x="115" y="569"/>
      <point x="121" y="573"/>
      <point x="127" y="586" type="curve" smooth="yes"/>
      <point x="194" y="722" type="line" smooth="yes"/>
      <point x="202" y="738"/>
      <point x="195" y="746"/>
      <point x="178" y="746" type="curve" smooth="yes"/>
      <point x="128" y="746" type="line" smooth="yes"/>
      <point x="108" y="746"/>
      <point x="104" y="741"/>
      <point x="99" y="727" type="curve" smooth="yes"/>
      <point x="49" y="591" type="line" smooth="yes"/>
      <point x="44" y="578"/>
      <point x="48" y="569"/>
      <point x="63" y="569" type="curve" smooth="yes"/>
    </contour>
  </outline>
</glyph>
<glyph name="guillemetright" format="1">
  <advance width="623"/>
  <unicode hex="00BB"/>
  <note>
	guillemotright
  </note>
  <outline>
    <contour>
      <point x="348" y="29"/>
      <point x="358" y="30"/>
      <point x="371" y="44" type="curve" smooth="yes"/>
      <point x="557" y="241" type="line" smooth="yes"/>
      <point x="569" y="254"/>
      <point x="576" y="260"/>
      <point x="576" y="271" type="curve" smooth="yes"/>
      <point x="576" y="283" type="line" smooth="yes"/>
      <point x="576" y="294"/>
      <point x="568" y="301"/>
      <point x="557" y="313" type="curve" smooth="yes"/>
      <point x="371" y="510" type="line" smooth="yes"/>
      <point x="358" y="524"/>
      <point x="348" y="526"/>
      <point x="336" y="514" type="curve" smooth="yes"/>
      <point x="310" y="488" type="line"/>
      <point x="298" y="477"/>
      <point x="298" y="468"/>
      <point x="311" y="455" type="curve" smooth="yes"/>
      <point x="481" y="277" type="line"/>
      <point x="311" y="99" type="line" smooth="yes"/>
      <point x="298" y="86"/>
      <point x="298" y="77"/>
      <point x="310" y="66" type="curve"/>
      <point x="336" y="40" type="line"/>
    </contour>
    <contour>
      <point x="94" y="29"/>
      <point x="104" y="30"/>
      <point x="117" y="44" type="curve" smooth="yes"/>
      <point x="303" y="241" type="line" smooth="yes"/>
      <point x="315" y="254"/>
      <point x="322" y="260"/>
      <point x="322" y="271" type="curve" smooth="yes"/>
      <point x="322" y="283" type="line" smooth="yes"/>
      <point x="322" y="294"/>
      <point x="314" y="301"/>
      <point x="303" y="313" type="curve" smooth="yes"/>
      <point x="117" y="510" type="line" smooth="yes"/>
      <point x="104" y="524"/>
      <point x="94" y="526"/>
      <point x="82" y="514" type="curve" smooth="yes"/>
      <point x="56" y="488" type="line"/>
      <point x="44" y="477"/>
      <point x="44" y="468"/>
      <point x="57" y="455" type="curve" smooth="yes"/>
      <point x="227" y="277" type="line"/>
      <point x="57" y="99" type="line" smooth="yes"/>
      <point x="44" y="86"/>
      <point x="44" y="77"/>
      <point x="56" y="66" type="curve"/>
      <point x="82" y="40" type="line"/>
    </contour>
  </outline>
</glyph>
<glyph name="onehalf" format="1">
  <advance width="876"/>
  <unicode hex="00BD"/>
  <note>
	onehalf
  </note>
  <outline>
    <contour>
      <point x="231" y="0" type="line" smooth="yes"/>
      <point x="245" y="0"/>
      <point x="254" y="2"/>
      <point x="260" y="12" type="curve"/>
      <point x="693" y="661" type="line" smooth="yes"/>
      <point x="699" y="670"/>
      <point x="697" y="680"/>
      <point x="684" y="680" type="curve" smooth="yes"/>
      <point x="626" y="680" type="line" smooth="yes"/>
      <point x="615" y="680"/>
      <point x="610" y="675"/>
      <point x="605" y="667" type="curve" smooth="yes"/>
      <point x="173" y="19" type="line" smooth="yes"/>
      <point x="167" y="10"/>
      <point x="169" y="0"/>
      <point x="182" y="0" type="curve" smooth="yes"/>
    </contour>
    <contour>
      <point x="325" y="286" type="line" smooth="yes"/>
      <point x="342" y="286"/>
      <point x="349" y="291"/>
      <point x="349" y="309" type="curve" smooth="yes"/>
      <point x="349" y="323" type="line" smooth="yes"/>
      <point x="349" y="340"/>
      <point x="342" y="347"/>
      <point x="325" y="347" type="curve" smooth="yes"/>
      <point x="246" y="347" type="line"/>
      <point x="246" y="655" type="line" smooth="yes"/>
      <point x="246" y="671"/>
      <point x="239" y="680"/>
      <point x="221" y="680" type="curve" smooth="yes"/>
      <point x="201" y="680" type="line" smooth="yes"/>
      <point x="191" y="680"/>
      <point x="186" y="678"/>
      <point x="180" y="674" type="curve"/>
      <point x="59" y="601" type="line" smooth="yes"/>
      <point x="48" y="594"/>
      <point x="44" y="587"/>
      <point x="51" y="575" type="curve"/>
      <point x="63" y="556" type="line" smooth="yes"/>
      <point x="71" y="543"/>
      <point x="80" y="543"/>
      <point x="91" y="550" type="curve" smooth="yes"/>
      <point x="171" y="598" type="line"/>
      <point x="171" y="347" type="line"/>
      <point x="90" y="347" type="line" smooth="yes"/>
      <point x="73" y="347"/>
      <point x="65" y="340"/>
      <point x="65" y="323" type="curve" smooth="yes"/>
      <point x="65" y="309" type="line" smooth="yes"/>
      <point x="65" y="291"/>
      <point x="73" y="286"/>
      <point x="90" y="286" type="curve" smooth="yes"/>
    </contour>
    <contour>
      <point x="783" y="0" type="line" smooth="yes"/>
      <point x="794" y="0"/>
      <point x="799" y="4"/>
      <point x="799" y="16" type="curve" smooth="yes"/>
      <point x="799" y="45" type="line" smooth="yes"/>
      <point x="799" y="59"/>
      <point x="794" y="63"/>
      <point x="783" y="63" type="curve" smooth="yes"/>
      <point x="586" y="63" type="line"/>
      <point x="589" y="96"/>
      <point x="624" y="118"/>
      <point x="686" y="153" type="curve" smooth="yes"/>
      <point x="765" y="198"/>
      <point x="796" y="232"/>
      <point x="796" y="295" type="curve" smooth="yes"/>
      <point x="796" y="362"/>
      <point x="742" y="409"/>
      <point x="652" y="409" type="curve" smooth="yes"/>
      <point x="601" y="409"/>
      <point x="546" y="394"/>
      <point x="520" y="376" type="curve"/>
      <point x="515" y="372"/>
      <point x="514" y="370"/>
      <point x="517" y="363" type="curve"/>
      <point x="534" y="327" type="line"/>
      <point x="536" y="322"/>
      <point x="540" y="323"/>
      <point x="546" y="326" type="curve"/>
      <point x="573" y="341"/>
      <point x="606" y="350"/>
      <point x="642" y="350" type="curve" smooth="yes"/>
      <point x="695" y="350"/>
      <point x="723" y="326"/>
      <point x="723" y="291" type="curve" smooth="yes"/>
      <point x="723" y="249"/>
      <point x="711" y="230"/>
      <point x="630" y="186" type="curve" smooth="yes"/>
      <point x="553" y="144"/>
      <point x="506" y="107"/>
      <point x="506" y="55" type="curve" smooth="yes"/>
      <point x="506" y="17" type="line" smooth="yes"/>
      <point x="506" y="5"/>
      <point x="511" y="0"/>
      <point x="522" y="0" type="curve" smooth="yes"/>
    </contour>
  </outline>
</glyph>
<glyph name="threequarters" format="1">
  <advance width="798"/>
  <unicode hex="00BE"/>
  <note>
	threequarters
  </note>
  <outline>
    <contour>
      <point x="231" y="0" type="line" smooth="yes"/>
      <point x="245" y="0"/>
      <point x="254" y="2"/>
      <point x="260" y="12" type="curve"/>
      <point x="693" y="661" type="line" smooth="yes"/>
      <point x="699" y="670"/>
      <point x="697" y="680"/>
      <point x="684" y="680" type="curve" smooth="yes"/>
      <point x="626" y="680" type="line" smooth="yes"/>
      <point x="615" y="680"/>
      <point x="610" y="675"/>
      <point x="605" y="667" type="curve" smooth="yes"/>
      <point x="173" y="19" type="line" smooth="yes"/>
      <point x="167" y="10"/>
      <point x="169" y="0"/>
      <point x="182" y="0" type="curve" smooth="yes"/>
    </contour>
    <contour>
      <point x="320" y="279"/>
      <point x="368" y="331"/>
      <point x="368" y="401" type="curve" smooth="yes"/>
      <point x="368" y="447"/>
      <point x="351" y="479"/>
      <point x="302" y="495" type="curve"/>
      <point x="342" y="515"/>
      <point x="356" y="543"/>
      <point x="356" y="585" type="curve" smooth="yes"/>
      <point x="356" y="650"/>
      <point x="306" y="695"/>
      <point x="210" y="695" type="curve" smooth="yes"/>
      <point x="160" y="695"/>
      <point x="108" y="681"/>
      <point x="83" y="662" type="curve" smooth="yes"/>
      <point x="78" y="658"/>
      <point x="78" y="656"/>
      <point x="81" y="650" type="curve" smooth="yes"/>
      <point x="98" y="615" type="line"/>
      <point x="100" y="610"/>
      <point x="103" y="610"/>
      <point x="109" y="613" type="curve"/>
      <point x="138" y="626"/>
      <point x="165" y="638"/>
      <point x="203" y="638" type="curve" smooth="yes"/>
      <point x="259" y="638"/>
      <point x="280" y="619"/>
      <point x="280" y="584" type="curve" smooth="yes"/>
      <point x="280" y="551"/>
      <point x="267" y="524"/>
      <point x="223" y="524" type="curve" smooth="yes"/>
      <point x="175" y="524" type="line" smooth="yes"/>
      <point x="162" y="524"/>
      <point x="157" y="520"/>
      <point x="157" y="508" type="curve" smooth="yes"/>
      <point x="157" y="482" type="line" smooth="yes"/>
      <point x="157" y="469"/>
      <point x="162" y="465"/>
      <point x="175" y="465" type="curve" smooth="yes"/>
      <point x="221" y="465" type="line" smooth="yes"/>
      <point x="272" y="465"/>
      <point x="293" y="447"/>
      <point x="293" y="402" type="curve" smooth="yes"/>
      <point x="293" y="355"/>
      <point x="267" y="336"/>
      <point x="199" y="336" type="curve" smooth="yes"/>
      <point x="163" y="336"/>
      <point x="131" y="347"/>
      <point x="102" y="361" type="curve" smooth="yes"/>
      <point x="96" y="364"/>
      <point x="93" y="364"/>
      <point x="91" y="359" type="curve"/>
      <point x="74" y="324" type="line" smooth="yes"/>
      <point x="71" y="318"/>
      <point x="71" y="316"/>
      <point x="77" y="312" type="curve"/>
      <point x="102" y="294"/>
      <point x="160" y="279"/>
      <point x="206" y="279" type="curve" smooth="yes"/>
    </contour>
    <contour>
      <point x="662" y="0" type="line" smooth="yes"/>
      <point x="680" y="0"/>
      <point x="688" y="8"/>
      <point x="688" y="24" type="curve" smooth="yes"/>
      <point x="688" y="90" type="line"/>
      <point x="731" y="90" type="line" smooth="yes"/>
      <point x="749" y="90"/>
      <point x="756" y="95"/>
      <point x="756" y="112" type="curve" smooth="yes"/>
      <point x="756" y="125" type="line" smooth="yes"/>
      <point x="756" y="142"/>
      <point x="749" y="149"/>
      <point x="731" y="149" type="curve" smooth="yes"/>
      <point x="688" y="149" type="line"/>
      <point x="688" y="377" type="line" smooth="yes"/>
      <point x="688" y="388"/>
      <point x="683" y="394"/>
      <point x="670" y="394" type="curve" smooth="yes"/>
      <point x="627" y="394" type="line" smooth="yes"/>
      <point x="615" y="394"/>
      <point x="611" y="388"/>
      <point x="605" y="381" type="curve"/>
      <point x="424" y="152" type="line" smooth="yes"/>
      <point x="415" y="141"/>
      <point x="413" y="133"/>
      <point x="413" y="124" type="curve" smooth="yes"/>
      <point x="413" y="102" type="line" smooth="yes"/>
      <point x="413" y="93"/>
      <point x="417" y="90"/>
      <point x="427" y="90" type="curve" smooth="yes"/>
      <point x="611" y="90" type="line"/>
      <point x="611" y="24" type="line" smooth="yes"/>
      <point x="611" y="8"/>
      <point x="619" y="0"/>
      <point x="637" y="0" type="curve" smooth="yes"/>
    </contour>
    <contour>
      <point x="618" y="299" type="line"/>
      <point x="618" y="149" type="line"/>
      <point x="503" y="149" type="line"/>
    </contour>
  </outline>
</glyph>
<glyph name="questiondown" format="1">
  <advance width="542"/>
  <unicode hex="00BF"/>
  <note>
	questiondown
  </note>
  <outline>
    <contour>
      <point x="365" y="-46"/>
      <point x="441" y="-25"/>
      <point x="486" y="6" type="curve"/>
      <point x="495" y="13"/>
      <point x="497" y="18"/>
      <point x="491" y="28" type="curve" smooth="yes"/>
      <point x="469" y="65" type="line" smooth="yes"/>
      <point x="464" y="74"/>
      <point x="460" y="75"/>
      <point x="450" y="68" type="curve"/>
      <point x="413" y="45"/>
      <point x="362" y="24"/>
      <point x="281" y="24" type="curve" smooth="yes"/>
      <point x="194" y="24"/>
      <point x="137" y="63"/>
      <point x="137" y="137" type="curve" smooth="yes"/>
      <point x="137" y="198"/>
      <point x="157" y="219"/>
      <point x="245" y="266" type="curve" smooth="yes"/>
      <point x="325" y="310"/>
      <point x="362" y="363"/>
      <point x="362" y="453" type="curve" smooth="yes"/>
      <point x="362" y="473" type="line" smooth="yes"/>
      <point x="362" y="492"/>
      <point x="353" y="502"/>
      <point x="332" y="502" type="curve" smooth="yes"/>
      <point x="301" y="502" type="line" smooth="yes"/>
      <point x="279" y="502"/>
      <point x="271" y="492"/>
      <point x="271" y="473" type="curve" smooth="yes"/>
      <point x="271" y="456" type="line" smooth="yes"/>
      <point x="271" y="384"/>
      <point x="251" y="355"/>
      <point x="171" y="312" type="curve" smooth="yes"/>
      <point x="86" y="266"/>
      <point x="47" y="222"/>
      <point x="47" y="137" type="curve" smooth="yes"/>
      <point x="47" y="20"/>
      <point x="141" y="-46"/>
      <point x="274" y="-46" type="curve" smooth="yes"/>
    </contour>
    <contour>
      <point x="331" y="556" type="line" smooth="yes"/>
      <point x="356" y="556"/>
      <point x="372" y="572"/>
      <point x="372" y="594" type="curve" smooth="yes"/>
      <point x="372" y="612" type="line" smooth="yes"/>
      <point x="372" y="633"/>
      <point x="356" y="649"/>
      <point x="331" y="649" type="curve" smooth="yes"/>
      <point x="302" y="649" type="line" smooth="yes"/>
      <point x="277" y="649"/>
      <point x="261" y="633"/>
      <point x="261" y="612" type="curve" smooth="yes"/>
      <point x="261" y="594" type="line" smooth="yes"/>
      <point x="261" y="572"/>
      <point x="276" y="556"/>
      <point x="302" y="556" type="curve" smooth="yes"/>
    </contour>
  </outline>
</glyph>
<glyph name="Aacute" format="1">
  <advance width="727"/>
  <unicode hex="00C1"/>
  <note>
	Aacute
  </note>
  <outline>
    <contour>
      <point x="116" y="0" type="line" smooth="yes"/>
      <point x="133" y="0"/>
      <point x="136" y="3"/>
      <point x="141" y="15" type="curve" smooth="yes"/>
      <point x="209" y="178" type="line"/>
      <point x="518" y="178" type="line"/>
      <point x="586" y="15" type="line" smooth="yes"/>
      <point x="591" y="3"/>
      <point x="594" y="0"/>
      <point x="611" y="0" type="curve" smooth="yes"/>
      <point x="664" y="0" type="line" smooth="yes"/>
      <point x="678" y="0"/>
      <point x="682" y="10"/>
      <point x="677" y="23" type="curve" smooth="yes"/>
      <point x="408" y="659" type="line" smooth="yes"/>
      <point x="401" y="675"/>
      <point x="397" y="680"/>
      <point x="382" y="680" type="curve" smooth="yes"/>
      <point x="345" y="680" type="line" smooth="yes"/>
      <point x="330" y="680"/>
      <point x="326" y="675"/>
      <point x="319" y="659" type="curve" smooth="yes"/>
      <point x="50" y="23" type="line" smooth="yes"/>
      <point x="45" y="10"/>
      <point x="49" y="0"/>
      <point x="63" y="0" type="curve" smooth="yes"/>
    </contour>
    <contour>
      <point x="363" y="557" type="line"/>
      <point x="491" y="249" type="line"/>
      <point x="235" y="249" type="line"/>
    </contour>
    <contour>
      <point x="383" y="735" type="line" smooth="yes"/>
      <point x="401" y="735"/>
      <point x="408" y="739"/>
      <point x="414" y="752" type="curve" smooth="yes"/>
      <point x="480" y="888" type="line" smooth="yes"/>
      <point x="488" y="904"/>
      <point x="482" y="912"/>
      <point x="465" y="912" type="curve" smooth="yes"/>
      <point x="414" y="912" type="line" smooth="yes"/>
      <point x="395" y="912"/>
      <point x="390" y="907"/>
      <point x="385" y="893" type="curve" smooth="yes"/>
      <point x="336" y="757" type="line" smooth="yes"/>
      <point x="331" y="744"/>
      <point x="334" y="735"/>
      <point x="349" y="735" type="curve" smooth="yes"/>
    </contour>
  </outline>
</glyph>
<glyph name="Atilde" format="1">
  <advance width="727"/>
  <unicode hex="00C3"/>
  <note>
	Atilde
  </note>
  <outline>
    <contour>
      <point x="116" y="0" type="line" smooth="yes"/>
      <point x="133" y="0"/>
      <point x="136" y="3"/>
      <point x="141" y="15" type="curve" smooth="yes"/>
      <point x="209" y="178" type="line"/>
      <point x="518" y="178" type="line"/>
      <point x="586" y="15" type="line" smooth="yes"/>
      <point x="591" y="3"/>
      <point x="594" y="0"/>
      <point x="611" y="0" type="curve" smooth="yes"/>
      <point x="664" y="0" type="line" smooth="yes"/>
      <point x="678" y="0"/>
      <point x="682" y="10"/>
      <point x="677" y="23" type="curve" smooth="yes"/>
      <point x="408" y="659" type="line" smooth="yes"/>
      <point x="401" y="675"/>
      <point x="397" y="680"/>
      <point x="382" y="680" type="curve" smooth="yes"/>
      <point x="345" y="680" type="line" smooth="yes"/>
      <point x="330" y="680"/>
      <point x="326" y="675"/>
      <point x="319" y="659" type="curve" smooth="yes"/>
      <point x="50" y="23" type="line" smooth="yes"/>
      <point x="45" y="10"/>
      <point x="49" y="0"/>
      <point x="63" y="0" type="curve" smooth="yes"/>
    </contour>
    <contour>
      <point x="363" y="557" type="line"/>
      <point x="491" y="249" type="line"/>
      <point x="235" y="249" type="line"/>
    </contour>
    <contour>
      <point x="506" y="735"/>
      <point x="536" y="756"/>
      <point x="565" y="799" type="curve" smooth="yes"/>
      <point x="577" y="817"/>
      <point x="576" y="828"/>
      <point x="556" y="844" type="curve" smooth="yes"/>
      <point x="537" y="860"/>
      <point x="524" y="860"/>
      <point x="513" y="845" type="curve" smooth="yes"/>
      <point x="491" y="816"/>
      <point x="476" y="807"/>
      <point x="448" y="807" type="curve" smooth="yes"/>
      <point x="386" y="807"/>
      <point x="343" y="860"/>
      <point x="261" y="860" type="curve" smooth="yes"/>
      <point x="214" y="860"/>
      <point x="185" y="833"/>
      <point x="162" y="806" type="curve" smooth="yes"/>
      <point x="149" y="791"/>
      <point x="149" y="778"/>
      <point x="163" y="764" type="curve" smooth="yes"/>
      <point x="181" y="746"/>
      <point x="195" y="744"/>
      <point x="206" y="757" type="curve"/>
      <point x="226" y="779"/>
      <point x="236" y="789"/>
      <point x="265" y="789" type="curve" smooth="yes"/>
      <point x="320" y="789"/>
      <point x="379" y="735"/>
      <point x="448" y="735" type="curve" smooth="yes"/>
    </contour>
  </outline>
</glyph>
<glyph name="Adieresis" format="1">
  <advance width="727"/>
  <unicode hex="00C4"/>
  <note>
	Adieresis
  </note>
  <outline>
    <contour>
      <point x="116" y="0" type="line" smooth="yes"/>
      <point x="133" y="0"/>
      <point x="136" y="3"/>
      <point x="141" y="15" type="curve" smooth="yes"/>
      <point x="209" y="178" type="line"/>
      <point x="518" y="178" type="line"/>
      <point x="586" y="15" type="line" smooth="yes"/>
      <point x="591" y="3"/>
      <point x="594" y="0"/>
      <point x="611" y="0" type="curve" smooth="yes"/>
      <point x="664" y="0" type="line" smooth="yes"/>
      <point x="678" y="0"/>
      <point x="682" y="10"/>
      <point x="677" y="23" type="curve" smooth="yes"/>
      <point x="408" y="659" type="line" smooth="yes"/>
      <point x="401" y="675"/>
      <point x="397" y="680"/>
      <point x="382" y="680" type="curve" smooth="yes"/>
      <point x="345" y="680" type="line" smooth="yes"/>
      <point x="330" y="680"/>
      <point x="326" y="675"/>
      <point x="319" y="659" type="curve" smooth="yes"/>
      <point x="50" y="23" type="line" smooth="yes"/>
      <point x="45" y="10"/>
      <point x="49" y="0"/>
      <point x="63" y="0" type="curve" smooth="yes"/>
    </contour>
    <contour>
      <point x="363" y="557" type="line"/>
      <point x="491" y="249" type="line"/>
      <point x="235" y="249" type="line"/>
    </contour>
    <contour>
      <point x="278" y="728" type="line" smooth="yes"/>
      <point x="302" y="728"/>
      <point x="318" y="747"/>
      <point x="318" y="770" type="curve" smooth="yes"/>
      <point x="318" y="786" type="line" smooth="yes"/>
      <point x="318" y="809"/>
      <point x="301" y="828"/>
      <point x="278" y="828" type="curve" smooth="yes"/>
      <point x="261" y="828" type="line" smooth="yes"/>
      <point x="237" y="828"/>
      <point x="221" y="809"/>
      <point x="221" y="786" type="curve" smooth="yes"/>
      <point x="221" y="770" type="line" smooth="yes"/>
      <point x="221" y="747"/>
      <point x="237" y="728"/>
      <point x="261" y="728" type="curve" smooth="yes"/>
    </contour>
    <contour>
      <point x="466" y="728" type="line" smooth="yes"/>
      <point x="491" y="728"/>
      <point x="506" y="747"/>
      <point x="506" y="770" type="curve" smooth="yes"/>
      <point x="506" y="786" type="line" smooth="yes"/>
      <point x="506" y="809"/>
      <point x="490" y="828"/>
      <point x="466" y="828" type="curve" smooth="yes"/>
      <point x="449" y="828" type="line" smooth="yes"/>
      <point x="426" y="828"/>
      <point x="409" y="809"/>
      <point x="409" y="786" type="curve" smooth="yes"/>
      <point x="409" y="770" type="line" smooth="yes"/>
      <point x="409" y="747"/>
      <point x="426" y="728"/>
      <point x="449" y="728" type="curve" smooth="yes"/>
    </contour>
  </outline>
</glyph>
<glyph name="Edieresis" format="1">
  <advance width="579"/>
  <unicode hex="00CB"/>
  <note>
	Edieresis
  </note>
  <outline>
    <contour>
      <point x="513" y="0" type="line" smooth="yes"/>
      <point x="534" y="0"/>
      <point x="542" y="7"/>
      <point x="542" y="27" type="curve" smooth="yes"/>
      <point x="542" y="44" type="line" smooth="yes"/>
      <point x="542" y="65"/>
      <point x="534" y="73"/>
      <point x="513" y="73" type="curve" smooth="yes"/>
      <point x="158" y="73" type="line"/>
      <point x="158" y="304" type="line"/>
      <point x="425" y="304" type="line" smooth="yes"/>
      <point x="446" y="304"/>
      <point x="455" y="313"/>
      <point x="455" y="333" type="curve" smooth="yes"/>
      <point x="455" y="349" type="line" smooth="yes"/>
      <point x="455" y="370"/>
      <point x="446" y="377"/>
      <point x="425" y="377" type="curve" smooth="yes"/>
      <point x="158" y="377" type="line"/>
      <point x="158" y="607" type="line"/>
      <point x="513" y="607" type="line" smooth="yes"/>
      <point x="534" y="607"/>
      <point x="542" y="615"/>
      <point x="542" y="636" type="curve" smooth="yes"/>
      <point x="542" y="653" type="line" smooth="yes"/>
      <point x="542" y="673"/>
      <point x="534" y="680"/>
      <point x="513" y="680" type="curve" smooth="yes"/>
      <point x="97" y="680" type="line" smooth="yes"/>
      <point x="76" y="680"/>
      <point x="67" y="670"/>
      <point x="67" y="650" type="curve" smooth="yes"/>
      <point x="67" y="30" type="line" smooth="yes"/>
      <point x="67" y="10"/>
      <point x="76" y="0"/>
      <point x="97" y="0" type="curve" smooth="yes"/>
    </contour>
    <contour>
      <point x="216" y="752" type="line" smooth="yes"/>
      <point x="240" y="752"/>
      <point x="256" y="771"/>
      <point x="256" y="794" type="curve" smooth="yes"/>
      <point x="256" y="810" type="line" smooth="yes"/>
      <point x="256" y="833"/>
      <point x="239" y="852"/>
      <point x="216" y="852" type="curve" smooth="yes"/>
      <point x="199" y="852" type="line" smooth="yes"/>
      <point x="175" y="852"/>
      <point x="159" y="833"/>
      <point x="159" y="810" type="curve" smooth="yes"/>
      <point x="159" y="794" type="line" smooth="yes"/>
      <point x="159" y="771"/>
      <point x="175" y="752"/>
      <point x="199" y="752" type="curve" smooth="yes"/>
    </contour>
    <contour>
      <point x="404" y="752" type="line" smooth="yes"/>
      <point x="429" y="752"/>
      <point x="444" y="771"/>
      <point x="444" y="794" type="curve" smooth="yes"/>
      <point x="444" y="810" type="line" smooth="yes"/>
      <point x="444" y="833"/>
      <point x="428" y="852"/>
      <point x="404" y="852" type="curve" smooth="yes"/>
      <point x="387" y="852" type="line" smooth="yes"/>
      <point x="364" y="852"/>
      <point x="347" y="833"/>
      <point x="347" y="810" type="curve" smooth="yes"/>
      <point x="347" y="794" type="line" smooth="yes"/>
      <point x="347" y="771"/>
      <point x="364" y="752"/>
      <point x="387" y="752" type="curve" smooth="yes"/>
    </contour>
  </outline>
</glyph>
<glyph name="Icircumflex" format="1">
  <advance width="222"/>
  <unicode hex="00CE"/>
  <note>
	Icircumflex
  </note>
  <outline>
    <contour>
      <point x="127" y="0" type="line" smooth="yes"/>
      <point x="149" y="0"/>
      <point x="157" y="10"/>
      <point x="157" y="30" type="curve" smooth="yes"/>
      <point x="157" y="650" type="line" smooth="yes"/>
      <point x="157" y="670"/>
      <point x="149" y="680"/>
      <point x="127" y="680" type="curve" smooth="yes"/>
      <point x="96" y="680" type="line" smooth="yes"/>
      <point x="75" y="680"/>
      <point x="66" y="670"/>
      <point x="66" y="650" type="curve" smooth="yes"/>
      <point x="66" y="30" type="line" smooth="yes"/>
      <point x="66" y="10"/>
      <point x="75" y="0"/>
      <point x="96" y="0" type="curve" smooth="yes"/>
    </contour>
    <contour>
      <point x="2" y="761" type="line" smooth="yes"/>
      <point x="22" y="761"/>
      <point x="27" y="768"/>
      <point x="35" y="780" type="curve" smooth="yes"/>
      <point x="111" y="891" type="line"/>
      <point x="187" y="780" type="line" smooth="yes"/>
      <point x="195" y="768"/>
      <point x="200" y="761"/>
      <point x="220" y="761" type="curve" smooth="yes"/>
      <point x="253" y="761" type="line" smooth="yes"/>
      <point x="268" y="761"/>
      <point x="277" y="772"/>
      <point x="267" y="786" type="curve" smooth="yes"/>
      <point x="159" y="935" type="line" smooth="yes"/>
      <point x="149" y="948"/>
      <point x="146" y="954"/>
      <point x="128" y="954" type="curve" smooth="yes"/>
      <point x="94" y="954" type="line" smooth="yes"/>
      <point x="76" y="954"/>
      <point x="73" y="948"/>
      <point x="63" y="935" type="curve" smooth="yes"/>
      <point x="-45" y="786" type="line" smooth="yes"/>
      <point x="-55" y="772"/>
      <point x="-46" y="761"/>
      <point x="-31" y="761" type="curve" smooth="yes"/>
    </contour>
  </outline>
</glyph>
<glyph name="Idieresis" format="1">
  <advance width="214"/>
  <unicode hex="00CF"/>
  <note>
	Idieresis
  </note>
  <outline>
    <contour>
      <point x="122" y="0" type="line" smooth="yes"/>
      <point x="144" y="0"/>
      <point x="152" y="10"/>
      <point x="152" y="30" type="curve" smooth="yes"/>
      <point x="152" y="650" type="line" smooth="yes"/>
      <point x="152" y="670"/>
      <point x="144" y="680"/>
      <point x="122" y="680" type="curve" smooth="yes"/>
      <point x="91" y="680" type="line" smooth="yes"/>
      <point x="70" y="680"/>
      <point x="61" y="670"/>
      <point x="61" y="650" type="curve" smooth="yes"/>
      <point x="61" y="30" type="line" smooth="yes"/>
      <point x="61" y="10"/>
      <point x="70" y="0"/>
      <point x="91" y="0" type="curve" smooth="yes"/>
    </contour>
    <contour>
      <point x="22" y="725" type="line" smooth="yes"/>
      <point x="46" y="725"/>
      <point x="62" y="744"/>
      <point x="62" y="767" type="curve" smooth="yes"/>
      <point x="62" y="783" type="line" smooth="yes"/>
      <point x="62" y="806"/>
      <point x="45" y="825"/>
      <point x="22" y="825" type="curve" smooth="yes"/>
      <point x="5" y="825" type="line" smooth="yes"/>
      <point x="-19" y="825"/>
      <point x="-35" y="806"/>
      <point x="-35" y="783" type="curve" smooth="yes"/>
      <point x="-35" y="767" type="line" smooth="yes"/>
      <point x="-35" y="744"/>
      <point x="-19" y="725"/>
      <point x="5" y="725" type="curve" smooth="yes"/>
    </contour>
    <contour>
      <point x="210" y="725" type="line" smooth="yes"/>
      <point x="235" y="725"/>
      <point x="250" y="744"/>
      <point x="250" y="767" type="curve" smooth="yes"/>
      <point x="250" y="783" type="line" smooth="yes"/>
      <point x="250" y="806"/>
      <point x="234" y="825"/>
      <point x="210" y="825" type="curve" smooth="yes"/>
      <point x="193" y="825" type="line" smooth="yes"/>
      <point x="170" y="825"/>
      <point x="153" y="806"/>
      <point x="153" y="783" type="curve" smooth="yes"/>
      <point x="153" y="767" type="line" smooth="yes"/>
      <point x="153" y="744"/>
      <point x="170" y="725"/>
      <point x="193" y="725" type="curve" smooth="yes"/>
    </contour>
  </outline>
</glyph>
<glyph name="Eth" format="1">
  <advance width="728"/>
  <unicode hex="00D0"/>
  <note>
	Eth
  </note>
  <outline>
    <contour>
      <point x="335" y="0" type="line" smooth="yes"/>
      <point x="546" y="0"/>
      <point x="681" y="92"/>
      <point x="681" y="340" type="curve" smooth="yes"/>
      <point x="681" y="589"/>
      <point x="546" y="680"/>
      <point x="335" y="680" type="curve" smooth="yes"/>
      <point x="145" y="680" type="line" smooth="yes"/>
      <point x="123" y="680"/>
      <point x="115" y="670"/>
      <point x="115" y="650" type="curve" smooth="yes"/>
      <point x="115" y="377" type="line"/>
      <point x="52" y="377" type="line" smooth="yes"/>
      <point x="33" y="377"/>
      <point x="27" y="371"/>
      <point x="27" y="350" type="curve" smooth="yes"/>
      <point x="27" y="329" type="line" smooth="yes"/>
      <point x="27" y="309"/>
      <point x="33" y="304"/>
      <point x="52" y="304" type="curve" smooth="yes"/>
      <point x="115" y="304" type="line"/>
      <point x="115" y="30" type="line" smooth="yes"/>
      <point x="115" y="10"/>
      <point x="123" y="0"/>
      <point x="145" y="0" type="curve" smooth="yes"/>
    </contour>
    <contour>
      <point x="206" y="304" type="line"/>
      <point x="381" y="304" type="line" smooth="yes"/>
      <point x="400" y="304"/>
      <point x="406" y="309"/>
      <point x="406" y="329" type="curve" smooth="yes"/>
      <point x="406" y="350" type="line" smooth="yes"/>
      <point x="406" y="371"/>
      <point x="400" y="377"/>
      <point x="381" y="377" type="curve" smooth="yes"/>
      <point x="206" y="377" type="line"/>
      <point x="206" y="607" type="line"/>
      <point x="342" y="607" type="line" smooth="yes"/>
      <point x="496" y="607"/>
      <point x="591" y="543"/>
      <point x="591" y="340" type="curve" smooth="yes"/>
      <point x="591" y="137"/>
      <point x="496" y="73"/>
      <point x="342" y="73" type="curve" smooth="yes"/>
      <point x="206" y="73" type="line"/>
    </contour>
  </outline>
</glyph>
<glyph name="Ntilde" format="1">
  <advance width="697"/>
  <unicode hex="00D1"/>
  <note>
	Ntilde
  </note>
  <outline>
    <contour>
      <point x="128" y="0" type="line" smooth="yes"/>
      <point x="150" y="0"/>
      <point x="158" y="10"/>
      <point x="158" y="30" type="curve" smooth="yes"/>
      <point x="158" y="537" type="line"/>
      <point x="538" y="17" type="line" smooth="yes"/>
      <point x="548" y="3"/>
      <point x="554" y="0"/>
      <point x="569" y="0" type="curve" smooth="yes"/>
      <point x="600" y="0" type="line" smooth="yes"/>
      <point x="622" y="0"/>
      <point x="630" y="10"/>
      <point x="630" y="30" type="curve" smooth="yes"/>
      <point x="630" y="650" type="line" smooth="yes"/>
      <point x="630" y="670"/>
      <point x="622" y="680"/>
      <point x="600" y="680" type="curve" smooth="yes"/>
      <point x="569" y="680" type="line" smooth="yes"/>
      <point x="548" y="680"/>
      <point x="539" y="670"/>
      <point x="539" y="650" type="curve" smooth="yes"/>
      <point x="539" y="142" type="line"/>
      <point x="160" y="663" type="line" smooth="yes"/>
      <point x="150" y="677"/>
      <point x="144" y="680"/>
      <point x="128" y="680" type="curve" smooth="yes"/>
      <point x="98" y="680" type="line" smooth="yes"/>
      <point x="76" y="680"/>
      <point x="67" y="670"/>
      <point x="67" y="650" type="curve" smooth="yes"/>
      <point x="67" y="30" type="line" smooth="yes"/>
      <point x="67" y="10"/>
      <point x="76" y="0"/>
      <point x="97" y="0" type="curve" smooth="yes"/>
    </contour>
    <contour>
      <point x="504" y="769"/>
      <point x="534" y="790"/>
      <point x="563" y="833" type="curve" smooth="yes"/>
      <point x="575" y="851"/>
      <point x="574" y="862"/>
      <point x="554" y="878" type="curve" smooth="yes"/>
      <point x="535" y="894"/>
      <point x="522" y="894"/>
      <point x="511" y="879" type="curve" smooth="yes"/>
      <point x="489" y="850"/>
      <point x="474" y="841"/>
      <point x="446" y="841" type="curve" smooth="yes"/>
      <point x="384" y="841"/>
      <point x="341" y="894"/>
      <point x="259" y="894" type="curve" smooth="yes"/>
      <point x="212" y="894"/>
      <point x="183" y="867"/>
      <point x="160" y="840" type="curve" smooth="yes"/>
      <point x="147" y="825"/>
      <point x="147" y="812"/>
      <point x="161" y="798" type="curve" smooth="yes"/>
      <point x="179" y="780"/>
      <point x="193" y="778"/>
      <point x="204" y="791" type="curve"/>
      <point x="224" y="813"/>
      <point x="234" y="823"/>
      <point x="263" y="823" type="curve" smooth="yes"/>
      <point x="318" y="823"/>
      <point x="377" y="769"/>
      <point x="446" y="769" type="curve" smooth="yes"/>
    </contour>
  </outline>
</glyph>
<glyph name="Ograve" format="1">
  <advance width="765"/>
  <unicode hex="00D2"/>
  <note>
	Ograve
  </note>
  <outline>
    <contour>
      <point x="596" y="-15"/>
      <point x="718" y="116"/>
      <point x="718" y="340" type="curve" smooth="yes"/>
      <point x="718" y="564"/>
      <point x="596" y="695"/>
      <point x="383" y="695" type="curve" smooth="yes"/>
      <point x="169" y="695"/>
      <point x="47" y="564"/>
      <point x="47" y="340" type="curve" smooth="yes"/>
      <point x="47" y="116"/>
      <point x="169" y="-15"/>
      <point x="383" y="-15" type="curve" smooth="yes"/>
    </contour>
    <contour>
      <point x="227" y="55"/>
      <point x="136" y="153"/>
      <point x="136" y="340" type="curve" smooth="yes"/>
      <point x="136" y="527"/>
      <point x="227" y="625"/>
      <point x="383" y="625" type="curve" smooth="yes"/>
      <point x="538" y="625"/>
      <point x="629" y="527"/>
      <point x="629" y="340" type="curve" smooth="yes"/>
      <point x="629" y="153"/>
      <point x="538" y="55"/>
      <point x="383" y="55" type="curve" smooth="yes"/>
    </contour>
    <contour>
      <point x="419" y="759" type="line" smooth="yes"/>
      <point x="434" y="759"/>
      <point x="438" y="768"/>
      <point x="433" y="781" type="curve" smooth="yes"/>
      <point x="383" y="917" type="line" smooth="yes"/>
      <point x="378" y="932"/>
      <point x="374" y="936"/>
      <point x="354" y="936" type="curve" smooth="yes"/>
      <point x="304" y="936" type="line" smooth="yes"/>
      <point x="287" y="936"/>
      <point x="280" y="928"/>
      <point x="288" y="912" type="curve" smooth="yes"/>
      <point x="355" y="776" type="line" smooth="yes"/>
      <point x="361" y="763"/>
      <point x="367" y="759"/>
      <point x="385" y="759" type="curve" smooth="yes"/>
    </contour>
  </outline>
</glyph>
<glyph name="Oacute" format="1">
  <advance width="765"/>
  <unicode hex="00D3"/>
  <note>
	Oacute
  </note>
  <outline>
    <contour>
      <point x="596" y="-15"/>
      <point x="718" y="116"/>
      <point x="718" y="340" type="curve" smooth="yes"/>
      <point x="718" y="564"/>
      <point x="596" y="695"/>
      <point x="383" y="695" type="curve" smooth="yes"/>
      <point x="169" y="695"/>
      <point x="47" y="564"/>
      <point x="47" y="340" type="curve" smooth="yes"/>
      <point x="47" y="116"/>
      <point x="169" y="-15"/>
      <point x="383" y="-15" type="curve" smooth="yes"/>
    </contour>
    <contour>
      <point x="227" y="55"/>
      <point x="136" y="153"/>
      <point x="136" y="340" type="curve" smooth="yes"/>
      <point x="136" y="527"/>
      <point x="227" y="625"/>
      <point x="383" y="625" type="curve" smooth="yes"/>
      <point x="538" y="625"/>
      <point x="629" y="527"/>
      <point x="629" y="340" type="curve" smooth="yes"/>
      <point x="629" y="153"/>
      <point x="538" y="55"/>
      <point x="383" y="55" type="curve" smooth="yes"/>
    </contour>
    <contour>
      <point x="393" y="759" type="line" smooth="yes"/>
      <point x="411" y="759"/>
      <point x="418" y="763"/>
      <point x="424" y="776" type="curve" smooth="yes"/>
      <point x="490" y="912" type="line" smooth="yes"/>
      <point x="498" y="928"/>
      <point x="492" y="936"/>
      <point x="475" y="936" type="curve" smooth="yes"/>
      <point x="424" y="936" type="line" smooth="yes"/>
      <point x="405" y="936"/>
      <point x="400" y="931"/>
      <point x="395" y="917" type="curve" smooth="yes"/>
      <point x="346" y="781" type="line" smooth="yes"/>
      <point x="341" y="768"/>
      <point x="344" y="759"/>
      <point x="359" y="759" type="curve" smooth="yes"/>
    </contour>
  </outline>
</glyph>
<glyph name="Ugrave" format="1">
  <advance width="716"/>
  <unicode hex="00D9"/>
  <note>
	Ugrave
  </note>
  <outline>
    <contour>
      <point x="532" y="-15"/>
      <point x="654" y="81"/>
      <point x="654" y="238" type="curve" smooth="yes"/>
      <point x="654" y="650" type="line" smooth="yes"/>
      <point x="654" y="670"/>
      <point x="645" y="680"/>
      <point x="623" y="680" type="curve" smooth="yes"/>
      <point x="593" y="680" type="line" smooth="yes"/>
      <point x="571" y="680"/>
      <point x="563" y="670"/>
      <point x="563" y="650" type="curve" smooth="yes"/>
      <point x="563" y="234" type="line" smooth="yes"/>
      <point x="563" y="125"/>
      <point x="489" y="55"/>
      <point x="358" y="55" type="curve" smooth="yes"/>
      <point x="227" y="55"/>
      <point x="153" y="125"/>
      <point x="153" y="234" type="curve" smooth="yes"/>
      <point x="153" y="650" type="line" smooth="yes"/>
      <point x="153" y="670"/>
      <point x="145" y="680"/>
      <point x="123" y="680" type="curve" smooth="yes"/>
      <point x="92" y="680" type="line" smooth="yes"/>
      <point x="71" y="680"/>
      <point x="62" y="670"/>
      <point x="62" y="650" type="curve" smooth="yes"/>
      <point x="62" y="238" type="line" smooth="yes"/>
      <point x="62" y="81"/>
      <point x="184" y="-15"/>
      <point x="358" y="-15" type="curve" smooth="yes"/>
    </contour>
    <contour>
      <point x="400" y="759" type="line" smooth="yes"/>
      <point x="415" y="759"/>
      <point x="419" y="768"/>
      <point x="414" y="781" type="curve" smooth="yes"/>
      <point x="364" y="917" type="line" smooth="yes"/>
      <point x="359" y="932"/>
      <point x="355" y="936"/>
      <point x="335" y="936" type="curve" smooth="yes"/>
      <point x="285" y="936" type="line" smooth="yes"/>
      <point x="268" y="936"/>
      <point x="261" y="928"/>
      <point x="269" y="912" type="curve" smooth="yes"/>
      <point x="336" y="776" type="line" smooth="yes"/>
      <point x="342" y="763"/>
      <point x="348" y="759"/>
      <point x="366" y="759" type="curve" smooth="yes"/>
    </contour>
  </outline>
</glyph>
<glyph name="Uacute" format="1">
  <advance width="716"/>
  <unicode hex="00DA"/>
  <note>
	Uacute
  </note>
  <outline>
    <contour>
      <point x="532" y="-15"/>
      <point x="654" y="81"/>
      <point x="654" y="238" type="curve" smooth="yes"/>
      <point x="654" y="650" type="line" smooth="yes"/>
      <point x="654" y="670"/>
      <point x="645" y="680"/>
      <point x="623" y="680" type="curve" smooth="yes"/>
      <point x="593" y="680" type="line" smooth="yes"/>
      <point x="571" y="680"/>
      <point x="563" y="670"/>
      <point x="563" y="650" type="curve" smooth="yes"/>
      <point x="563" y="234" type="line" smooth="yes"/>
      <point x="563" y="125"/>
      <point x="489" y="55"/>
      <point x="358" y="55" type="curve" smooth="yes"/>
      <point x="227" y="55"/>
      <point x="153" y="125"/>
      <point x="153" y="234" type="curve" smooth="yes"/>
      <point x="153" y="650" type="line" smooth="yes"/>
      <point x="153" y="670"/>
      <point x="145" y="680"/>
      <point x="123" y="680" type="curve" smooth="yes"/>
      <point x="92" y="680" type="line" smooth="yes"/>
      <point x="71" y="680"/>
      <point x="62" y="670"/>
      <point x="62" y="650" type="curve" smooth="yes"/>
      <point x="62" y="238" type="line" smooth="yes"/>
      <point x="62" y="81"/>
      <point x="184" y="-15"/>
      <point x="358" y="-15" type="curve" smooth="yes"/>
    </contour>
    <contour>
      <point x="349" y="759" type="line" smooth="yes"/>
      <point x="367" y="759"/>
      <point x="374" y="763"/>
      <point x="380" y="776" type="curve" smooth="yes"/>
      <point x="446" y="912" type="line" smooth="yes"/>
      <point x="454" y="928"/>
      <point x="448" y="936"/>
      <point x="431" y="936" type="curve" smooth="yes"/>
      <point x="380" y="936" type="line" smooth="yes"/>
      <point x="361" y="936"/>
      <point x="356" y="931"/>
      <point x="351" y="917" type="curve" smooth="yes"/>
      <point x="302" y="781" type="line" smooth="yes"/>
      <point x="297" y="768"/>
      <point x="300" y="759"/>
      <point x="315" y="759" type="curve" smooth="yes"/>
    </contour>
  </outline>
</glyph>
<glyph name="Ucircumflex" format="1">
  <advance width="716"/>
  <unicode hex="00DB"/>
  <note>
	Ucircumflex
  </note>
  <outline>
    <contour>
      <point x="532" y="-15"/>
      <point x="654" y="81"/>
      <point x="654" y="238" type="curve" smooth="yes"/>
      <point x="654" y="650" type="line" smooth="yes"/>
      <point x="654" y="670"/>
      <point x="645" y="680"/>
      <point x="623" y="680" type="curve" smooth="yes"/>
      <point x="593" y="680" type="line" smooth="yes"/>
      <point x="571" y="680"/>
      <point x="563" y="670"/>
      <point x="563" y="650" type="curve" smooth="yes"/>
      <point x="563" y="234" type="line" smooth="yes"/>
      <point x="563" y="125"/>
      <point x="489" y="55"/>
      <point x="358" y="55" type="curve" smooth="yes"/>
      <point x="227" y="55"/>
      <point x="153" y="125"/>
      <point x="153" y="234" type="curve" smooth="yes"/>
      <point x="153" y="650" type="line" smooth="yes"/>
      <point x="153" y="670"/>
      <point x="145" y="680"/>
      <point x="123" y="680" type="curve" smooth="yes"/>
      <point x="92" y="680" type="line" smooth="yes"/>
      <point x="71" y="680"/>
      <point x="62" y="670"/>
      <point x="62" y="650" type="curve" smooth="yes"/>
      <point x="62" y="238" type="line" smooth="yes"/>
      <point x="62" y="81"/>
      <point x="184" y="-15"/>
      <point x="358" y="-15" type="curve" smooth="yes"/>
    </contour>
    <contour>
      <point x="249" y="754" type="line" smooth="yes"/>
      <point x="269" y="754"/>
      <point x="274" y="761"/>
      <point x="282" y="773" type="curve" smooth="yes"/>
      <point x="358" y="884" type="line"/>
      <point x="434" y="773" type="line" smooth="yes"/>
      <point x="442" y="761"/>
      <point x="447" y="754"/>
      <point x="467" y="754" type="curve" smooth="yes"/>
      <point x="500" y="754" type="line" smooth="yes"/>
      <point x="515" y="754"/>
      <point x="524" y="765"/>
      <point x="514" y="779" type="curve" smooth="yes"/>
      <point x="406" y="928" type="line" smooth="yes"/>
      <point x="396" y="941"/>
      <point x="393" y="947"/>
      <point x="375" y="947" type="curve" smooth="yes"/>
      <point x="341" y="947" type="line" smooth="yes"/>
      <point x="323" y="947"/>
      <point x="320" y="941"/>
      <point x="310" y="928" type="curve" smooth="yes"/>
      <point x="202" y="779" type="line" smooth="yes"/>
      <point x="192" y="765"/>
      <point x="201" y="754"/>
      <point x="216" y="754" type="curve" smooth="yes"/>
    </contour>
  </outline>
</glyph>
<glyph name="Udieresis" format="1">
  <advance width="716"/>
  <unicode hex="00DC"/>
  <note>
	Udieresis
  </note>
  <outline>
    <contour>
      <point x="532" y="-15"/>
      <point x="654" y="81"/>
      <point x="654" y="238" type="curve" smooth="yes"/>
      <point x="654" y="650" type="line" smooth="yes"/>
      <point x="654" y="670"/>
      <point x="645" y="680"/>
      <point x="623" y="680" type="curve" smooth="yes"/>
      <point x="593" y="680" type="line" smooth="yes"/>
      <point x="571" y="680"/>
      <point x="563" y="670"/>
      <point x="563" y="650" type="curve" smooth="yes"/>
      <point x="563" y="234" type="line" smooth="yes"/>
      <point x="563" y="125"/>
      <point x="489" y="55"/>
      <point x="358" y="55" type="curve" smooth="yes"/>
      <point x="227" y="55"/>
      <point x="153" y="125"/>
      <point x="153" y="234" type="curve" smooth="yes"/>
      <point x="153" y="650" type="line" smooth="yes"/>
      <point x="153" y="670"/>
      <point x="145" y="680"/>
      <point x="123" y="680" type="curve" smooth="yes"/>
      <point x="92" y="680" type="line" smooth="yes"/>
      <point x="71" y="680"/>
      <point x="62" y="670"/>
      <point x="62" y="650" type="curve" smooth="yes"/>
      <point x="62" y="238" type="line" smooth="yes"/>
      <point x="62" y="81"/>
      <point x="184" y="-15"/>
      <point x="358" y="-15" type="curve" smooth="yes"/>
    </contour>
    <contour>
      <point x="273" y="752" type="line" smooth="yes"/>
      <point x="297" y="752"/>
      <point x="313" y="771"/>
      <point x="313" y="794" type="curve" smooth="yes"/>
      <point x="313" y="810" type="line" smooth="yes"/>
      <point x="313" y="833"/>
      <point x="296" y="852"/>
      <point x="273" y="852" type="curve" smooth="yes"/>
      <point x="256" y="852" type="line" smooth="yes"/>
      <point x="232" y="852"/>
      <point x="216" y="833"/>
      <point x="216" y="810" type="curve" smooth="yes"/>
      <point x="216" y="794" type="line" smooth="yes"/>
      <point x="216" y="771"/>
      <point x="232" y="752"/>
      <point x="256" y="752" type="curve" smooth="yes"/>
    </contour>
    <contour>
      <point x="461" y="752" type="line" smooth="yes"/>
      <point x="486" y="752"/>
      <point x="501" y="771"/>
      <point x="501" y="794" type="curve" smooth="yes"/>
      <point x="501" y="810" type="line" smooth="yes"/>
      <point x="501" y="833"/>
      <point x="485" y="852"/>
      <point x="461" y="852" type="curve" smooth="yes"/>
      <point x="444" y="852" type="line" smooth="yes"/>
      <point x="421" y="852"/>
      <point x="404" y="833"/>
      <point x="404" y="810" type="curve" smooth="yes"/>
      <point x="404" y="794" type="line" smooth="yes"/>
      <point x="404" y="771"/>
      <point x="421" y="752"/>
      <point x="444" y="752" type="curve" smooth="yes"/>
    </contour>
  </outline>
</glyph>
<glyph name="Yacute" format="1">
  <advance width="694"/>
  <unicode hex="00DD"/>
  <note>
	Yacute
  </note>
  <outline>
    <contour>
      <point x="362" y="0" type="line" smooth="yes"/>
      <point x="384" y="0"/>
      <point x="393" y="10"/>
      <point x="393" y="30" type="curve" smooth="yes"/>
      <point x="393" y="225" type="line"/>
      <point x="644" y="657" type="line" smooth="yes"/>
      <point x="651" y="669"/>
      <point x="647" y="680"/>
      <point x="631" y="680" type="curve" smooth="yes"/>
      <point x="578" y="680" type="line" smooth="yes"/>
      <point x="561" y="680"/>
      <point x="559" y="677"/>
      <point x="554" y="668" type="curve" smooth="yes"/>
      <point x="347" y="310" type="line"/>
      <point x="140" y="668" type="line" smooth="yes"/>
      <point x="135" y="677"/>
      <point x="133" y="680"/>
      <point x="116" y="680" type="curve" smooth="yes"/>
      <point x="63" y="680" type="line" smooth="yes"/>
      <point x="47" y="680"/>
      <point x="43" y="669"/>
      <point x="50" y="657" type="curve" smooth="yes"/>
      <point x="301" y="226" type="line"/>
      <point x="301" y="30" type="line" smooth="yes"/>
      <point x="301" y="10"/>
      <point x="310" y="0"/>
      <point x="332" y="0" type="curve" smooth="yes"/>
    </contour>
    <contour>
      <point x="353" y="759" type="line" smooth="yes"/>
      <point x="371" y="759"/>
      <point x="378" y="763"/>
      <point x="384" y="776" type="curve" smooth="yes"/>
      <point x="450" y="912" type="line" smooth="yes"/>
      <point x="458" y="928"/>
      <point x="452" y="936"/>
      <point x="435" y="936" type="curve" smooth="yes"/>
      <point x="384" y="936" type="line" smooth="yes"/>
      <point x="365" y="936"/>
      <point x="360" y="931"/>
      <point x="355" y="917" type="curve" smooth="yes"/>
      <point x="306" y="781" type="line" smooth="yes"/>
      <point x="301" y="768"/>
      <point x="304" y="759"/>
      <point x="319" y="759" type="curve" smooth="yes"/>
    </contour>
  </outline>
</glyph>
<glyph name="ae" format="1">
  <advance width="962"/>
  <unicode hex="00E6"/>
  <note>
	ae
  </note>
  <outline>
    <contour>
      <point x="331" y="-15"/>
      <point x="421" y="20"/>
      <point x="465" y="94" type="curve"/>
      <point x="504" y="18"/>
      <point x="589" y="-15"/>
      <point x="685" y="-15" type="curve" smooth="yes"/>
      <point x="755" y="-15"/>
      <point x="819" y="-1"/>
      <point x="873" y="33" type="curve" smooth="yes"/>
      <point x="881" y="38"/>
      <point x="884" y="44"/>
      <point x="878" y="53" type="curve"/>
      <point x="860" y="86" type="line"/>
      <point x="855" y="94"/>
      <point x="852" y="96"/>
      <point x="842" y="90" type="curve"/>
      <point x="806" y="66"/>
      <point x="755" y="51"/>
      <point x="692" y="51" type="curve" smooth="yes"/>
      <point x="574" y="51"/>
      <point x="505" y="109"/>
      <point x="505" y="212" type="curve"/>
      <point x="889" y="212" type="line" smooth="yes"/>
      <point x="906" y="212"/>
      <point x="915" y="222"/>
      <point x="915" y="239" type="curve" smooth="yes"/>
      <point x="915" y="408"/>
      <point x="832" y="495"/>
      <point x="668" y="495" type="curve" smooth="yes"/>
      <point x="576" y="495"/>
      <point x="503" y="464"/>
      <point x="466" y="395" type="curve"/>
      <point x="437" y="459"/>
      <point x="384" y="495"/>
      <point x="276" y="495" type="curve" smooth="yes"/>
      <point x="213" y="495"/>
      <point x="143" y="479"/>
      <point x="100" y="457" type="curve" smooth="yes"/>
      <point x="90" y="452"/>
      <point x="89" y="446"/>
      <point x="93" y="438" type="curve" smooth="yes"/>
      <point x="108" y="408" type="line"/>
      <point x="113" y="396"/>
      <point x="118" y="393"/>
      <point x="131" y="399" type="curve" smooth="yes"/>
      <point x="170" y="416"/>
      <point x="207" y="431"/>
      <point x="271" y="431" type="curve" smooth="yes"/>
      <point x="374" y="431"/>
      <point x="415" y="383"/>
      <point x="415" y="307" type="curve" smooth="yes"/>
      <point x="415" y="282" type="line"/>
      <point x="245" y="282" type="line" smooth="yes"/>
      <point x="128" y="282"/>
      <point x="47" y="238"/>
      <point x="47" y="129" type="curve" smooth="yes"/>
      <point x="47" y="28"/>
      <point x="127" y="-15"/>
      <point x="233" y="-15" type="curve" smooth="yes"/>
    </contour>
    <contour>
      <point x="164" y="51"/>
      <point x="128" y="77"/>
      <point x="128" y="132" type="curve" smooth="yes"/>
      <point x="128" y="195"/>
      <point x="169" y="220"/>
      <point x="242" y="220" type="curve" smooth="yes"/>
      <point x="415" y="220" type="line"/>
      <point x="415" y="186" type="line" smooth="yes"/>
      <point x="415" y="94"/>
      <point x="347" y="51"/>
      <point x="242" y="51" type="curve" smooth="yes"/>
    </contour>
    <contour>
      <point x="505" y="375"/>
      <point x="556" y="431"/>
      <point x="668" y="431" type="curve" smooth="yes"/>
      <point x="780" y="431"/>
      <point x="831" y="374"/>
      <point x="831" y="273" type="curve"/>
      <point x="505" y="273" type="line"/>
    </contour>
  </outline>
</glyph>
<glyph name="ccedilla" format="1">
  <advance width="567"/>
  <unicode hex="00E7"/>
  <note>
	ccedilla
  </note>
  <outline>
    <contour>
      <point x="404" y="-15"/>
      <point x="461" y="2"/>
      <point x="511" y="35" type="curve" smooth="yes"/>
      <point x="521" y="42"/>
      <point x="522" y="47"/>
      <point x="516" y="56" type="curve"/>
      <point x="495" y="91" type="line" smooth="yes"/>
      <point x="489" y="101"/>
      <point x="486" y="102"/>
      <point x="476" y="95" type="curve" smooth="yes"/>
      <point x="440" y="70"/>
      <point x="398" y="54"/>
      <point x="331" y="54" type="curve" smooth="yes"/>
      <point x="203" y="54"/>
      <point x="136" y="112"/>
      <point x="136" y="238" type="curve" smooth="yes"/>
      <point x="136" y="354"/>
      <point x="203" y="427"/>
      <point x="322" y="427" type="curve" smooth="yes"/>
      <point x="386" y="427"/>
      <point x="429" y="414"/>
      <point x="469" y="386" type="curve" smooth="yes"/>
      <point x="479" y="379"/>
      <point x="482" y="380"/>
      <point x="488" y="390" type="curve" smooth="yes"/>
      <point x="508" y="424" type="line" smooth="yes"/>
      <point x="514" y="434"/>
      <point x="513" y="439"/>
      <point x="504" y="446" type="curve"/>
      <point x="453" y="482"/>
      <point x="401" y="495"/>
      <point x="320" y="495" type="curve" smooth="yes"/>
      <point x="153" y="495"/>
      <point x="47" y="390"/>
      <point x="47" y="238" type="curve" smooth="yes"/>
      <point x="47" y="73"/>
      <point x="153" y="-15"/>
      <point x="324" y="-15" type="curve" smooth="yes"/>
    </contour>
    <contour>
      <point x="378" y="-222"/>
      <point x="416" y="-192"/>
      <point x="416" y="-142" type="curve" smooth="yes"/>
      <point x="416" y="-93"/>
      <point x="387" y="-70"/>
      <point x="341" y="-68" type="curve"/>
      <point x="364" y="-18" type="line" smooth="yes"/>
      <point x="369" y="-8"/>
      <point x="366" y="-2"/>
      <point x="354" y="-2" type="curve" smooth="yes"/>
      <point x="309" y="-2" type="line" smooth="yes"/>
      <point x="295" y="-2"/>
      <point x="291" y="-5"/>
      <point x="287" y="-16" type="curve" smooth="yes"/>
      <point x="260" y="-84" type="line" smooth="yes"/>
      <point x="256" y="-94"/>
      <point x="260" y="-100"/>
      <point x="270" y="-100" type="curve" smooth="yes"/>
      <point x="284" y="-100" type="line" smooth="yes"/>
      <point x="326" y="-100"/>
      <point x="348" y="-105"/>
      <point x="348" y="-136" type="curve" smooth="yes"/>
      <point x="348" y="-160"/>
      <point x="337" y="-169"/>
      <point x="306" y="-169" type="curve" smooth="yes"/>
      <point x="291" y="-169"/>
      <point x="272" y="-165"/>
      <point x="259" y="-158" type="curve"/>
      <point x="250" y="-152"/>
      <point x="245" y="-153"/>
      <point x="241" y="-162" type="curve" smooth="yes"/>
      <point x="230" y="-188" type="line" smooth="yes"/>
      <point x="227" y="-195"/>
      <point x="229" y="-199"/>
      <point x="240" y="-206" type="curve"/>
      <point x="257" y="-216"/>
      <point x="286" y="-222"/>
      <point x="313" y="-222" type="curve" smooth="yes"/>
    </contour>
  </outline>
</glyph>
<glyph name="ecircumflex" format="1">
  <advance width="600"/>
  <unicode hex="00EA"/>
  <note>
	ecircumflex
  </note>
  <outline>
    <contour>
      <point x="399" y="-15"/>
      <point x="457" y="-1"/>
      <point x="511" y="33" type="curve" smooth="yes"/>
      <point x="519" y="38"/>
      <point x="522" y="44"/>
      <point x="517" y="53" type="curve" smooth="yes"/>
      <point x="498" y="86" type="line"/>
      <point x="494" y="94"/>
      <point x="490" y="96"/>
      <point x="480" y="90" type="curve" smooth="yes"/>
      <point x="443" y="67"/>
      <point x="393" y="51"/>
      <point x="330" y="51" type="curve" smooth="yes"/>
      <point x="210" y="51"/>
      <point x="134" y="105"/>
      <point x="134" y="212" type="curve"/>
      <point x="527" y="212" type="line" smooth="yes"/>
      <point x="544" y="212"/>
      <point x="553" y="222"/>
      <point x="553" y="239" type="curve" smooth="yes"/>
      <point x="553" y="408"/>
      <point x="470" y="495"/>
      <point x="306" y="495" type="curve" smooth="yes"/>
      <point x="143" y="495"/>
      <point x="47" y="406"/>
      <point x="47" y="231" type="curve" smooth="yes"/>
      <point x="47" y="57"/>
      <point x="177" y="-15"/>
      <point x="321" y="-15" type="curve" smooth="yes"/>
    </contour>
    <contour>
      <point x="134" y="367"/>
      <point x="193" y="431"/>
      <point x="306" y="431" type="curve" smooth="yes"/>
      <point x="417" y="431"/>
      <point x="469" y="371"/>
      <point x="469" y="273" type="curve"/>
      <point x="134" y="273" type="line"/>
    </contour>
    <contour>
      <point x="202" y="550" type="line" smooth="yes"/>
      <point x="222" y="550"/>
      <point x="227" y="557"/>
      <point x="235" y="569" type="curve" smooth="yes"/>
      <point x="311" y="680" type="line"/>
      <point x="387" y="569" type="line" smooth="yes"/>
      <point x="395" y="557"/>
      <point x="400" y="550"/>
      <point x="420" y="550" type="curve" smooth="yes"/>
      <point x="453" y="550" type="line" smooth="yes"/>
      <point x="468" y="550"/>
      <point x="477" y="561"/>
      <point x="467" y="575" type="curve" smooth="yes"/>
      <point x="359" y="724" type="line" smooth="yes"/>
      <point x="349" y="737"/>
      <point x="346" y="743"/>
      <point x="328" y="743" type="curve" smooth="yes"/>
      <point x="294" y="743" type="line" smooth="yes"/>
      <point x="276" y="743"/>
      <point x="273" y="737"/>
      <point x="263" y="724" type="curve" smooth="yes"/>
      <point x="155" y="575" type="line" smooth="yes"/>
      <point x="145" y="561"/>
      <point x="154" y="550"/>
      <point x="169" y="550" type="curve" smooth="yes"/>
    </contour>
  </outline>
</glyph>
<glyph name="edieresis" format="1">
  <advance width="600"/>
  <unicode hex="00EB"/>
  <note>
	edieresis
  </note>
  <outline>
    <contour>
      <point x="399" y="-15"/>
      <point x="457" y="-1"/>
      <point x="511" y="33" type="curve" smooth="yes"/>
      <point x="519" y="38"/>
      <point x="522" y="44"/>
      <point x="517" y="53" type="curve" smooth="yes"/>
      <point x="498" y="86" type="line"/>
      <point x="494" y="94"/>
      <point x="490" y="96"/>
      <point x="480" y="90" type="curve" smooth="yes"/>
      <point x="443" y="67"/>
      <point x="393" y="51"/>
      <point x="330" y="51" type="curve" smooth="yes"/>
      <point x="210" y="51"/>
      <point x="134" y="105"/>
      <point x="134" y="212" type="curve"/>
      <point x="527" y="212" type="line" smooth="yes"/>
      <point x="544" y="212"/>
      <point x="553" y="222"/>
      <point x="553" y="239" type="curve" smooth="yes"/>
      <point x="553" y="408"/>
      <point x="470" y="495"/>
      <point x="306" y="495" type="curve" smooth="yes"/>
      <point x="143" y="495"/>
      <point x="47" y="406"/>
      <point x="47" y="231" type="curve" smooth="yes"/>
      <point x="47" y="57"/>
      <point x="177" y="-15"/>
      <point x="321" y="-15" type="curve" smooth="yes"/>
    </contour>
    <contour>
      <point x="134" y="367"/>
      <point x="193" y="431"/>
      <point x="306" y="431" type="curve" smooth="yes"/>
      <point x="417" y="431"/>
      <point x="469" y="371"/>
      <point x="469" y="273" type="curve"/>
      <point x="134" y="273" type="line"/>
    </contour>
    <contour>
      <point x="222" y="546" type="line" smooth="yes"/>
      <point x="246" y="546"/>
      <point x="262" y="565"/>
      <point x="262" y="588" type="curve" smooth="yes"/>
      <point x="262" y="604" type="line" smooth="yes"/>
      <point x="262" y="627"/>
      <point x="245" y="646"/>
      <point x="222" y="646" type="curve" smooth="yes"/>
      <point x="205" y="646" type="line" smooth="yes"/>
      <point x="181" y="646"/>
      <point x="165" y="627"/>
      <point x="165" y="604" type="curve" smooth="yes"/>
      <point x="165" y="588" type="line" smooth="yes"/>
      <point x="165" y="565"/>
      <point x="181" y="546"/>
      <point x="205" y="546" type="curve" smooth="yes"/>
    </contour>
    <contour>
      <point x="410" y="546" type="line" smooth="yes"/>
      <point x="435" y="546"/>
      <point x="450" y="565"/>
      <point x="450" y="588" type="curve" smooth="yes"/>
      <point x="450" y="604" type="line" smooth="yes"/>
      <point x="450" y="627"/>
      <point x="434" y="646"/>
      <point x="410" y="646" type="curve" smooth="yes"/>
      <point x="393" y="646" type="line" smooth="yes"/>
      <point x="370" y="646"/>
      <point x="353" y="627"/>
      <point x="353" y="604" type="curve" smooth="yes"/>
      <point x="353" y="588" type="line" smooth="yes"/>
      <point x="353" y="565"/>
      <point x="370" y="546"/>
      <point x="393" y="546" type="curve" smooth="yes"/>
    </contour>
  </outline>
</glyph>
<glyph name="iacute" format="1">
  <advance width="224"/>
  <unicode hex="00ED"/>
  <note>
	iacute
  </note>
  <outline>
    <contour>
      <point x="132" y="0" type="line" smooth="yes"/>
      <point x="154" y="0"/>
      <point x="162" y="10"/>
      <point x="162" y="30" type="curve" smooth="yes"/>
      <point x="162" y="450" type="line" smooth="yes"/>
      <point x="162" y="470"/>
      <point x="154" y="480"/>
      <point x="132" y="480" type="curve" smooth="yes"/>
      <point x="101" y="480" type="line" smooth="yes"/>
      <point x="80" y="480"/>
      <point x="71" y="470"/>
      <point x="71" y="450" type="curve" smooth="yes"/>
      <point x="71" y="30" type="line" smooth="yes"/>
      <point x="71" y="10"/>
      <point x="80" y="0"/>
      <point x="101" y="0" type="curve" smooth="yes"/>
    </contour>
    <contour>
      <point x="121" y="555" type="line" smooth="yes"/>
      <point x="139" y="555"/>
      <point x="146" y="559"/>
      <point x="152" y="572" type="curve" smooth="yes"/>
      <point x="218" y="708" type="line" smooth="yes"/>
      <point x="226" y="724"/>
      <point x="220" y="732"/>
      <point x="203" y="732" type="curve" smooth="yes"/>
      <point x="152" y="732" type="line" smooth="yes"/>
      <point x="133" y="732"/>
      <point x="128" y="727"/>
      <point x="123" y="713" type="curve" smooth="yes"/>
      <point x="74" y="577" type="line" smooth="yes"/>
      <point x="69" y="564"/>
      <point x="72" y="555"/>
      <point x="87" y="555" type="curve" smooth="yes"/>
    </contour>
  </outline>
</glyph>
<glyph name="icircumflex" format="1">
  <advance width="222"/>
  <unicode hex="00EE"/>
  <note>
	icircumflex
  </note>
  <outline>
    <contour>
      <point x="1" y="536" type="line" smooth="yes"/>
      <point x="21" y="536"/>
      <point x="26" y="543"/>
      <point x="34" y="555" type="curve" smooth="yes"/>
      <point x="110" y="666" type="line"/>
      <point x="186" y="555" type="line" smooth="yes"/>
      <point x="194" y="543"/>
      <point x="199" y="536"/>
      <point x="219" y="536" type="curve" smooth="yes"/>
      <point x="252" y="536" type="line" smooth="yes"/>
      <point x="267" y="536"/>
      <point x="276" y="547"/>
      <point x="266" y="561" type="curve" smooth="yes"/>
      <point x="158" y="710" type="line" smooth="yes"/>
      <point x="148" y="723"/>
      <point x="145" y="729"/>
      <point x="127" y="729" type="curve" smooth="yes"/>
      <point x="93" y="729" type="line" smooth="yes"/>
      <point x="75" y="729"/>
      <point x="72" y="723"/>
      <point x="62" y="710" type="curve" smooth="yes"/>
      <point x="-46" y="561" type="line" smooth="yes"/>
      <point x="-56" y="547"/>
      <point x="-47" y="536"/>
      <point x="-32" y="536" type="curve" smooth="yes"/>
    </contour>
    <contour>
      <point x="125" y="0" type="line" smooth="yes"/>
      <point x="147" y="0"/>
      <point x="155" y="10"/>
      <point x="155" y="30" type="curve" smooth="yes"/>
      <point x="155" y="450" type="line" smooth="yes"/>
      <point x="155" y="470"/>
      <point x="147" y="480"/>
      <point x="125" y="480" type="curve" smooth="yes"/>
      <point x="94" y="480" type="line" smooth="yes"/>
      <point x="73" y="480"/>
      <point x="64" y="470"/>
      <point x="64" y="450" type="curve" smooth="yes"/>
      <point x="64" y="30" type="line" smooth="yes"/>
      <point x="64" y="10"/>
      <point x="73" y="0"/>
      <point x="94" y="0" type="curve" smooth="yes"/>
    </contour>
  </outline>
</glyph>
<glyph name="idieresis" format="1">
  <advance width="214"/>
  <unicode hex="00EF"/>
  <note>
	idieresis
  </note>
  <outline>
    <contour>
      <point x="123" y="0" type="line" smooth="yes"/>
      <point x="145" y="0"/>
      <point x="153" y="10"/>
      <point x="153" y="30" type="curve" smooth="yes"/>
      <point x="153" y="450" type="line" smooth="yes"/>
      <point x="153" y="470"/>
      <point x="145" y="480"/>
      <point x="123" y="480" type="curve" smooth="yes"/>
      <point x="92" y="480" type="line" smooth="yes"/>
      <point x="71" y="480"/>
      <point x="62" y="470"/>
      <point x="62" y="450" type="curve" smooth="yes"/>
      <point x="62" y="30" type="line" smooth="yes"/>
      <point x="62" y="10"/>
      <point x="71" y="0"/>
      <point x="92" y="0" type="curve" smooth="yes"/>
    </contour>
    <contour>
      <point x="21" y="538" type="line" smooth="yes"/>
      <point x="45" y="538"/>
      <point x="61" y="557"/>
      <point x="61" y="580" type="curve" smooth="yes"/>
      <point x="61" y="596" type="line" smooth="yes"/>
      <point x="61" y="619"/>
      <point x="44" y="638"/>
      <point x="21" y="638" type="curve" smooth="yes"/>
      <point x="4" y="638" type="line" smooth="yes"/>
      <point x="-20" y="638"/>
      <point x="-36" y="619"/>
      <point x="-36" y="596" type="curve" smooth="yes"/>
      <point x="-36" y="580" type="line" smooth="yes"/>
      <point x="-36" y="557"/>
      <point x="-20" y="538"/>
      <point x="4" y="538" type="curve" smooth="yes"/>
    </contour>
    <contour>
      <point x="209" y="538" type="line" smooth="yes"/>
      <point x="234" y="538"/>
      <point x="249" y="557"/>
      <point x="249" y="580" type="curve" smooth="yes"/>
      <point x="249" y="596" type="line" smooth="yes"/>
      <point x="249" y="619"/>
      <point x="233" y="638"/>
      <point x="209" y="638" type="curve" smooth="yes"/>
      <point x="192" y="638" type="line" smooth="yes"/>
      <point x="169" y="638"/>
      <point x="152" y="619"/>
      <point x="152" y="596" type="curve" smooth="yes"/>
      <point x="152" y="580" type="line" smooth="yes"/>
      <point x="152" y="557"/>
      <point x="169" y="538"/>
      <point x="192" y="538" type="curve" smooth="yes"/>
    </contour>
  </outline>
</glyph>
<glyph name="eth" format="1">
  <advance width="677"/>
  <unicode hex="00F0"/>
  <note>
	eth
  </note>
  <outline>
    <contour>
      <point x="413" y="-15"/>
      <point x="552" y="63"/>
      <point x="601" y="293" type="curve" smooth="yes"/>
      <point x="668" y="606"/>
      <point x="532" y="695"/>
      <point x="390" y="695" type="curve" smooth="yes"/>
      <point x="318" y="695"/>
      <point x="260" y="680"/>
      <point x="215" y="654" type="curve" smooth="yes"/>
      <point x="205" y="648"/>
      <point x="202" y="643"/>
      <point x="206" y="633" type="curve" smooth="yes"/>
      <point x="221" y="597" type="line" smooth="yes"/>
      <point x="225" y="587"/>
      <point x="229" y="588"/>
      <point x="239" y="593" type="curve" smooth="yes"/>
      <point x="281" y="615"/>
      <point x="319" y="626"/>
      <point x="373" y="626" type="curve" smooth="yes"/>
      <point x="511" y="626"/>
      <point x="555" y="540"/>
      <point x="534" y="386" type="curve"/>
      <point x="493" y="446"/>
      <point x="443" y="475"/>
      <point x="346" y="475" type="curve" smooth="yes"/>
      <point x="161" y="475"/>
      <point x="47" y="362"/>
      <point x="47" y="178" type="curve" smooth="yes"/>
      <point x="47" y="54"/>
      <point x="124" y="-15"/>
      <point x="266" y="-15" type="curve" smooth="yes"/>
    </contour>
    <contour>
      <point x="190" y="55"/>
      <point x="137" y="94"/>
      <point x="137" y="180" type="curve" smooth="yes"/>
      <point x="137" y="336"/>
      <point x="218" y="411"/>
      <point x="352" y="411" type="curve" smooth="yes"/>
      <point x="434" y="411"/>
      <point x="524" y="360"/>
      <point x="502" y="256" type="curve" smooth="yes"/>
      <point x="474" y="125"/>
      <point x="382" y="55"/>
      <point x="281" y="55" type="curve" smooth="yes"/>
    </contour>
    <contour>
      <point x="449" y="511" type="line" smooth="yes"/>
      <point x="457" y="511"/>
      <point x="460" y="515"/>
      <point x="464" y="521" type="curve" smooth="yes"/>
      <point x="612" y="729" type="line" smooth="yes"/>
      <point x="616" y="735"/>
      <point x="615" y="742"/>
      <point x="605" y="742" type="curve" smooth="yes"/>
      <point x="557" y="742" type="line" smooth="yes"/>
      <point x="549" y="742"/>
      <point x="546" y="738"/>
      <point x="542" y="732" type="curve" smooth="yes"/>
      <point x="394" y="524" type="line" smooth="yes"/>
      <point x="390" y="518"/>
      <point x="391" y="511"/>
      <point x="401" y="511" type="curve" smooth="yes"/>
    </contour>
  </outline>
</glyph>
<glyph name="oacute" format="1">
  <advance width="620"/>
  <unicode hex="00F3"/>
  <note>
	oacute
  </note>
  <outline>
    <contour>
      <point x="481" y="-15"/>
      <point x="573" y="86"/>
      <point x="573" y="240" type="curve" smooth="yes"/>
      <point x="573" y="394"/>
      <point x="481" y="495"/>
      <point x="310" y="495" type="curve" smooth="yes"/>
      <point x="138" y="495"/>
      <point x="47" y="394"/>
      <point x="47" y="240" type="curve" smooth="yes"/>
      <point x="47" y="86"/>
      <point x="138" y="-15"/>
      <point x="310" y="-15" type="curve" smooth="yes"/>
    </contour>
    <contour>
      <point x="197" y="55"/>
      <point x="136" y="121"/>
      <point x="136" y="240" type="curve" smooth="yes"/>
      <point x="136" y="359"/>
      <point x="197" y="424"/>
      <point x="310" y="424" type="curve" smooth="yes"/>
      <point x="423" y="424"/>
      <point x="483" y="359"/>
      <point x="483" y="240" type="curve" smooth="yes"/>
      <point x="483" y="121"/>
      <point x="423" y="55"/>
      <point x="310" y="55" type="curve" smooth="yes"/>
    </contour>
    <contour>
      <point x="307" y="535" type="line" smooth="yes"/>
      <point x="325" y="535"/>
      <point x="332" y="539"/>
      <point x="338" y="552" type="curve" smooth="yes"/>
      <point x="404" y="688" type="line" smooth="yes"/>
      <point x="412" y="704"/>
      <point x="406" y="712"/>
      <point x="389" y="712" type="curve" smooth="yes"/>
      <point x="338" y="712" type="line" smooth="yes"/>
      <point x="319" y="712"/>
      <point x="314" y="707"/>
      <point x="309" y="693" type="curve" smooth="yes"/>
      <point x="260" y="557" type="line" smooth="yes"/>
      <point x="255" y="544"/>
      <point x="258" y="535"/>
      <point x="273" y="535" type="curve" smooth="yes"/>
    </contour>
  </outline>
</glyph>
<glyph name="otilde" format="1">
  <advance width="620"/>
  <unicode hex="00F5"/>
  <note>
	otilde
  </note>
  <outline>
    <contour>
      <point x="481" y="-15"/>
      <point x="573" y="86"/>
      <point x="573" y="240" type="curve" smooth="yes"/>
      <point x="573" y="394"/>
      <point x="481" y="495"/>
      <point x="310" y="495" type="curve" smooth="yes"/>
      <point x="138" y="495"/>
      <point x="47" y="394"/>
      <point x="47" y="240" type="curve" smooth="yes"/>
      <point x="47" y="86"/>
      <point x="138" y="-15"/>
      <point x="310" y="-15" type="curve" smooth="yes"/>
    </contour>
    <contour>
      <point x="197" y="55"/>
      <point x="136" y="121"/>
      <point x="136" y="240" type="curve" smooth="yes"/>
      <point x="136" y="359"/>
      <point x="197" y="424"/>
      <point x="310" y="424" type="curve" smooth="yes"/>
      <point x="423" y="424"/>
      <point x="483" y="359"/>
      <point x="483" y="240" type="curve" smooth="yes"/>
      <point x="483" y="121"/>
      <point x="423" y="55"/>
      <point x="310" y="55" type="curve" smooth="yes"/>
    </contour>
    <contour>
      <point x="451" y="547"/>
      <point x="481" y="568"/>
      <point x="510" y="611" type="curve" smooth="yes"/>
      <point x="522" y="629"/>
      <point x="521" y="640"/>
      <point x="501" y="656" type="curve" smooth="yes"/>
      <point x="482" y="672"/>
      <point x="469" y="672"/>
      <point x="458" y="657" type="curve" smooth="yes"/>
      <point x="436" y="628"/>
      <point x="421" y="619"/>
      <point x="393" y="619" type="curve" smooth="yes"/>
      <point x="331" y="619"/>
      <point x="288" y="672"/>
      <point x="206" y="672" type="curve" smooth="yes"/>
      <point x="159" y="672"/>
      <point x="130" y="645"/>
      <point x="107" y="618" type="curve" smooth="yes"/>
      <point x="94" y="603"/>
      <point x="94" y="590"/>
      <point x="108" y="576" type="curve" smooth="yes"/>
      <point x="126" y="558"/>
      <point x="140" y="556"/>
      <point x="151" y="569" type="curve"/>
      <point x="171" y="591"/>
      <point x="181" y="601"/>
      <point x="210" y="601" type="curve" smooth="yes"/>
      <point x="265" y="601"/>
      <point x="324" y="547"/>
      <point x="393" y="547" type="curve" smooth="yes"/>
    </contour>
  </outline>
</glyph>
<glyph name="odieresis" format="1">
  <advance width="620"/>
  <unicode hex="00F6"/>
  <note>
	odieresis
  </note>
  <outline>
    <contour>
      <point x="481" y="-15"/>
      <point x="573" y="86"/>
      <point x="573" y="240" type="curve" smooth="yes"/>
      <point x="573" y="394"/>
      <point x="481" y="495"/>
      <point x="310" y="495" type="curve" smooth="yes"/>
      <point x="138" y="495"/>
      <point x="47" y="394"/>
      <point x="47" y="240" type="curve" smooth="yes"/>
      <point x="47" y="86"/>
      <point x="138" y="-15"/>
      <point x="310" y="-15" type="curve" smooth="yes"/>
    </contour>
    <contour>
      <point x="197" y="55"/>
      <point x="136" y="121"/>
      <point x="136" y="240" type="curve" smooth="yes"/>
      <point x="136" y="359"/>
      <point x="197" y="424"/>
      <point x="310" y="424" type="curve" smooth="yes"/>
      <point x="423" y="424"/>
      <point x="483" y="359"/>
      <point x="483" y="240" type="curve" smooth="yes"/>
      <point x="483" y="121"/>
      <point x="423" y="55"/>
      <point x="310" y="55" type="curve" smooth="yes"/>
    </contour>
    <contour>
      <point x="224" y="552" type="line" smooth="yes"/>
      <point x="248" y="552"/>
      <point x="264" y="571"/>
      <point x="264" y="594" type="curve" smooth="yes"/>
      <point x="264" y="610" type="line" smooth="yes"/>
      <point x="264" y="633"/>
      <point x="247" y="652"/>
      <point x="224" y="652" type="curve" smooth="yes"/>
      <point x="207" y="652" type="line" smooth="yes"/>
      <point x="183" y="652"/>
      <point x="167" y="633"/>
      <point x="167" y="610" type="curve" smooth="yes"/>
      <point x="167" y="594" type="line" smooth="yes"/>
      <point x="167" y="571"/>
      <point x="183" y="552"/>
      <point x="207" y="552" type="curve" smooth="yes"/>
    </contour>
    <contour>
      <point x="412" y="552" type="line" smooth="yes"/>
      <point x="437" y="552"/>
      <point x="452" y="571"/>
      <point x="452" y="594" type="curve" smooth="yes"/>
      <point x="452" y="610" type="line" smooth="yes"/>
      <point x="452" y="633"/>
      <point x="436" y="652"/>
      <point x="412" y="652" type="curve" smooth="yes"/>
      <point x="395" y="652" type="line" smooth="yes"/>
      <point x="372" y="652"/>
      <point x="355" y="633"/>
      <point x="355" y="610" type="curve" smooth="yes"/>
      <point x="355" y="594" type="line" smooth="yes"/>
      <point x="355" y="571"/>
      <point x="372" y="552"/>
      <point x="395" y="552" type="curve" smooth="yes"/>
    </contour>
  </outline>
</glyph>
<glyph name="oslash" format="1">
  <advance width="620"/>
  <unicode hex="00F8"/>
  <note>
	oslash
  </note>
  <outline>
    <contour>
      <point x="481" y="-15"/>
      <point x="573" y="86"/>
      <point x="573" y="240" type="curve" smooth="yes"/>
      <point x="573" y="394"/>
      <point x="481" y="495"/>
      <point x="310" y="495" type="curve" smooth="yes"/>
      <point x="138" y="495"/>
      <point x="47" y="394"/>
      <point x="47" y="240" type="curve" smooth="yes"/>
      <point x="47" y="86"/>
      <point x="138" y="-15"/>
      <point x="310" y="-15" type="curve" smooth="yes"/>
    </contour>
    <contour>
      <point x="197" y="55"/>
      <point x="136" y="121"/>
      <point x="136" y="240" type="curve" smooth="yes"/>
      <point x="136" y="359"/>
      <point x="197" y="424"/>
      <point x="310" y="424" type="curve" smooth="yes"/>
      <point x="423" y="424"/>
      <point x="483" y="359"/>
      <point x="483" y="240" type="curve" smooth="yes"/>
      <point x="483" y="121"/>
      <point x="423" y="55"/>
      <point x="310" y="55" type="curve" smooth="yes"/>
    </contour>
    <contour>
      <point x="206" y="-86" type="line" smooth="yes"/>
      <point x="217" y="-86"/>
      <point x="223" y="-81"/>
      <point x="226" y="-73" type="curve" smooth="yes"/>
      <point x="483" y="554" type="line" smooth="yes"/>
      <point x="487" y="564"/>
      <point x="486" y="573"/>
      <point x="474" y="573" type="curve" smooth="yes"/>
      <point x="410" y="573" type="line" smooth="yes"/>
      <point x="400" y="573"/>
      <point x="394" y="568"/>
      <point x="391" y="560" type="curve" smooth="yes"/>
      <point x="134" y="-67" type="line" smooth="yes"/>
      <point x="130" y="-77"/>
      <point x="130" y="-86"/>
      <point x="143" y="-86" type="curve" smooth="yes"/>
    </contour>
  </outline>
</glyph>
<glyph name="uacute" format="1">
  <advance width="584"/>
  <unicode hex="00FA"/>
  <note>
	uacute
  </note>
  <outline>
    <contour>
      <point x="339" y="-15"/>
      <point x="396" y="18"/>
      <point x="439" y="69" type="curve"/>
      <point x="442" y="21" type="line" smooth="yes"/>
      <point x="443" y="7"/>
      <point x="447" y="0"/>
      <point x="462" y="0" type="curve" smooth="yes"/>
      <point x="495" y="0" type="line" smooth="yes"/>
      <point x="514" y="0"/>
      <point x="517" y="8"/>
      <point x="517" y="25" type="curve" smooth="yes"/>
      <point x="517" y="450" type="line" smooth="yes"/>
      <point x="517" y="470"/>
      <point x="509" y="480"/>
      <point x="487" y="480" type="curve" smooth="yes"/>
      <point x="457" y="480" type="line" smooth="yes"/>
      <point x="435" y="480"/>
      <point x="426" y="470"/>
      <point x="426" y="450" type="curve" smooth="yes"/>
      <point x="426" y="179" type="line" smooth="yes"/>
      <point x="426" y="104"/>
      <point x="357" y="54"/>
      <point x="274" y="54" type="curve" smooth="yes"/>
      <point x="197" y="54"/>
      <point x="153" y="85"/>
      <point x="153" y="165" type="curve" smooth="yes"/>
      <point x="153" y="450" type="line" smooth="yes"/>
      <point x="153" y="470"/>
      <point x="145" y="480"/>
      <point x="123" y="480" type="curve" smooth="yes"/>
      <point x="92" y="480" type="line" smooth="yes"/>
      <point x="71" y="480"/>
      <point x="62" y="470"/>
      <point x="62" y="450" type="curve" smooth="yes"/>
      <point x="62" y="164" type="line" smooth="yes"/>
      <point x="62" y="43"/>
      <point x="140" y="-15"/>
      <point x="245" y="-15" type="curve" smooth="yes"/>
    </contour>
    <contour>
      <point x="291" y="535" type="line" smooth="yes"/>
      <point x="309" y="535"/>
      <point x="316" y="539"/>
      <point x="322" y="552" type="curve" smooth="yes"/>
      <point x="388" y="688" type="line" smooth="yes"/>
      <point x="396" y="704"/>
      <point x="390" y="712"/>
      <point x="373" y="712" type="curve" smooth="yes"/>
      <point x="322" y="712" type="line" smooth="yes"/>
      <point x="303" y="712"/>
      <point x="298" y="707"/>
      <point x="293" y="693" type="curve" smooth="yes"/>
      <point x="244" y="557" type="line" smooth="yes"/>
      <point x="239" y="544"/>
      <point x="242" y="535"/>
      <point x="257" y="535" type="curve" smooth="yes"/>
    </contour>
  </outline>
</glyph>
<glyph name="udieresis" format="1">
  <advance width="584"/>
  <unicode hex="00FC"/>
  <note>
	udieresis
  </note>
  <outline>
    <contour>
      <point x="339" y="-15"/>
      <point x="396" y="18"/>
      <point x="439" y="69" type="curve"/>
      <point x="442" y="21" type="line" smooth="yes"/>
      <point x="443" y="7"/>
      <point x="447" y="0"/>
      <point x="462" y="0" type="curve" smooth="yes"/>
      <point x="495" y="0" type="line" smooth="yes"/>
      <point x="514" y="0"/>
      <point x="517" y="8"/>
      <point x="517" y="25" type="curve" smooth="yes"/>
      <point x="517" y="450" type="line" smooth="yes"/>
      <point x="517" y="470"/>
      <point x="509" y="480"/>
      <point x="487" y="480" type="curve" smooth="yes"/>
      <point x="457" y="480" type="line" smooth="yes"/>
      <point x="435" y="480"/>
      <point x="426" y="470"/>
      <point x="426" y="450" type="curve" smooth="yes"/>
      <point x="426" y="179" type="line" smooth="yes"/>
      <point x="426" y="104"/>
      <point x="357" y="54"/>
      <point x="274" y="54" type="curve" smooth="yes"/>
      <point x="197" y="54"/>
      <point x="153" y="85"/>
      <point x="153" y="165" type="curve" smooth="yes"/>
      <point x="153" y="450" type="line" smooth="yes"/>
      <point x="153" y="470"/>
      <point x="145" y="480"/>
      <point x="123" y="480" type="curve" smooth="yes"/>
      <point x="92" y="480" type="line" smooth="yes"/>
      <point x="71" y="480"/>
      <point x="62" y="470"/>
      <point x="62" y="450" type="curve" smooth="yes"/>
      <point x="62" y="164" type="line" smooth="yes"/>
      <point x="62" y="43"/>
      <point x="140" y="-15"/>
      <point x="245" y="-15" type="curve" smooth="yes"/>
    </contour>
    <contour>
      <point x="202" y="538" type="line" smooth="yes"/>
      <point x="226" y="538"/>
      <point x="242" y="557"/>
      <point x="242" y="580" type="curve" smooth="yes"/>
      <point x="242" y="596" type="line" smooth="yes"/>
      <point x="242" y="619"/>
      <point x="225" y="638"/>
      <point x="202" y="638" type="curve" smooth="yes"/>
      <point x="185" y="638" type="line" smooth="yes"/>
      <point x="161" y="638"/>
      <point x="145" y="619"/>
      <point x="145" y="596" type="curve" smooth="yes"/>
      <point x="145" y="580" type="line" smooth="yes"/>
      <point x="145" y="557"/>
      <point x="161" y="538"/>
      <point x="185" y="538" type="curve" smooth="yes"/>
    </contour>
    <contour>
      <point x="390" y="538" type="line" smooth="yes"/>
      <point x="415" y="538"/>
      <point x="430" y="557"/>
      <point x="430" y="580" type="curve" smooth="yes"/>
      <point x="430" y="596" type="line" smooth="yes"/>
      <point x="430" y="619"/>
      <point x="414" y="638"/>
      <point x="390" y="638" type="curve" smooth="yes"/>
      <point x="373" y="638" type="line" smooth="yes"/>
      <point x="350" y="638"/>
      <point x="333" y="619"/>
      <point x="333" y="596" type="curve" smooth="yes"/>
      <point x="333" y="580" type="line" smooth="yes"/>
      <point x="333" y="557"/>
      <point x="350" y="538"/>
      <point x="373" y="538" type="curve" smooth="yes"/>
    </contour>
  </outline>
</glyph>
<glyph name="Amacron" format="1">
  <advance width="727"/>
  <unicode hex="0100"/>
  <note>
	Amacron
  </note>
  <outline>
    <contour>
      <point x="116" y="0" type="line" smooth="yes"/>
      <point x="133" y="0"/>
      <point x="136" y="3"/>
      <point x="141" y="15" type="curve" smooth="yes"/>
      <point x="209" y="178" type="line"/>
      <point x="518" y="178" type="line"/>
      <point x="586" y="15" type="line" smooth="yes"/>
      <point x="591" y="3"/>
      <point x="594" y="0"/>
      <point x="611" y="0" type="curve" smooth="yes"/>
      <point x="664" y="0" type="line" smooth="yes"/>
      <point x="678" y="0"/>
      <point x="682" y="10"/>
      <point x="677" y="23" type="curve" smooth="yes"/>
      <point x="408" y="659" type="line" smooth="yes"/>
      <point x="401" y="675"/>
      <point x="397" y="680"/>
      <point x="382" y="680" type="curve" smooth="yes"/>
      <point x="345" y="680" type="line" smooth="yes"/>
      <point x="330" y="680"/>
      <point x="326" y="675"/>
      <point x="319" y="659" type="curve" smooth="yes"/>
      <point x="50" y="23" type="line" smooth="yes"/>
      <point x="45" y="10"/>
      <point x="49" y="0"/>
      <point x="63" y="0" type="curve" smooth="yes"/>
    </contour>
    <contour>
      <point x="363" y="557" type="line"/>
      <point x="491" y="249" type="line"/>
      <point x="235" y="249" type="line"/>
    </contour>
    <contour>
      <point x="502" y="789" type="line" smooth="yes"/>
      <point x="523" y="789"/>
      <point x="531" y="796"/>
      <point x="531" y="817" type="curve" smooth="yes"/>
      <point x="531" y="833" type="line" smooth="yes"/>
      <point x="531" y="854"/>
      <point x="523" y="862"/>
      <point x="502" y="862" type="curve" smooth="yes"/>
      <point x="226" y="862" type="line" smooth="yes"/>
      <point x="205" y="862"/>
      <point x="197" y="854"/>
      <point x="197" y="833" type="curve" smooth="yes"/>
      <point x="197" y="817" type="line" smooth="yes"/>
      <point x="197" y="796"/>
      <point x="205" y="789"/>
      <point x="226" y="789" type="curve" smooth="yes"/>
    </contour>
  </outline>
</glyph>
<glyph name="abreve" format="1">
  <advance width="614"/>
  <unicode hex="0103"/>
  <note>
	abreve
  </note>
  <outline>
    <contour>
      <point x="354" y="-15"/>
      <point x="418" y="7"/>
      <point x="462" y="65" type="curve"/>
      <point x="467" y="21" type="line" smooth="yes"/>
      <point x="469" y="7"/>
      <point x="474" y="0"/>
      <point x="490" y="0" type="curve" smooth="yes"/>
      <point x="521" y="0" type="line" smooth="yes"/>
      <point x="540" y="0"/>
      <point x="547" y="8"/>
      <point x="547" y="25" type="curve" smooth="yes"/>
      <point x="547" y="437" type="line"/>
      <point x="503" y="468"/>
      <point x="431" y="495"/>
      <point x="342" y="495" type="curve" smooth="yes"/>
      <point x="159" y="495"/>
      <point x="47" y="381"/>
      <point x="47" y="210" type="curve" smooth="yes"/>
      <point x="47" y="64"/>
      <point x="134" y="-15"/>
      <point x="265" y="-15" type="curve" smooth="yes"/>
    </contour>
    <contour>
      <point x="190" y="54"/>
      <point x="136" y="104"/>
      <point x="136" y="215" type="curve" smooth="yes"/>
      <point x="136" y="349"/>
      <point x="219" y="427"/>
      <point x="340" y="427" type="curve" smooth="yes"/>
      <point x="385" y="427"/>
      <point x="427" y="418"/>
      <point x="459" y="402" type="curve"/>
      <point x="459" y="187" type="line" smooth="yes"/>
      <point x="459" y="103"/>
      <point x="377" y="54"/>
      <point x="299" y="54" type="curve" smooth="yes"/>
    </contour>
    <contour>
      <point x="442" y="550"/>
      <point x="491" y="616"/>
      <point x="491" y="708" type="curve" smooth="yes"/>
      <point x="491" y="719"/>
      <point x="485" y="726"/>
      <point x="475" y="726" type="curve" smooth="yes"/>
      <point x="430" y="726" type="line" smooth="yes"/>
      <point x="416" y="726"/>
      <point x="413" y="719"/>
      <point x="413" y="707" type="curve" smooth="yes"/>
      <point x="413" y="657"/>
      <point x="399" y="619"/>
      <point x="338" y="619" type="curve" smooth="yes"/>
      <point x="277" y="619"/>
      <point x="263" y="657"/>
      <point x="263" y="707" type="curve" smooth="yes"/>
      <point x="263" y="719"/>
      <point x="260" y="726"/>
      <point x="246" y="726" type="curve" smooth="yes"/>
      <point x="201" y="726" type="line" smooth="yes"/>
      <point x="191" y="726"/>
      <point x="185" y="719"/>
      <point x="185" y="708" type="curve" smooth="yes"/>
      <point x="185" y="616"/>
      <point x="233" y="550"/>
      <point x="338" y="550" type="curve" smooth="yes"/>
    </contour>
  </outline>
</glyph>
<glyph name="Aogonek" format="1">
  <advance width="727"/>
  <unicode hex="0104"/>
  <note>
	Aogonek
  </note>
  <outline>
    <contour>
      <point x="116" y="0" type="line" smooth="yes"/>
      <point x="133" y="0"/>
      <point x="136" y="3"/>
      <point x="141" y="15" type="curve" smooth="yes"/>
      <point x="209" y="178" type="line"/>
      <point x="518" y="178" type="line"/>
      <point x="586" y="15" type="line" smooth="yes"/>
      <point x="591" y="3"/>
      <point x="594" y="0"/>
      <point x="611" y="0" type="curve" smooth="yes"/>
      <point x="664" y="0" type="line" smooth="yes"/>
      <point x="678" y="0"/>
      <point x="682" y="10"/>
      <point x="677" y="23" type="curve" smooth="yes"/>
      <point x="408" y="659" type="line" smooth="yes"/>
      <point x="401" y="675"/>
      <point x="397" y="680"/>
      <point x="382" y="680" type="curve" smooth="yes"/>
      <point x="345" y="680" type="line" smooth="yes"/>
      <point x="330" y="680"/>
      <point x="326" y="675"/>
      <point x="319" y="659" type="curve" smooth="yes"/>
      <point x="50" y="23" type="line" smooth="yes"/>
      <point x="45" y="10"/>
      <point x="49" y="0"/>
      <point x="63" y="0" type="curve" smooth="yes"/>
    </contour>
    <contour>
      <point x="624" y="-202"/>
      <point x="645" y="-200"/>
      <point x="660" y="-192" type="curve" smooth="yes"/>
      <point x="672" y="-186"/>
      <point x="673" y="-182"/>
      <point x="670" y="-175" type="curve"/>
      <point x="657" y="-148" type="line" smooth="yes"/>
      <point x="653" y="-139"/>
      <point x="650" y="-140"/>
      <point x="643" y="-143" type="curve"/>
      <point x="637" y="-146"/>
      <point x="630" y="-147"/>
      <point x="621" y="-147" type="curve" smooth="yes"/>
      <point x="605" y="-147"/>
      <point x="597" y="-138"/>
      <point x="597" y="-120" type="curve" smooth="yes"/>
      <point x="597" y="-91"/>
      <point x="609" y="-66"/>
      <point x="655" y="-10" type="curve" smooth="yes"/>
      <point x="662" y="-2"/>
      <point x="657" y="6"/>
      <point x="645" y="6" type="curve" smooth="yes"/>
      <point x="605" y="6" type="line" smooth="yes"/>
      <point x="592" y="6"/>
      <point x="588" y="2"/>
      <point x="580" y="-7" type="curve" smooth="yes"/>
      <point x="536" y="-57"/>
      <point x="519" y="-94"/>
      <point x="519" y="-130" type="curve" smooth="yes"/>
      <point x="519" y="-169"/>
      <point x="545" y="-202"/>
      <point x="599" y="-202" type="curve" smooth="yes"/>
    </contour>
    <contour>
      <point x="363" y="557" type="line"/>
      <point x="491" y="249" type="line"/>
      <point x="235" y="249" type="line"/>
    </contour>
  </outline>
</glyph>
<glyph name="aogonek" format="1">
  <advance width="616"/>
  <unicode hex="0105"/>
  <note>
	aogonek
  </note>
  <outline>
    <contour>
      <point x="354" y="-15"/>
      <point x="418" y="7"/>
      <point x="462" y="65" type="curve"/>
      <point x="467" y="21" type="line" smooth="yes"/>
      <point x="469" y="7"/>
      <point x="474" y="0"/>
      <point x="490" y="0" type="curve" smooth="yes"/>
      <point x="521" y="0" type="line" smooth="yes"/>
      <point x="540" y="0"/>
      <point x="547" y="8"/>
      <point x="547" y="25" type="curve" smooth="yes"/>
      <point x="547" y="437" type="line"/>
      <point x="503" y="468"/>
      <point x="431" y="495"/>
      <point x="342" y="495" type="curve" smooth="yes"/>
      <point x="159" y="495"/>
      <point x="47" y="381"/>
      <point x="47" y="210" type="curve" smooth="yes"/>
      <point x="47" y="64"/>
      <point x="134" y="-15"/>
      <point x="265" y="-15" type="curve" smooth="yes"/>
    </contour>
    <contour>
      <point x="502" y="-194"/>
      <point x="523" y="-192"/>
      <point x="538" y="-184" type="curve" smooth="yes"/>
      <point x="550" y="-178"/>
      <point x="551" y="-174"/>
      <point x="548" y="-167" type="curve"/>
      <point x="535" y="-140" type="line" smooth="yes"/>
      <point x="531" y="-131"/>
      <point x="528" y="-132"/>
      <point x="521" y="-135" type="curve"/>
      <point x="515" y="-138"/>
      <point x="508" y="-139"/>
      <point x="499" y="-139" type="curve" smooth="yes"/>
      <point x="483" y="-139"/>
      <point x="475" y="-130"/>
      <point x="475" y="-112" type="curve" smooth="yes"/>
      <point x="475" y="-83"/>
      <point x="487" y="-58"/>
      <point x="533" y="-2" type="curve" smooth="yes"/>
      <point x="540" y="6"/>
      <point x="535" y="14"/>
      <point x="523" y="14" type="curve" smooth="yes"/>
      <point x="483" y="14" type="line" smooth="yes"/>
      <point x="470" y="14"/>
      <point x="466" y="10"/>
      <point x="458" y="1" type="curve" smooth="yes"/>
      <point x="414" y="-49"/>
      <point x="397" y="-86"/>
      <point x="397" y="-122" type="curve" smooth="yes"/>
      <point x="397" y="-161"/>
      <point x="423" y="-194"/>
      <point x="477" y="-194" type="curve" smooth="yes"/>
    </contour>
    <contour>
      <point x="190" y="54"/>
      <point x="136" y="104"/>
      <point x="136" y="215" type="curve" smooth="yes"/>
      <point x="136" y="349"/>
      <point x="219" y="427"/>
      <point x="340" y="427" type="curve" smooth="yes"/>
      <point x="385" y="427"/>
      <point x="427" y="418"/>
      <point x="459" y="402" type="curve"/>
      <point x="459" y="187" type="line" smooth="yes"/>
      <point x="459" y="103"/>
      <point x="377" y="54"/>
      <point x="299" y="54" type="curve" smooth="yes"/>
    </contour>
  </outline>
</glyph>
<glyph name="Cacute" format="1">
  <advance width="676"/>
  <unicode hex="0106"/>
  <note>
	Cacute
  </note>
  <outline>
    <contour>
      <point x="492" y="-15"/>
      <point x="566" y="1"/>
      <point x="620" y="37" type="curve" smooth="yes"/>
      <point x="630" y="44"/>
      <point x="632" y="47"/>
      <point x="627" y="56" type="curve" smooth="yes"/>
      <point x="605" y="94" type="line" smooth="yes"/>
      <point x="600" y="103"/>
      <point x="595" y="103"/>
      <point x="585" y="97" type="curve" smooth="yes"/>
      <point x="539" y="69"/>
      <point x="483" y="55"/>
      <point x="402" y="55" type="curve" smooth="yes"/>
      <point x="249" y="55"/>
      <point x="136" y="136"/>
      <point x="136" y="340" type="curve" smooth="yes"/>
      <point x="136" y="539"/>
      <point x="243" y="625"/>
      <point x="400" y="625" type="curve" smooth="yes"/>
      <point x="476" y="625"/>
      <point x="535" y="607"/>
      <point x="572" y="584" type="curve" smooth="yes"/>
      <point x="582" y="578"/>
      <point x="585" y="578"/>
      <point x="591" y="588" type="curve" smooth="yes"/>
      <point x="612" y="623" type="line" smooth="yes"/>
      <point x="618" y="633"/>
      <point x="616" y="638"/>
      <point x="607" y="644" type="curve" smooth="yes"/>
      <point x="555" y="678"/>
      <point x="476" y="695"/>
      <point x="393" y="695" type="curve" smooth="yes"/>
      <point x="171" y="695"/>
      <point x="47" y="565"/>
      <point x="47" y="340" type="curve" smooth="yes"/>
      <point x="47" y="115"/>
      <point x="173" y="-15"/>
      <point x="394" y="-15" type="curve" smooth="yes"/>
    </contour>
    <contour>
      <point x="386" y="759" type="line" smooth="yes"/>
      <point x="404" y="759"/>
      <point x="411" y="763"/>
      <point x="417" y="776" type="curve" smooth="yes"/>
      <point x="483" y="912" type="line" smooth="yes"/>
      <point x="491" y="928"/>
      <point x="485" y="936"/>
      <point x="468" y="936" type="curve" smooth="yes"/>
      <point x="417" y="936" type="line" smooth="yes"/>
      <point x="398" y="936"/>
      <point x="393" y="931"/>
      <point x="388" y="917" type="curve" smooth="yes"/>
      <point x="339" y="781" type="line" smooth="yes"/>
      <point x="334" y="768"/>
      <point x="337" y="759"/>
      <point x="352" y="759" type="curve" smooth="yes"/>
    </contour>
  </outline>
</glyph>
<glyph name="Ccircumflex" format="1">
  <advance width="676"/>
  <unicode hex="0108"/>
  <note>
	Ccircumflex
  </note>
  <outline>
    <contour>
      <point x="492" y="-15"/>
      <point x="566" y="1"/>
      <point x="620" y="37" type="curve" smooth="yes"/>
      <point x="630" y="44"/>
      <point x="632" y="47"/>
      <point x="627" y="56" type="curve" smooth="yes"/>
      <point x="605" y="94" type="line" smooth="yes"/>
      <point x="600" y="103"/>
      <point x="595" y="103"/>
      <point x="585" y="97" type="curve" smooth="yes"/>
      <point x="539" y="69"/>
      <point x="483" y="55"/>
      <point x="402" y="55" type="curve" smooth="yes"/>
      <point x="249" y="55"/>
      <point x="136" y="136"/>
      <point x="136" y="340" type="curve" smooth="yes"/>
      <point x="136" y="539"/>
      <point x="243" y="625"/>
      <point x="400" y="625" type="curve" smooth="yes"/>
      <point x="476" y="625"/>
      <point x="535" y="607"/>
      <point x="572" y="584" type="curve" smooth="yes"/>
      <point x="582" y="578"/>
      <point x="585" y="578"/>
      <point x="591" y="588" type="curve" smooth="yes"/>
      <point x="612" y="623" type="line" smooth="yes"/>
      <point x="618" y="633"/>
      <point x="616" y="638"/>
      <point x="607" y="644" type="curve" smooth="yes"/>
      <point x="555" y="678"/>
      <point x="476" y="695"/>
      <point x="393" y="695" type="curve" smooth="yes"/>
      <point x="171" y="695"/>
      <point x="47" y="565"/>
      <point x="47" y="340" type="curve" smooth="yes"/>
      <point x="47" y="115"/>
      <point x="173" y="-15"/>
      <point x="394" y="-15" type="curve" smooth="yes"/>
    </contour>
    <contour>
      <point x="278" y="742" type="line" smooth="yes"/>
      <point x="298" y="742"/>
      <point x="303" y="749"/>
      <point x="311" y="761" type="curve" smooth="yes"/>
      <point x="387" y="872" type="line"/>
      <point x="463" y="761" type="line" smooth="yes"/>
      <point x="471" y="749"/>
      <point x="476" y="742"/>
      <point x="496" y="742" type="curve" smooth="yes"/>
      <point x="529" y="742" type="line" smooth="yes"/>
      <point x="544" y="742"/>
      <point x="553" y="753"/>
      <point x="543" y="767" type="curve" smooth="yes"/>
      <point x="435" y="916" type="line" smooth="yes"/>
      <point x="425" y="929"/>
      <point x="422" y="935"/>
      <point x="404" y="935" type="curve" smooth="yes"/>
      <point x="370" y="935" type="line" smooth="yes"/>
      <point x="352" y="935"/>
      <point x="349" y="929"/>
      <point x="339" y="916" type="curve" smooth="yes"/>
      <point x="231" y="767" type="line" smooth="yes"/>
      <point x="221" y="753"/>
      <point x="230" y="742"/>
      <point x="245" y="742" type="curve" smooth="yes"/>
    </contour>
  </outline>
</glyph>
<glyph name="ccircumflex" format="1">
  <advance width="570"/>
  <unicode hex="0109"/>
  <note>
	ccircumflex
  </note>
  <outline>
    <contour>
      <point x="404" y="-15"/>
      <point x="461" y="2"/>
      <point x="511" y="35" type="curve" smooth="yes"/>
      <point x="521" y="42"/>
      <point x="522" y="47"/>
      <point x="516" y="56" type="curve"/>
      <point x="495" y="91" type="line" smooth="yes"/>
      <point x="489" y="101"/>
      <point x="486" y="102"/>
      <point x="476" y="95" type="curve" smooth="yes"/>
      <point x="440" y="70"/>
      <point x="398" y="54"/>
      <point x="331" y="54" type="curve" smooth="yes"/>
      <point x="203" y="54"/>
      <point x="136" y="112"/>
      <point x="136" y="238" type="curve" smooth="yes"/>
      <point x="136" y="354"/>
      <point x="203" y="427"/>
      <point x="322" y="427" type="curve" smooth="yes"/>
      <point x="386" y="427"/>
      <point x="429" y="414"/>
      <point x="469" y="386" type="curve" smooth="yes"/>
      <point x="479" y="379"/>
      <point x="482" y="380"/>
      <point x="488" y="390" type="curve" smooth="yes"/>
      <point x="508" y="424" type="line" smooth="yes"/>
      <point x="514" y="434"/>
      <point x="513" y="439"/>
      <point x="504" y="446" type="curve"/>
      <point x="453" y="482"/>
      <point x="401" y="495"/>
      <point x="320" y="495" type="curve" smooth="yes"/>
      <point x="153" y="495"/>
      <point x="47" y="390"/>
      <point x="47" y="238" type="curve" smooth="yes"/>
      <point x="47" y="73"/>
      <point x="153" y="-15"/>
      <point x="324" y="-15" type="curve" smooth="yes"/>
    </contour>
    <contour>
      <point x="210" y="540" type="line" smooth="yes"/>
      <point x="230" y="540"/>
      <point x="235" y="547"/>
      <point x="243" y="559" type="curve" smooth="yes"/>
      <point x="319" y="670" type="line"/>
      <point x="395" y="559" type="line" smooth="yes"/>
      <point x="403" y="547"/>
      <point x="408" y="540"/>
      <point x="428" y="540" type="curve" smooth="yes"/>
      <point x="461" y="540" type="line" smooth="yes"/>
      <point x="476" y="540"/>
      <point x="485" y="551"/>
      <point x="475" y="565" type="curve" smooth="yes"/>
      <point x="367" y="714" type="line" smooth="yes"/>
      <point x="357" y="727"/>
      <point x="354" y="733"/>
      <point x="336" y="733" type="curve" smooth="yes"/>
      <point x="302" y="733" type="line" smooth="yes"/>
      <point x="284" y="733"/>
      <point x="281" y="727"/>
      <point x="271" y="714" type="curve" smooth="yes"/>
      <point x="163" y="565" type="line" smooth="yes"/>
      <point x="153" y="551"/>
      <point x="162" y="540"/>
      <point x="177" y="540" type="curve" smooth="yes"/>
    </contour>
  </outline>
</glyph>
<glyph name="Cdotaccent" format="1">
  <advance width="676"/>
  <unicode hex="010A"/>
  <note>
	Cdotaccent
  </note>
  <outline>
    <contour>
      <point x="492" y="-15"/>
      <point x="566" y="1"/>
      <point x="620" y="37" type="curve" smooth="yes"/>
      <point x="630" y="44"/>
      <point x="632" y="47"/>
      <point x="627" y="56" type="curve" smooth="yes"/>
      <point x="605" y="94" type="line" smooth="yes"/>
      <point x="600" y="103"/>
      <point x="595" y="103"/>
      <point x="585" y="97" type="curve" smooth="yes"/>
      <point x="539" y="69"/>
      <point x="483" y="55"/>
      <point x="402" y="55" type="curve" smooth="yes"/>
      <point x="249" y="55"/>
      <point x="136" y="136"/>
      <point x="136" y="340" type="curve" smooth="yes"/>
      <point x="136" y="539"/>
      <point x="243" y="625"/>
      <point x="400" y="625" type="curve" smooth="yes"/>
      <point x="476" y="625"/>
      <point x="535" y="607"/>
      <point x="572" y="584" type="curve" smooth="yes"/>
      <point x="582" y="578"/>
      <point x="585" y="578"/>
      <point x="591" y="588" type="curve" smooth="yes"/>
      <point x="612" y="623" type="line" smooth="yes"/>
      <point x="618" y="633"/>
      <point x="616" y="638"/>
      <point x="607" y="644" type="curve" smooth="yes"/>
      <point x="555" y="678"/>
      <point x="476" y="695"/>
      <point x="393" y="695" type="curve" smooth="yes"/>
      <point x="171" y="695"/>
      <point x="47" y="565"/>
      <point x="47" y="340" type="curve" smooth="yes"/>
      <point x="47" y="115"/>
      <point x="173" y="-15"/>
      <point x="394" y="-15" type="curve" smooth="yes"/>
    </contour>
    <contour>
      <point x="400" y="782" type="line" smooth="yes"/>
      <point x="424" y="782"/>
      <point x="440" y="801"/>
      <point x="440" y="824" type="curve" smooth="yes"/>
      <point x="440" y="840" type="line" smooth="yes"/>
      <point x="440" y="863"/>
      <point x="423" y="882"/>
      <point x="400" y="882" type="curve" smooth="yes"/>
      <point x="382" y="882" type="line" smooth="yes"/>
      <point x="359" y="882"/>
      <point x="342" y="863"/>
      <point x="342" y="840" type="curve" smooth="yes"/>
      <point x="342" y="824" type="line" smooth="yes"/>
      <point x="342" y="801"/>
      <point x="359" y="782"/>
      <point x="382" y="782" type="curve" smooth="yes"/>
    </contour>
  </outline>
</glyph>
<glyph name="Dcaron" format="1">
  <advance width="680"/>
  <unicode hex="010E"/>
  <note>
	Dcaron
  </note>
  <outline>
    <contour>
      <point x="287" y="0" type="line" smooth="yes"/>
      <point x="499" y="0"/>
      <point x="633" y="92"/>
      <point x="633" y="340" type="curve" smooth="yes"/>
      <point x="633" y="589"/>
      <point x="499" y="680"/>
      <point x="287" y="680" type="curve" smooth="yes"/>
      <point x="97" y="680" type="line" smooth="yes"/>
      <point x="76" y="680"/>
      <point x="67" y="670"/>
      <point x="67" y="650" type="curve" smooth="yes"/>
      <point x="67" y="30" type="line" smooth="yes"/>
      <point x="67" y="10"/>
      <point x="76" y="0"/>
      <point x="97" y="0" type="curve" smooth="yes"/>
    </contour>
    <contour>
      <point x="158" y="607" type="line"/>
      <point x="294" y="607" type="line" smooth="yes"/>
      <point x="448" y="607"/>
      <point x="544" y="543"/>
      <point x="544" y="340" type="curve" smooth="yes"/>
      <point x="544" y="137"/>
      <point x="448" y="73"/>
      <point x="294" y="73" type="curve" smooth="yes"/>
      <point x="158" y="73" type="line"/>
    </contour>
    <contour>
      <point x="314" y="756" type="line" smooth="yes"/>
      <point x="332" y="756"/>
      <point x="335" y="762"/>
      <point x="345" y="775" type="curve" smooth="yes"/>
      <point x="453" y="924" type="line" smooth="yes"/>
      <point x="463" y="937"/>
      <point x="460" y="949"/>
      <point x="445" y="949" type="curve" smooth="yes"/>
      <point x="405" y="949" type="line" smooth="yes"/>
      <point x="385" y="949"/>
      <point x="382" y="945"/>
      <point x="374" y="933" type="curve" smooth="yes"/>
      <point x="297" y="819" type="line"/>
      <point x="219" y="933" type="line" smooth="yes"/>
      <point x="211" y="945"/>
      <point x="208" y="949"/>
      <point x="188" y="949" type="curve" smooth="yes"/>
      <point x="148" y="949" type="line" smooth="yes"/>
      <point x="133" y="949"/>
      <point x="131" y="938"/>
      <point x="141" y="924" type="curve" smooth="yes"/>
      <point x="249" y="775" type="line" smooth="yes"/>
      <point x="259" y="762"/>
      <point x="262" y="756"/>
      <point x="280" y="756" type="curve" smooth="yes"/>
    </contour>
  </outline>
</glyph>
<glyph name="Dcroat" format="1">
  <advance width="718"/>
  <unicode hex="0110"/>
  <note>
	Dcroat
  </note>
  <outline>
    <contour>
      <point x="325" y="0" type="line" smooth="yes"/>
      <point x="536" y="0"/>
      <point x="671" y="92"/>
      <point x="671" y="340" type="curve" smooth="yes"/>
      <point x="671" y="589"/>
      <point x="536" y="680"/>
      <point x="325" y="680" type="curve" smooth="yes"/>
      <point x="135" y="680" type="line" smooth="yes"/>
      <point x="113" y="680"/>
      <point x="105" y="670"/>
      <point x="105" y="650" type="curve" smooth="yes"/>
      <point x="105" y="377" type="line"/>
      <point x="46" y="377" type="line" smooth="yes"/>
      <point x="25" y="377"/>
      <point x="17" y="369"/>
      <point x="17" y="348" type="curve" smooth="yes"/>
      <point x="17" y="331" type="line" smooth="yes"/>
      <point x="17" y="311"/>
      <point x="25" y="304"/>
      <point x="46" y="304" type="curve" smooth="yes"/>
      <point x="105" y="304" type="line"/>
      <point x="105" y="30" type="line" smooth="yes"/>
      <point x="105" y="10"/>
      <point x="113" y="0"/>
      <point x="135" y="0" type="curve" smooth="yes"/>
    </contour>
    <contour>
      <point x="196" y="304" type="line"/>
      <point x="366" y="304" type="line" smooth="yes"/>
      <point x="387" y="304"/>
      <point x="396" y="311"/>
      <point x="396" y="331" type="curve" smooth="yes"/>
      <point x="396" y="348" type="line" smooth="yes"/>
      <point x="396" y="369"/>
      <point x="387" y="377"/>
      <point x="366" y="377" type="curve" smooth="yes"/>
      <point x="196" y="377" type="line"/>
      <point x="196" y="607" type="line"/>
      <point x="332" y="607" type="line" smooth="yes"/>
      <point x="486" y="607"/>
      <point x="581" y="543"/>
      <point x="581" y="340" type="curve" smooth="yes"/>
      <point x="581" y="137"/>
      <point x="486" y="73"/>
      <point x="332" y="73" type="curve" smooth="yes"/>
      <point x="196" y="73" type="line"/>
    </contour>
  </outline>
</glyph>
<glyph name="dcroat" format="1">
  <advance width="646"/>
  <unicode hex="0111"/>
  <note>
	dcroat
  </note>
  <outline>
    <contour>
      <point x="414" y="-15"/>
      <point x="502" y="13"/>
      <point x="548" y="48" type="curve"/>
      <point x="548" y="538" type="line"/>
      <point x="599" y="538" type="line" smooth="yes"/>
      <point x="620" y="538"/>
      <point x="629" y="545"/>
      <point x="629" y="565" type="curve" smooth="yes"/>
      <point x="629" y="582" type="line" smooth="yes"/>
      <point x="629" y="603"/>
      <point x="620" y="611"/>
      <point x="599" y="611" type="curve" smooth="yes"/>
      <point x="548" y="611" type="line"/>
      <point x="548" y="650" type="line" smooth="yes"/>
      <point x="548" y="670"/>
      <point x="539" y="680"/>
      <point x="517" y="680" type="curve" smooth="yes"/>
      <point x="488" y="680" type="line" smooth="yes"/>
      <point x="466" y="680"/>
      <point x="458" y="670"/>
      <point x="458" y="650" type="curve" smooth="yes"/>
      <point x="458" y="611" type="line"/>
      <point x="294" y="611" type="line" smooth="yes"/>
      <point x="273" y="611"/>
      <point x="265" y="603"/>
      <point x="265" y="582" type="curve" smooth="yes"/>
      <point x="265" y="565" type="line" smooth="yes"/>
      <point x="265" y="545"/>
      <point x="273" y="538"/>
      <point x="294" y="538" type="curve" smooth="yes"/>
      <point x="458" y="538" type="line"/>
      <point x="458" y="439" type="line"/>
      <point x="423" y="477"/>
      <point x="366" y="495"/>
      <point x="286" y="495" type="curve" smooth="yes"/>
      <point x="140" y="495"/>
      <point x="47" y="392"/>
      <point x="47" y="241" type="curve" smooth="yes"/>
      <point x="47" y="70"/>
      <point x="137" y="-15"/>
      <point x="324" y="-15" type="curve" smooth="yes"/>
    </contour>
    <contour>
      <point x="202" y="54"/>
      <point x="136" y="104"/>
      <point x="136" y="236" type="curve" smooth="yes"/>
      <point x="136" y="351"/>
      <point x="191" y="426"/>
      <point x="310" y="426" type="curve" smooth="yes"/>
      <point x="389" y="426"/>
      <point x="458" y="390"/>
      <point x="458" y="310" type="curve" smooth="yes"/>
      <point x="458" y="85" type="line"/>
      <point x="430" y="67"/>
      <point x="385" y="54"/>
      <point x="326" y="54" type="curve" smooth="yes"/>
    </contour>
  </outline>
</glyph>
<glyph name="emacron" format="1">
  <advance width="600"/>
  <unicode hex="0113"/>
  <note>
	emacron
  </note>
  <outline>
    <contour>
      <point x="399" y="-15"/>
      <point x="457" y="-1"/>
      <point x="511" y="33" type="curve" smooth="yes"/>
      <point x="519" y="38"/>
      <point x="522" y="44"/>
      <point x="517" y="53" type="curve" smooth="yes"/>
      <point x="498" y="86" type="line"/>
      <point x="494" y="94"/>
      <point x="490" y="96"/>
      <point x="480" y="90" type="curve" smooth="yes"/>
      <point x="443" y="67"/>
      <point x="393" y="51"/>
      <point x="330" y="51" type="curve" smooth="yes"/>
      <point x="210" y="51"/>
      <point x="134" y="105"/>
      <point x="134" y="212" type="curve"/>
      <point x="527" y="212" type="line" smooth="yes"/>
      <point x="544" y="212"/>
      <point x="553" y="222"/>
      <point x="553" y="239" type="curve" smooth="yes"/>
      <point x="553" y="408"/>
      <point x="470" y="495"/>
      <point x="306" y="495" type="curve" smooth="yes"/>
      <point x="143" y="495"/>
      <point x="47" y="406"/>
      <point x="47" y="231" type="curve" smooth="yes"/>
      <point x="47" y="57"/>
      <point x="177" y="-15"/>
      <point x="321" y="-15" type="curve" smooth="yes"/>
    </contour>
    <contour>
      <point x="134" y="367"/>
      <point x="193" y="431"/>
      <point x="306" y="431" type="curve" smooth="yes"/>
      <point x="417" y="431"/>
      <point x="469" y="371"/>
      <point x="469" y="273" type="curve"/>
      <point x="134" y="273" type="line"/>
    </contour>
    <contour>
      <point x="443" y="579" type="line" smooth="yes"/>
      <point x="464" y="579"/>
      <point x="472" y="586"/>
      <point x="472" y="607" type="curve" smooth="yes"/>
      <point x="472" y="623" type="line" smooth="yes"/>
      <point x="472" y="644"/>
      <point x="464" y="652"/>
      <point x="443" y="652" type="curve" smooth="yes"/>
      <point x="167" y="652" type="line" smooth="yes"/>
      <point x="146" y="652"/>
      <point x="138" y="644"/>
      <point x="138" y="623" type="curve" smooth="yes"/>
      <point x="138" y="607" type="line" smooth="yes"/>
      <point x="138" y="586"/>
      <point x="146" y="579"/>
      <point x="167" y="579" type="curve" smooth="yes"/>
    </contour>
  </outline>
</glyph>
<glyph name="ebreve" format="1">
  <advance width="600"/>
  <unicode hex="0115"/>
  <note>
	ebreve
  </note>
  <outline>
    <contour>
      <point x="399" y="-15"/>
      <point x="457" y="-1"/>
      <point x="511" y="33" type="curve" smooth="yes"/>
      <point x="519" y="38"/>
      <point x="522" y="44"/>
      <point x="517" y="53" type="curve" smooth="yes"/>
      <point x="498" y="86" type="line"/>
      <point x="494" y="94"/>
      <point x="490" y="96"/>
      <point x="480" y="90" type="curve" smooth="yes"/>
      <point x="443" y="67"/>
      <point x="393" y="51"/>
      <point x="330" y="51" type="curve" smooth="yes"/>
      <point x="210" y="51"/>
      <point x="134" y="105"/>
      <point x="134" y="212" type="curve"/>
      <point x="527" y="212" type="line" smooth="yes"/>
      <point x="544" y="212"/>
      <point x="553" y="222"/>
      <point x="553" y="239" type="curve" smooth="yes"/>
      <point x="553" y="408"/>
      <point x="470" y="495"/>
      <point x="306" y="495" type="curve" smooth="yes"/>
      <point x="143" y="495"/>
      <point x="47" y="406"/>
      <point x="47" y="231" type="curve" smooth="yes"/>
      <point x="47" y="57"/>
      <point x="177" y="-15"/>
      <point x="321" y="-15" type="curve" smooth="yes"/>
    </contour>
    <contour>
      <point x="134" y="367"/>
      <point x="193" y="431"/>
      <point x="306" y="431" type="curve" smooth="yes"/>
      <point x="417" y="431"/>
      <point x="469" y="371"/>
      <point x="469" y="273" type="curve"/>
      <point x="134" y="273" type="line"/>
    </contour>
    <contour>
      <point x="412" y="548"/>
      <point x="461" y="614"/>
      <point x="461" y="706" type="curve" smooth="yes"/>
      <point x="461" y="717"/>
      <point x="455" y="724"/>
      <point x="445" y="724" type="curve" smooth="yes"/>
      <point x="400" y="724" type="line" smooth="yes"/>
      <point x="386" y="724"/>
      <point x="383" y="717"/>
      <point x="383" y="705" type="curve" smooth="yes"/>
      <point x="383" y="655"/>
      <point x="369" y="617"/>
      <point x="308" y="617" type="curve" smooth="yes"/>
      <point x="247" y="617"/>
      <point x="233" y="655"/>
      <point x="233" y="705" type="curve" smooth="yes"/>
      <point x="233" y="717"/>
      <point x="230" y="724"/>
      <point x="216" y="724" type="curve" smooth="yes"/>
      <point x="171" y="724" type="line" smooth="yes"/>
      <point x="161" y="724"/>
      <point x="155" y="717"/>
      <point x="155" y="706" type="curve" smooth="yes"/>
      <point x="155" y="614"/>
      <point x="203" y="548"/>
      <point x="308" y="548" type="curve" smooth="yes"/>
    </contour>
  </outline>
</glyph>
<glyph name="edotaccent" format="1">
  <advance width="600"/>
  <unicode hex="0117"/>
  <note>
	edotaccent
  </note>
  <outline>
    <contour>
      <point x="399" y="-15"/>
      <point x="457" y="-1"/>
      <point x="511" y="33" type="curve" smooth="yes"/>
      <point x="519" y="38"/>
      <point x="522" y="44"/>
      <point x="517" y="53" type="curve" smooth="yes"/>
      <point x="498" y="86" type="line"/>
      <point x="494" y="94"/>
      <point x="490" y="96"/>
      <point x="480" y="90" type="curve" smooth="yes"/>
      <point x="443" y="67"/>
      <point x="393" y="51"/>
      <point x="330" y="51" type="curve" smooth="yes"/>
      <point x="210" y="51"/>
      <point x="134" y="105"/>
      <point x="134" y="212" type="curve"/>
      <point x="527" y="212" type="line" smooth="yes"/>
      <point x="544" y="212"/>
      <point x="553" y="222"/>
      <point x="553" y="239" type="curve" smooth="yes"/>
      <point x="553" y="408"/>
      <point x="470" y="495"/>
      <point x="306" y="495" type="curve" smooth="yes"/>
      <point x="143" y="495"/>
      <point x="47" y="406"/>
      <point x="47" y="231" type="curve" smooth="yes"/>
      <point x="47" y="57"/>
      <point x="177" y="-15"/>
      <point x="321" y="-15" type="curve" smooth="yes"/>
    </contour>
    <contour>
      <point x="134" y="367"/>
      <point x="193" y="431"/>
      <point x="306" y="431" type="curve" smooth="yes"/>
      <point x="417" y="431"/>
      <point x="469" y="371"/>
      <point x="469" y="273" type="curve"/>
      <point x="134" y="273" type="line"/>
    </contour>
    <contour>
      <point x="318" y="568" type="line" smooth="yes"/>
      <point x="342" y="568"/>
      <point x="358" y="587"/>
      <point x="358" y="610" type="curve" smooth="yes"/>
      <point x="358" y="626" type="line" smooth="yes"/>
      <point x="358" y="649"/>
      <point x="341" y="668"/>
      <point x="318" y="668" type="curve" smooth="yes"/>
      <point x="300" y="668" type="line" smooth="yes"/>
      <point x="277" y="668"/>
      <point x="260" y="649"/>
      <point x="260" y="626" type="curve" smooth="yes"/>
      <point x="260" y="610" type="line" smooth="yes"/>
      <point x="260" y="587"/>
      <point x="277" y="568"/>
      <point x="300" y="568" type="curve" smooth="yes"/>
    </contour>
  </outline>
</glyph>
